<svg xmlns="http://www.w3.org/2000/svg" xmlns:xlink="http://www.w3.org/1999/xlink" width="122.193" height="92.088" viewBox="0 0 122.193 92.088"><defs><clipPath id="a"><path d="M154.3,127.968a30.359,30.359,0,1,1-30.359-30.359A30.359,30.359,0,0,1,154.3,127.968Z" transform="translate(-93.579 -97.609)" fill="none"/></clipPath><clipPath id="b"><path d="M252.926,304.684v2.4s1.7,1.391,9.195,1.391c0,0,5.718.154,9.195-1.468v-2.318s-2.241,1-9.195,1C262.121,305.689,256.093,305.689,252.926,304.684Z" transform="translate(-252.926 -304.684)" fill="none" stroke="#ed8f00" stroke-miterlimit="10" stroke-width="0.25"/></clipPath><clipPath id="c"><path d="M249.479,294.743v2.4s1.7,1.391,9.195,1.391c0,0,5.718.154,9.2-1.468v-2.318s-2.241,1-9.2,1C258.674,295.748,252.647,295.748,249.479,294.743Z" transform="translate(-249.479 -294.743)" fill="none" stroke="#ed8f00" stroke-miterlimit="10" stroke-width="0.25"/></clipPath><clipPath id="d"><path d="M244.12,283.938v2.4s1.7,1.391,9.195,1.391c0,0,5.718.154,9.195-1.468v-2.318s-2.241,1-9.195,1C253.315,284.943,247.288,284.943,244.12,283.938Z" transform="translate(-244.12 -283.938)" fill="none" stroke="#ed8f00" stroke-miterlimit="10" stroke-width="0.25"/></clipPath><clipPath id="e"><path d="M249.438,273.832v2.4s1.7,1.391,9.195,1.391c0,0,5.718.154,9.2-1.468v-2.318s-2.241,1-9.2,1C258.633,274.837,252.606,274.836,249.438,273.832Z" transform="translate(-249.438 -273.832)" fill="none" stroke="#ed8f00" stroke-miterlimit="10" stroke-width="0.25"/></clipPath><clipPath id="f"><path d="M302.666,264.7l-1.955,1.384s-.154,2.191,4.176,8.309c0,0,3.177,4.756,6.51,6.657l1.892-1.339s-2.115-1.249-6.131-6.926C307.157,272.79,303.676,267.87,302.666,264.7Z" transform="translate(-300.71 -264.704)" fill="none" stroke="#ed8f00" stroke-miterlimit="10" stroke-width="0.25"/></clipPath></defs><g transform="translate(-2.039 -44.146)"><path d="M25.788,130.783c-11-5.537-19.969-15.506-23.031-30.877C.031,86.223,5.2,70.725,15.9,65.665c11.419-5.4,25.194,1.543,37.249-1.825,7.215-2.015,13.14-7.528,19.515-11.791,9.785-6.543,21.719-10.264,32.937-6.23,9.044,3.252,16.14,11.641,18.094,22.544,2.494,13.923-4.17,27.659-11.28,37.655a67.194,67.194,0,0,1-22.685,19.969,87.144,87.144,0,0,1-36.824,10.151A53.933,53.933,0,0,1,25.788,130.783Z" fill="#dce9f9" opacity="0.487"/><g transform="translate(30.614 60.835)"><path d="M165.128,137.445a30.359,30.359,0,1,1-30.359-30.359A30.359,30.359,0,0,1,165.128,137.445Z" transform="translate(-101.029 -104.128)" opacity="0.1" style="mix-blend-mode:multiply;isolation:isolate"/><g transform="translate(0 0)"><path d="M154.3,127.968a30.359,30.359,0,1,1-30.359-30.359A30.359,30.359,0,0,1,154.3,127.968Z" transform="translate(-93.579 -97.609)" fill="#1fb28f"/><g clip-path="url(#a)"><path d="M247.734,249.286l-.169-.169h0l-.169-.169h0l-.169-.169h0l-.17-.169h0l-.169-.169h0l-.169-.169h0l-.169-.169h0l-.169-.169h0l-.169-.169h0l-.169-.169h0l-.169-.169h0l-.169-.169h0l-.169-.169h0l-.169-.169h0l-.17-.169h0l-.169-.169h0l-.169-.169h0l-.169-.169h0l-.169-.169h0l-.169-.169h0l-.17-.169h0l-.169-.169h0l-.169-.169h0l-.169-.169h0l-.169-.169h0l-.17-.169h0l-.169-.169h0l-.17-.169h0l-.169-.169h0l-.169-.169h0l-.169-.169h0l-.17-.169h0l-.169-.169h0l-.169-.169h0l-.169-.169h0l-.17-.169h0l-.169-.169h0l-.169-.169h0l-.17-.169h0l-.169-.169h0l-.17-.169h0l-.169-.169h0l-.17-.169h0l-.169-.169h0l-.169-.169h0l-.15-.15h.617v-4.618h-.169v-.169h-.169v-.169h-.17v-.169h-.169v-.169h-.169v-.169h-.169V235.9h-.17v-.169h-.169v-.169h-.17v-.169H238.9v-.169h-.169v-.169h-.169v-.169h-.169V234.8h2.2v-4.618h-.169v-.169h-.169v-.169h-.17v-.169h-.169V229.5h-.169v-.169h-.169v-.169h-.17V229h-.169v-.169h-.17v-.169H238.9v-.169h-.169v-.169h-.169v-.169h-.169v-.169h-.17v-.169h-.169v-.169h-.17v-.169h-.169v-.169h-.169v-.169h-.169v-.169H237.2V226.8h-.169v-.169h-.169v-.169H236.7v-.169h-.169v-.169h-.169v-.169h-.169v-.169h-.169v-.169h-.169v-.169h-.169v-.169h-.169v-.169h-.17v-.169h-.169v-.169H235V224.6h-.169v-.169h-.169v-.169H234.5V224.1h-.169v-.169h-.169v-.169h-.169v-.169h-.17v-.169h-.169v-.169h-.169v-.169h-.169v-.169h-.169v-.169h-.169v-.169H232.8v-.169h-.169v-.028a9.265,9.265,0,0,1,3.412-.634,10.574,10.574,0,0,1,6.915,2.657l.041.046.006-.006.024.02c.046.052.094.1.139.155l.01-.01c.053.06.108.118.159.179l.01-.01c.053.06.108.117.16.179l.009-.009c.053.06.108.117.16.179l.01-.01c.053.06.108.117.16.179l.009-.009c.053.06.108.117.16.179l.01-.01c.053.06.108.117.16.179l.009-.009c.053.06.108.117.16.178l3.547-3.542a18.349,18.349,0,0,0-1.325-1.482c-.056-.057-.113-.112-.169-.169s-.113-.112-.169-.169-.113-.112-.17-.169-.113-.112-.169-.169-.113-.112-.17-.169-.113-.112-.169-.169-.113-.112-.169-.169-.113-.112-.169-.169-.113-.112-.169-.169-.113-.112-.169-.169-.113-.112-.169-.169-.113-.112-.169-.169-.113-.112-.169-.169-.114-.112-.169-.169-.113-.112-.169-.169-.113-.112-.169-.169-.113-.112-.169-.169-.113-.112-.169-.169-.113-.112-.169-.169-.113-.112-.17-.169-.113-.112-.169-.169-.113-.112-.17-.169-.113-.112-.169-.169-.113-.112-.169-.169-.113-.112-.169-.169-.113-.112-.169-.169-.113-.112-.169-.169-.113-.112-.169-.169-.113-.112-.17-.169-.113-.112-.169-.169-.114-.112-.17-.169-.113-.112-.169-.169-.113-.112-.169-.169-.113-.112-.169-.169-.113-.112-.17-.169-.113-.112-.169-.169-.113-.112-.17-.169-.113-.112-.169-.169-.113-.112-.169-.169-.113-.112-.169-.169-.113-.112-.169-.169-.113-.112-.17-.169-.113-.112-.169-.169-.113-.112-.169-.169-.113-.112-.169-.169-.113-.112-.169-.169-.113-.112-.169-.169-.113-.112-.169-.169-.113-.112-.169-.169-.113-.112-.17-.169-.113-.112-.169-.169-.113-.112-.169-.169-.113-.112-.17-.169-.113-.112-.169-.169-.113-.112-.169-.169-.113-.112-.169-.169-.113-.112-.17-.169-.113-.112-.169-.169-.113-.112-.17-.169-.113-.112-.169-.169-.113-.112-.169-.169-.113-.112-.169-.169-.113-.112-.169-.169-.113-.112-.169-.169-.113-.112-.169-.169-.113-.112-.169-.169-.113-.112-.169-.169-.113-.112-.169-.169-.113-.112-.169-.169-.114-.112-.17-.169-.113-.112-.169-.169-.113-.112-.169-.169-.113-.112-.169-.169-.113-.112-.17-.169-.113-.112-.169-.169-.113-.112-.169-.169-.113-.112-.169-.169-.113-.112-.169-.169-.113-.112-.169-.169-.113-.112-.169-.169-.113-.112-.17-.169-.113-.112-.169-.169-.113-.112-.17-.169-.113-.112-.169-.169-.113-.112-.17-.169-.113-.112-.169-.169-.113-.112-.169-.169-.113-.112-.169-.169-.113-.112-.169-.169-.113-.112-.169-.169-.113-.112-.169-.169-.113-.112-.17-.169-.113-.112-.169-.169-.113-.112-.169-.169-.113-.112-.169-.169-.113-.112-.169-.169-.113-.112-.169-.169c-.1-.1-.2-.194-.295-.292l-.043-.046c-.056-.057-.113-.112-.169-.169s-.113-.112-.169-.169-.113-.112-.169-.169-.113-.112-.17-.169-.113-.112-.169-.169-.113-.112-.17-.169-.113-.112-.169-.169-.113-.112-.169-.169-.113-.112-.169-.169-.114-.112-.17-.169-.113-.112-.169-.169-.113-.112-.169-.169-.113-.112-.169-.169-.113-.112-.169-.169-.113-.112-.169-.169-.113-.112-.169-.169-.113-.112-.169-.169-.113-.112-.169-.169-.113-.112-.169-.169-.113-.112-.169-.169-.113-.112-.17-.169-.113-.112-.169-.169-.113-.112-.17-.169-.113-.112-.169-.169-.113-.112-.17-.169-.113-.112-.169-.169-.113-.112-.169-.169-.113-.112-.169-.169-.113-.112-.169-.169-.113-.112-.169-.169-.113-.112-.169-.169-.113-.112-.17-.169-.113-.112-.169-.169-.113-.112-.169-.169-.113-.112-.169-.169-.113-.112-.169-.169-.113-.112-.169-.169-.113-.112-.17-.169-.113-.112-.169-.169-.113-.112-.169-.169-.113-.112-.169-.169-.113-.112-.169-.169-.113-.112-.17-.169-.113-.112-.169-.169-.113-.112-.17-.169-.113-.112-.169-.169-.113-.112-.169-.169-.113-.112-.169-.169-.113-.112-.169-.169-.113-.112-.169-.169-.113-.112-.169-.169-.113-.112-.169-.169-.113-.112-.169-.169-.113-.112-.169-.169-.113-.112-.169-.169-.113-.112-.169-.169-.113-.112-.169-.169-.113-.112-.169-.169-.113-.112-.169-.169-.113-.112-.17-.169-.113-.112-.169-.169-.113-.112-.17-.169-.113-.112-.169-.169-.113-.112-.169-.169-.113-.112-.169-.169-.113-.112-.169-.169-.113-.112-.17-.169-.113-.112-.169-.169-.113-.112-.17-.169-.113-.112-.169-.169-.113-.112-.17-.169-.113-.112-.169-.169-.113-.112-.169-.169-.113-.112-.169-.169-.113-.112-.169-.169-.113-.112-.169-.169-.113-.112-.17-.169-.113-.112-.169-.169-.113-.112-.169-.169-.113-.112-.169-.169-.113-.112-.169-.169-.113-.112-.17-.169-.113-.112-.169-.169-.113-.112-.169-.169-.113-.112-.169-.169-.113-.112-.169-.169-.113-.112-.169-.169-.113-.112-.17-.169-.113-.112-.169-.169-.113-.112-.169-.169-.113-.112-.169-.169-.113-.112-.169-.169-.113-.112-.17-.169-.113-.112-.169-.169-.114-.112-.17-.169-.113-.112-.169-.169-.113-.112-.169-.169-.113-.112-.169-.169-.113-.112-.169-.169-.113-.112-.169-.169-.113-.112-.169-.169-.113-.112-.169-.169-.113-.112-.169-.169-.113-.112-.169-.169-.113-.112-.169-.169-.113-.112-.17-.169-.113-.112-.169-.169-.113-.112-.169-.169c-.1-.1-.2-.194-.294-.292l-.044-.047c-.056-.057-.113-.112-.169-.169s-.113-.112-.169-.169-.113-.112-.169-.169-.113-.112-.169-.169-.113-.112-.169-.169-.113-.112-.169-.169-.114-.112-.17-.169-.113-.112-.169-.169-.113-.112-.169-.169-.113-.112-.169-.169-.113-.112-.17-.169-.113-.112-.169-.169-.113-.112-.17-.169-.113-.112-.169-.169-.113-.112-.169-.169-.113-.112-.169-.169-.113-.112-.17-.169-.113-.112-.169-.169-.113-.112-.169-.169-.113-.112-.169-.169-.113-.112-.169-.169-.113-.112-.169-.169-.113-.112-.169-.169-.114-.112-.17-.169-.113-.112-.169-.169-.113-.112-.169-.169-.113-.112-.169-.169-.113-.112-.17-.169-.113-.112-.169-.169-.113-.112-.169-.169-.113-.112-.169-.169-.113-.112-.169-.169-.113-.112-.169-.169-.113-.112-.169-.169-.113-.112-.17-.169-.113-.112-.169-.169-.113-.112-.169-.169-.113-.112-.169-.169-.113-.112-.169-.169-.113-.112-.169-.169-.113-.112-.169-.169-.113-.112-.169-.169-.113-.112-.169-.169-.113-.112-.169-.169-.113-.112-.169-.169-.114-.112-.17-.169-.113-.112-.169-.169-.113-.112-.169-.169-.113-.112-.169-.169-.113-.112-.169-.169-.113-.112-.169-.169-.113-.112-.17-.169-.113-.112-.169-.169-.113-.112-.17-.169-.113-.112-.169-.169-.113-.112-.169-.169-.113-.112-.17-.169-.113-.112-.169-.169-.113-.112-.17-.169-.113-.112-.169-.169-.113-.112-.17-.169-.113-.112-.169-.169-.114-.112-.17-.169-.113-.112-.169-.169-.113-.112-.169-.169-.113-.112-.169-.169-.113-.112-.17-.169-.113-.112-.169-.169-.113-.112-.169-.169-.114-.112-.17-.169-.113-.112-.169-.169-.113-.112-.169-.169-.113-.112-.169-.169-.113-.112-.169-.169-.113-.112-.169-.169-.113-.112-.169-.169-.113-.112-.169-.169-.113-.112-.17-.169-.113-.112-.169-.169-.113-.112-.169-.169-.113-.112-.169-.169-.113-.112-.169-.169-.113-.112-.169-.169-.113-.112-.169-.169-.114-.112-.17-.169-.113-.112-.169-.169-.113-.112-.169-.169-.113-.112-.169-.169-.113-.112-.17-.169-.112-.112-.169-.169-.113-.113-.17-.17-.113-.112-.169-.169-.113-.112-.169-.169-.113-.113-.169-.169-.113-.113-.169-.169-.113-.112-.17-.169-.113-.112-.169-.169-.113-.112-.169-.169-.113-.112-.169-.169-.113-.112-.17-.169-.113-.112-.169-.169-.113-.112-.169-.169-.113-.113-.17-.169-.113-.113-.17-.169-.112-.112-.169-.169-.113-.112-.17-.169c-.1-.1-.2-.195-.3-.292l-.043-.046c-.056-.057-.113-.113-.17-.169s-.112-.112-.169-.169-.113-.113-.17-.169-.113-.112-.169-.169-.113-.112-.169-.169-.113-.112-.169-.169-.114-.112-.17-.169-.113-.112-.168-.169-.113-.112-.169-.169-.113-.112-.17-.169-.112-.112-.169-.169-.113-.113-.17-.169-.112-.112-.169-.169-.113-.113-.169-.169-.113-.113-.169-.169-.113-.112-.169-.169-.113-.113-.169-.169-.114-.113-.17-.17-.113-.112-.169-.169-.112-.112-.169-.169-.113-.113-.169-.17-.113-.112-.17-.169-.113-.113-.169-.169-.113-.113-.169-.169-.113-.112-.169-.169-.112-.111-.168-.168-.113-.112-.169-.169-.113-.112-.169-.169-.113-.112-.169-.169-.113-.112-.169-.169-.113-.112-.17-.169-.113-.112-.169-.169-.113-.112-.169-.169-.113-.112-.169-.169-.113-.112-.169-.169-.113-.112-.169-.169-.113-.112-.169-.169-.113-.112-.169-.169-.113-.112-.169-.169-.112-.112-.169-.169-.113-.112-.169-.169-.112-.112-.169-.169-.113-.112-.169-.169-.113-.112-.169-.169-.113-.112-.169-.169-.113-.112-.169-.169-.113-.112-.17-.169-.113-.112-.169-.169-.113-.112-.169-.169-.113-.112-.169-.169-.113-.112-.169-.169-.113-.112-.169-.169-.113-.112-.169-.169-.113-.112-.169-.169-.113-.112-.169-.169-.113-.112-.169-.169-.113-.112-.169-.169-.113-.112-.169-.169-.113-.112-.169-.169-.113-.112-.169-.169-.113-.112-.169-.169-.113-.112-.169-.169-.113-.112-.169-.169-.113-.112-.169-.169-.113-.112-.169-.169-.113-.112-.169-.169-.113-.112-.169-.169-.113-.112-.169-.169-.113-.112-.169-.169-.113-.112-.169-.169c-.1-.1-.2-.195-.295-.292l-.043-.046c-.056-.057-.113-.112-.169-.169s-.113-.112-.169-.169-.113-.112-.169-.169-.113-.112-.169-.169-.113-.112-.169-.169-.113-.112-.169-.169-.113-.112-.169-.169-.113-.112-.169-.169-.113-.112-.169-.169-.113-.112-.169-.169-.113-.112-.169-.169-.113-.112-.169-.169-.113-.112-.169-.169-.112-.112-.169-.169-.113-.112-.169-.169-.113-.112-.169-.169-.113-.112-.169-.169-.113-.112-.169-.169-.113-.112-.169-.169-.113-.112-.169-.169-.113-.112-.169-.169-.112-.112-.169-.169-.113-.112-.169-.169-.113-.112-.169-.169-.113-.112-.169-.169-.113-.112-.169-.169-.113-.112-.169-.169-.113-.112-.169-.169-.113-.112-.169-.169-.112-.112-.169-.169-.113-.112-.169-.169-.112-.112-.169-.169-.113-.112-.169-.169-.112-.112-.169-.169-.113-.112-.169-.169-.113-.112-.169-.169-.113-.112-.169-.169-.113-.112-.169-.169-.113-.112-.169-.169-.112-.112-.169-.169-.113-.112-.169-.169-.112-.112-.169-.169-.113-.112-.169-.169-.113-.112-.169-.169-.113-.112-.169-.169-.113-.112-.169-.169-.113-.112-.169-.169-.113-.112-.169-.169-.113-.112-.169-.169-.112-.112-.169-.169-.113-.112-.169-.169c-.1-.1-.2-.195-.294-.292l-.044-.046c-.055-.057-.113-.112-.169-.169s-.113-.112-.169-.169-.113-.112-.169-.169-.113-.112-.169-.169-.113-.112-.169-.169-.113-.112-.169-.169-.112-.112-.169-.169-.113-.112-.169-.169-.113-.112-.169-.169-.113-.112-.169-.169-.113-.112-.169-.169-.113-.112-.169-.169-.113-.112-.169-.169-.113-.112-.169-.169-.113-.112-.169-.169-.113-.112-.17-.169-.112-.112-.169-.169-.113-.112-.169-.169-.113-.112-.169-.169-.113-.112-.169-.169-.113-.112-.169-.169-.113-.112-.17-.169-.113-.112-.169-.169-.113-.112-.169-.169-.113-.112-.169-.169-.113-.112-.169-.169-.113-.112-.169-.169-.113-.112-.169-.169-.113-.112-.169-.169-.113-.112-.169-.169-.113-.112-.169-.169-.113-.112-.169-.169-.113-.112-.169-.169-.113-.112-.169-.169-.113-.112-.169-.169-.113-.112-.169-.169-.113-.112-.169-.169-.113-.112-.169-.169-.113-.112-.169-.169-.113-.112-.169-.169-.113-.112-.169-.169-.113-.112-.169-.169-.113-.112-.169-.169-.113-.112-.169-.169-.113-.112-.169-.169-.113-.112-.169-.169-.113-.112-.169-.169-.113-.112-.169-.169-.113-.112-.169-.169-.113-.112-.169-.169-.113-.112-.169-.169-.113-.112-.169-.169-.113-.112-.169-.169-.113-.112-.169-.169-.113-.112-.169-.169-.113-.112-.169-.169-.113-.112-.169-.169a15.052,15.052,0,0,0-10.846-4.832c-7.491,0-13.076,5.932-14.853,14.069H131.13V150.3h.169v.169h.169v.169h.169v.169h.169v.169h.169v.169h.169v.169h.169v.169h.169v.169h.169v.169h.169v.169h.169v.169h.169v.169h.169v.086h-2.2v4.618h.169v.169h.169v.169h.169v.169h.169v.169h.169v.169h.169v.169h.169v.169h.169v.169h.169v.169h.169v.169h.169v.169h.169v.169h.169v.169h.169v.169h.169v.169h.169v.169H134v.169h.169v.169h.169v.169h.169v.169h.169v.169h.169v.169h.169v.169h.169v.169h.169v.169h.169v.169h.169v.169h.169v.169h.169v.169h.169v.169h.169v.169h.169v.169h.169v.169h.169v.169h.169v.169h.169v.169h.169v.169h.169v.169h.169v.169h.169v.169h.169v.169h.169v.169h.169v.169h.169v.169h.169v.169h.169v.169h.169v.169h.169v.169h.169v.169h.169v.169h.169v.169h.169v.169h.169v.169h.169v.169h.169v.169h.169v.169h.169v.169h.169v.169h.169V167h.169v.169h.169v.169h.169v.169h.169v.169h.169v.169h.169v.169h.169v.169h.169v.169h.169v.169h.169v.169h.169v.169h.169v.169h.169v.169h.169v.169h.169v.169h.169v.169h.169v.169h.169v.169h.169v.169h.169v.169h.169v.169h.169v.169h.169v.169h.169v.169h.169v.169h.169v.169h.169v.169h.169v.169H146v.169h.169v.169h.169v.169h.169v.169h.169v.169h.169v.169h.169v.169h.169v.169h.169v.169h.169v.169h.169v.169h.169v.169h.169v.169h.169v.169h.169v.169h.169v.169h.169v.169h.169v.169h.169v.169h.169v.169h.169v.169h.169v.169h.169v.169h.169v.169h.169v.169h.169v.169h.169v.169h.169v.169h.169v.169h.169v.169h.169v.169h.169v.169h.169v.169h.169v.169h.169v.169h.169v.169h.169v.169h.169v.169h.169v.169h.169v.169h.169v.169h.17v.169h.169V179h.169v.169h.169v.169h.169v.169h.169v.169h.169v.169h.169v.169h.169v.169h.169v.169h.17v.169h.169v.169h.169v.169h.169v.169h.169v.169h.169v.169h.169v.169h.169v.169h.169v.169h.169v.169h.169v.169h.169v.169h.169v.169h.169v.169h.169v.169h.169v.169h.169v.169h.169v.169h.169v.169h.169v.169H158v.169h.169v.169h.169v.169h.169v.169h.169v.169h.169v.169h.169v.169h.169v.169h.169v.169h.169v.169h.169v.169h.169v.169h.169v.169h.169v.169h.169v.169h.169v.169h.169v.169h.169v.169h.169v.169h.169v.169h.169v.169h.169v.169h.169v.169h.169v.169h.169v.169h.169v.169h.169v.169h.169v.169h.169v.169h.169v.169h.169v.169h.169v.169h.169v.169h.169v.169h.169v.169h.169v.169h.169v.169h.169v.169h.169v.169h.169v.169h.169v.169h.169v.169h.169V191h.169v.169h.169v.169h.169v.169h.169v.169h.169v.169h.169v.169h.169v.169h.169v.169h.169v.169h.169v.169h.169v.169h.169v.169h.169v.169h.169v.169h.169v.169h.169v.169h.169v.169h.169v.169h.169v.169h.169v.169h.169v.169h.169v.169h.169v.169h.169v.169h.169v.169h.169v.169h.169v.169h.169v.169H170v.169h.169v.169h.169v.169h.169v.169h.169v.169h.169v.169h.169v.169h.169v.169h.169v.169h.169v.169h.169v.169h.169v.169h.169v.169h.169v.169h.169v.169h.17v.169h.169v.169h.169v.169h.169v.169h.169v.169h.169v.169h.169v.169h.169v.169h.169v.169h.169v.169h.169v.169h.169v.169h.169v.169h.169v.169h.169v.169h.169v.169h.169v.169h.169v.169h.169v.169h.169v.169h.169v.169h.169v.169h.169v.169h.169v.169h.169v.169h.169v.169h.169v.169h.169V203h.169v.169h.169v.169h.169v.169h.169v.169h.169v.169h.169v.169h.169v.169h.169v.169h.169v.169h.169v.169h.169v.169h.169v.169h.169v.169h.169v.169h.169v.169h.169v.169h.169v.169h.169v.169h.169v.169h.169v.169h.169v.169h.169v.169h.169v.169h.169v.169h.169v.169h.169v.169h.169v.169h.169v.169H182v.169h.169v.169h.169v.169h.169v.169h.169v.169h.169v.169h.169v.169h.169v.169h.169v.169h.169v.169h.169v.169h.169v.169h.169v.169h.169v.169h.169v.169h.169v.169h.169v.169h.169v.169h.169v.169h.169v.169h.17v.169h.169v.169h.169v.169h.169v.169h.169v.169h.169v.169h.169v.169h.169v.169h.169v.169h.169v.169h.169v.169h.169v.169h.169v.169h.169v.169h.169v.169h.169v.169h.17v.169h.169v.169h.169v.169h.169v.169h.169v.169h.169v.169h.169V215h.169v.169h.169v.169h.169v.169h.169v.169h.169v.169h.169v.169h.17v.169h.169v.169h.17v.169h.169v.169h.169v.169h.169v.169h.169v.169h.169v.169h.169v.169h.169v.169h.169v.169h.17v.169h.169v.169h.169v.169h.169v.169h.17v.169h.169v.169h.17v.169h.169v.169h.17v.169h.169v.169h.169v.169H194v.169h.169v.169h.169v.169h.169v.169h.169v.169h.169v.169h.169v.169h.169v.169h.169v.169h.169v.169h.17v.169h.169v.169h.169v.169h.169v.169h.169v.169h.17v.169h.169v.169h.17v.169h.169v.169h.169v.169h.169v.169h.17v.169h.169v.169h.169v.169h.169v.169h.169v.169h.17v.169h.169v.169h.17v.169h.169v.169h.169v.169h.169v.169h.17v.169h.169v.169h.17v.169h.169v.169h.169v.169h.169v.169h.169v.169h.169v.169h.169v.169h.169v.169h.169V227h.17v.169h.169v.169h.169v.169h.169v.169h.169v.169h.169v.169h.17v.169h.169v.169h.169v.169h.169v.169h.169v.169h.169v.169h.169v.169h.169v.169h.169v.169h.169v.169h.169v.169h.17v.169h.169v.169h.169v.169h.17v.169h.169v.169H205v.169h.169v.169h.169v.169h.169v.169h.169v.169h.169v.169h.17v.169h.169v.169h.17v.169h.169v.169h.169v.169h.17v.169h.169v.169h.17v.169h.169v.169h.17v.169h.169v.169h.169v.169h.169v.169h.169v.169h.169v.169h.169v.169h.169v.169h.169v.169h.169v.169h.169v.169h.169v.169h.169v.169h.17v.169h.169v.169h.17v.169h.169v.169h.169v.169h.169v.169h.169v.169h.169v.169h.169v.169h.17v.169h.169v.169h.169v.169h.169v.169h.169v.169h.169v.169h.169v.169h.169v.169h.169v.169h.169v.169h.17v.169h.169V239h.169v.169h.169v.169h.169v.169h.17v.169h.169v.169h.17v.169h.169v.169h.17v.169h.169v.169h.17v.169h.169v.169h.169v.169h.169v.169h.169v.169h.17v.169h.551c.052.052.1.1.156.155s.112.114.169.169.112.114.169.169.113.114.169.169.112.114.169.169.112.114.17.169.112.114.169.169.112.113.169.169.112.114.169.169.112.114.169.169.112.114.169.169.112.114.169.169.113.114.17.169.112.114.169.169.112.114.169.169.112.114.169.169.112.114.17.169.112.114.169.169.112.114.169.169.112.114.169.169.112.114.17.169.112.114.169.169.112.114.169.169.112.114.17.169.112.114.169.169.113.114.17.169.112.114.169.169.113.114.17.169.112.114.169.169.113.114.169.169.112.114.169.169.112.114.169.169.112.114.169.169.112.114.17.169.112.114.169.169.112.114.169.169.113.114.169.169.112.114.169.169.112.113.169.169.112.114.169.169.112.114.169.169.112.114.169.169.112.114.17.169.112.114.169.169.112.114.17.169.112.114.169.169.112.113.169.169.112.114.169.169.112.114.169.169.113.114.17.169.112.114.169.169.113.114.17.169.112.114.169.169.112.114.169.169.112.114.169.169.112.114.169.169.111.113.168.168.112.114.17.169.112.114.17.169a13.509,13.509,0,0,0,9.708,4.114,15.417,15.417,0,0,0,12.015-6.147l-.169-.169Z" transform="translate(-119.408 -120.998)" opacity="0.1" style="mix-blend-mode:multiply;isolation:isolate"/></g><g transform="translate(11.722 10.614)"><path d="M170.254,161.413a10.914,10.914,0,0,1-8.3,4.055c-6.537,0-10.693-6.318-10.693-14.111s4.156-14.111,10.693-14.111a10.915,10.915,0,0,1,8.3,4.055l3.543-3.542a15.392,15.392,0,0,0-12-6.146c-9.147,0-15.455,8.84-15.455,19.745S152.65,171.1,161.8,171.1a15.392,15.392,0,0,0,12-6.146Z" transform="translate(-141.594 -131.612)" fill="#fff"/><g transform="translate(0 14.069)"><rect width="24.896" height="4.618" fill="#fff"/><rect width="24.896" height="4.618" transform="translate(0 6.732)" fill="#fff"/></g></g></g></g><g transform="translate(12.868 95.054)"><rect width="103.469" height="17.832" transform="translate(0 13.181) rotate(-7.319)" fill="#00276b"/><g transform="translate(9.598 5.812)"><path d="M68.779,265.229a3.175,3.175,0,0,0,1.909.519c.62-.08.857-.316.812-.662-.047-.37-.456-.438-1.146-.616l-1.018-.281a2.309,2.309,0,0,1-1.84-1.958,2.645,2.645,0,0,1,2.576-2.779,3.758,3.758,0,0,1,2.709.707l-.861,1.419a2.576,2.576,0,0,0-1.622-.361c-.5.064-.787.283-.743.629.047.37.505.444,1.244.628l.99.248a2.149,2.149,0,0,1,1.787,1.928c.168,1.312-.779,2.621-2.71,2.869a4.527,4.527,0,0,1-3.076-.732Z" transform="translate(-67.479 -248.942)" fill="#fff"/><path d="M90.517,256.282l2.051-.263.545,4.245c.178,1.383.6,1.839,1.411,1.735s1.128-.655.951-2.038l-.545-4.244,1.979-.254.514,4.007c.34,2.647-.5,4.016-2.672,4.295s-3.379-.827-3.719-3.474Z" transform="translate(-83.325 -246.217)" fill="#fff"/><path d="M118.247,253.6l2.791-.359c1.621-.208,2.985.029,3.181,1.555a1.7,1.7,0,0,1-1.073,1.835l.006.047a1.739,1.739,0,0,1,1.879,1.6c.205,1.6-1.089,2.467-2.759,2.681l-3.029.389Zm3.135,2.7c.668-.086.935-.46.874-.937s-.4-.628-1.064-.542l-.691.089.19,1.479Zm.545,3.105c.811-.1,1.152-.463,1.079-1.035s-.486-.762-1.3-.658l-.835.107.218,1.693Z" transform="translate(-102.399 -244.644)" fill="#fff"/><path d="M144.336,255.525a3.177,3.177,0,0,0,1.909.519c.62-.08.857-.317.812-.662-.047-.37-.457-.438-1.146-.616l-1.018-.281a2.309,2.309,0,0,1-1.84-1.958,2.644,2.644,0,0,1,2.576-2.779,3.758,3.758,0,0,1,2.709.706l-.86,1.42a2.577,2.577,0,0,0-1.622-.361c-.5.064-.788.283-.743.629.047.37.505.444,1.244.628l.99.249a2.149,2.149,0,0,1,1.787,1.928c.168,1.312-.779,2.621-2.71,2.869a4.529,4.529,0,0,1-3.076-.732Z" transform="translate(-119.45 -242.267)" fill="#fff"/><path d="M169.946,246.431a3.424,3.424,0,0,1,2.493.722l-.959,1.408a1.734,1.734,0,0,0-1.284-.369c-.93.12-1.61,1.056-1.429,2.462.187,1.455.959,2.18,1.96,2.052a1.806,1.806,0,0,0,1.28-.8l1.28,1.1a3.267,3.267,0,0,1-2.356,1.466A3.643,3.643,0,0,1,166.678,251,3.82,3.82,0,0,1,169.946,246.431Z" transform="translate(-135.682 -239.989)" fill="#fff"/><path d="M195.688,251.516l-1.669-2.428-.787.1.334,2.6-2.051.263-1-7.751,2.933-.377c1.669-.214,3.174.174,3.422,2.106a2.4,2.4,0,0,1-.964,2.4l2.067,2.788Zm-2.665-3.949.739-.095c.811-.1,1.194-.517,1.108-1.185s-.543-.827-1.354-.723l-.739.095Z" transform="translate(-152.111 -238.245)" fill="#fff"/><path d="M216.495,241.331l2.051-.263,1,7.751-2.051.263Z" transform="translate(-169.979 -236.317)" fill="#fff"/><path d="M230.474,239.156l3.005-.386c1.669-.214,3.18.222,3.431,2.177.243,1.9-1.129,2.909-2.751,3.117l-.954.123.315,2.456-2.051.263Zm3.381,3.3c.811-.1,1.141-.558,1.052-1.25s-.552-.9-1.315-.8l-.858.11.263,2.051Z" transform="translate(-179.594 -234.702)" fill="#fff"/><path d="M256.049,236.835,254,237.1l-.221-1.717,6.153-.79.221,1.717-2.051.264.775,6.034-2.051.263Z" transform="translate(-195.623 -231.862)" fill="#fff"/><path d="M279.064,233.3l2.051-.263,1,7.751-2.051.263Z" transform="translate(-213.016 -230.79)" fill="#fff"/><path d="M293.441,234.64c-.328-2.552.944-4.17,3.09-4.445s3.786.98,4.113,3.52-.934,4.241-3.081,4.517S293.769,237.192,293.441,234.64Zm5.1-.656c-.181-1.407-.857-2.145-1.788-2.025s-1.4,1-1.217,2.411.866,2.216,1.8,2.1S298.725,235.391,298.545,233.984Z" transform="translate(-222.87 -228.812)" fill="#fff"/><path d="M321.386,226.658l2.1-.27,2.161,3.238.963,1.645.047-.006a28,28,0,0,1-.642-2.924l-.288-2.241,1.956-.251,1,7.751-2.1.27-2.162-3.25-.962-1.634-.047.006a29.161,29.161,0,0,1,.642,2.924l.288,2.242-1.955.251Z" transform="translate(-242.127 -225.849)" fill="#fff"/></g></g><g transform="translate(77.559 112.903)"><g transform="translate(2.749 11.028)"><g transform="translate(0 1.482)"><path d="M252.926,304.726v2.4s1.7,1.391,9.195,1.391c0,0,5.718.154,9.195-1.469v-2.318s-2.241,1-9.195,1C262.121,305.731,256.093,305.731,252.926,304.726Z" transform="translate(-252.878 -304.652)" fill="#febc27"/><path d="M262.421,308.4c-.261,0-.407,0-.407,0-7.425,0-9.154-1.344-9.224-1.4l-.017-.014V304.5l.062.02c3.124.99,9.12,1,9.18,1,6.864,0,9.152-.99,9.175-1l.068-.03v2.423l-.028.013C268.294,308.295,263.745,308.4,262.421,308.4Zm-9.553-1.467c.2.141,2.156,1.367,9.147,1.367,0,0,.147,0,.406,0,1.315,0,5.821-.105,8.741-1.455v-2.216c-.425.16-2.9.982-9.147.982-.06,0-5.992-.012-9.147-.988Z" transform="translate(-252.772 -304.489)" fill="#ed8f00"/></g><g transform="translate(0.048 1.543)"><g clip-path="url(#b)"><g transform="translate(-2.23 0.063)"><rect width="0.096" height="3.627" fill="#ed8f00" stroke="#ed8f00" stroke-miterlimit="10" stroke-width="0.25"/><g transform="translate(0.695)"><rect width="0.096" height="3.627" fill="#ed8f00" stroke="#ed8f00" stroke-miterlimit="10" stroke-width="0.25"/></g><g transform="translate(1.391)"><rect width="0.096" height="3.627" fill="#ed8f00" stroke="#ed8f00" stroke-miterlimit="10" stroke-width="0.25"/></g><g transform="translate(2.086)"><rect width="0.096" height="3.627" fill="#ed8f00" stroke="#ed8f00" stroke-miterlimit="10" stroke-width="0.25"/></g><g transform="translate(2.781)"><rect width="0.096" height="3.627" fill="#ed8f00" stroke="#ed8f00" stroke-miterlimit="10" stroke-width="0.25"/></g><g transform="translate(3.477)"><rect width="0.096" height="3.627" fill="#ed8f00" stroke="#ed8f00" stroke-miterlimit="10" stroke-width="0.25"/></g><g transform="translate(4.172)"><rect width="0.096" height="3.627" fill="#ed8f00" stroke="#ed8f00" stroke-miterlimit="10" stroke-width="0.25"/></g><g transform="translate(4.867)"><rect width="0.096" height="3.627" fill="#ed8f00" stroke="#ed8f00" stroke-miterlimit="10" stroke-width="0.25"/></g><g transform="translate(5.563)"><rect width="0.096" height="3.627" fill="#ed8f00" stroke="#ed8f00" stroke-miterlimit="10" stroke-width="0.25"/></g><g transform="translate(6.258)"><rect width="0.096" height="3.627" fill="#ed8f00" stroke="#ed8f00" stroke-miterlimit="10" stroke-width="0.25"/></g><g transform="translate(6.954)"><rect width="0.096" height="3.627" fill="#ed8f00" stroke="#ed8f00" stroke-miterlimit="10" stroke-width="0.25"/></g><g transform="translate(7.649)"><rect width="0.096" height="3.627" fill="#ed8f00" stroke="#ed8f00" stroke-miterlimit="10" stroke-width="0.25"/></g><g transform="translate(8.345)"><rect width="0.096" height="3.627" fill="#ed8f00" stroke="#ed8f00" stroke-miterlimit="10" stroke-width="0.25"/></g><g transform="translate(9.04)"><rect width="0.096" height="3.627" fill="#ed8f00" stroke="#ed8f00" stroke-miterlimit="10" stroke-width="0.25"/></g><g transform="translate(9.735)"><rect width="0.096" height="3.627" fill="#ed8f00" stroke="#ed8f00" stroke-miterlimit="10" stroke-width="0.25"/></g><g transform="translate(10.431)"><rect width="0.096" height="3.627" fill="#ed8f00" stroke="#ed8f00" stroke-miterlimit="10" stroke-width="0.25"/></g><g transform="translate(11.126)"><rect width="0.096" height="3.627" fill="#ed8f00" stroke="#ed8f00" stroke-miterlimit="10" stroke-width="0.25"/></g><g transform="translate(11.821)"><rect width="0.096" height="3.627" fill="#ed8f00" stroke="#ed8f00" stroke-miterlimit="10" stroke-width="0.25"/></g><g transform="translate(12.517)"><rect width="0.096" height="3.627" fill="#ed8f00" stroke="#ed8f00" stroke-miterlimit="10" stroke-width="0.25"/></g><g transform="translate(13.212)"><rect width="0.096" height="3.627" fill="#ed8f00" stroke="#ed8f00" stroke-miterlimit="10" stroke-width="0.25"/></g><g transform="translate(13.908)"><rect width="0.096" height="3.627" fill="#ed8f00" stroke="#ed8f00" stroke-miterlimit="10" stroke-width="0.25"/></g><g transform="translate(14.603)"><rect width="0.096" height="3.627" fill="#ed8f00" stroke="#ed8f00" stroke-miterlimit="10" stroke-width="0.25"/></g><g transform="translate(15.298)"><rect width="0.096" height="3.627" fill="#ed8f00" stroke="#ed8f00" stroke-miterlimit="10" stroke-width="0.25"/></g><g transform="translate(15.994)"><rect width="0.096" height="3.627" fill="#ed8f00" stroke="#ed8f00" stroke-miterlimit="10" stroke-width="0.25"/></g><g transform="translate(16.689)"><rect width="0.096" height="3.627" fill="#ed8f00" stroke="#ed8f00" stroke-miterlimit="10" stroke-width="0.25"/></g><g transform="translate(17.385)"><rect width="0.096" height="3.627" fill="#ed8f00" stroke="#ed8f00" stroke-miterlimit="10" stroke-width="0.25"/></g><g transform="translate(18.08)"><rect width="0.096" height="3.627" fill="#ed8f00" stroke="#ed8f00" stroke-miterlimit="10" stroke-width="0.25"/></g><g transform="translate(18.776)"><rect width="0.096" height="3.627" fill="#ed8f00" stroke="#ed8f00" stroke-miterlimit="10" stroke-width="0.25"/></g><g transform="translate(19.471)"><rect width="0.096" height="3.627" fill="#ed8f00" stroke="#ed8f00" stroke-miterlimit="10" stroke-width="0.25"/></g><g transform="translate(20.166)"><rect width="0.096" height="3.627" fill="#ed8f00" stroke="#ed8f00" stroke-miterlimit="10" stroke-width="0.25"/></g><g transform="translate(20.862)"><rect width="0.096" height="3.627" fill="#ed8f00" stroke="#ed8f00" stroke-miterlimit="10" stroke-width="0.25"/></g><g transform="translate(21.557)"><rect width="0.096" height="3.627" fill="#ed8f00" stroke="#ed8f00" stroke-miterlimit="10" stroke-width="0.25"/></g><g transform="translate(22.252)"><rect width="0.096" height="3.627" fill="#ed8f00" stroke="#ed8f00" stroke-miterlimit="10" stroke-width="0.25"/></g></g></g><path d="M252.926,304.684v2.4s1.7,1.391,9.195,1.391c0,0,5.718.154,9.195-1.468v-2.318s-2.241,1-9.195,1C262.121,305.689,256.093,305.689,252.926,304.684Z" transform="translate(-252.926 -304.684)" fill="none" stroke="#ed8f00" stroke-miterlimit="10" stroke-width="0.25"/></g><path d="M271.315,301.4c0,.833-4.117,1.509-9.195,1.509s-9.195-.676-9.195-1.509,4.116-1.508,9.195-1.508S271.315,300.569,271.315,301.4Z" transform="translate(-252.878 -299.846)" fill="#fedb61"/><path d="M262.015,302.854c-4.543,0-9.243-.583-9.243-1.557s4.7-1.556,9.243-1.556,9.242.582,9.242,1.556S266.558,302.854,262.015,302.854Zm0-3.018c-5.471,0-9.147.755-9.147,1.461s3.676,1.461,9.147,1.461,9.147-.755,9.147-1.461S267.486,299.837,262.015,299.837Z" transform="translate(-252.772 -299.741)" fill="#ed8f00"/><g transform="translate(1.678 0.315)"><path d="M273.277,301.991c0,.686-3.387,1.241-7.564,1.241s-7.565-.556-7.565-1.241,3.387-1.241,7.565-1.241S273.277,301.306,273.277,301.991Z" transform="translate(-258.149 -300.75)" fill="#febc27"/><g opacity="0.51" style="mix-blend-mode:multiply;isolation:isolate"><path d="M273.277,301.991c0,.686-3.387,1.241-7.564,1.241s-7.565-.556-7.565-1.241,3.387-1.241,7.565-1.241S273.277,301.306,273.277,301.991Z" transform="translate(-258.149 -300.75)" fill="#f2974c"/></g></g><g transform="translate(5.37 0.933)"><path d="M276.651,304.064c-.436.04-1.179.08-2,.08a16.392,16.392,0,0,1-3.127-.239,1.61,1.61,0,0,1-.717-.273h-.834v-.15h.706v-.035c0-.021.012-.042.012-.063h-.718v-.149h.859a2.435,2.435,0,0,1,.884-.286,16.768,16.768,0,0,1,2.96-.217c.769,0,1.461.029,1.922.063l-.359.239c-.333-.023-.872-.05-1.435-.05a8.906,8.906,0,0,0-1.564.113,1.177,1.177,0,0,0-.41.137h3.191v.149H272.64a.113.113,0,0,0-.013.065v.033h3.4v.15h-3.216a1.114,1.114,0,0,0,.423.147,10.03,10.03,0,0,0,1.653.107c.589,0,1.191-.032,1.461-.055Z" transform="translate(-269.974 -302.731)" fill="#ed8f00"/></g><g transform="translate(4.815 0.85)"><path d="M274.875,303.8c-.436.04-1.179.08-2,.08a16.338,16.338,0,0,1-3.127-.24,1.6,1.6,0,0,1-.717-.273H268.2v-.15h.705v-.036c0-.022.013-.042.013-.063H268.2v-.15h.859a2.445,2.445,0,0,1,.884-.286,16.773,16.773,0,0,1,2.96-.216c.769,0,1.461.029,1.922.063l-.359.24c-.333-.024-.872-.051-1.435-.051a8.808,8.808,0,0,0-1.563.113,1.179,1.179,0,0,0-.41.137h3.191v.15h-3.383a.113.113,0,0,0-.013.065v.033h3.4v.15h-3.216a1.1,1.1,0,0,0,.423.147,10.04,10.04,0,0,0,1.653.107c.59,0,1.191-.032,1.461-.055Z" transform="translate(-268.198 -302.464)" fill="#fedb61"/></g></g><g transform="translate(1.673 7.925)"><g transform="translate(0 1.482)"><path d="M249.479,294.785v2.4s1.7,1.391,9.195,1.391c0,0,5.718.155,9.2-1.468v-2.318s-2.241,1-9.2,1C258.674,295.79,252.647,295.789,249.479,294.785Z" transform="translate(-249.431 -294.711)" fill="#febc27"/><path d="M258.974,298.46c-.26,0-.407,0-.407,0-7.425,0-9.154-1.344-9.224-1.4l-.017-.014v-2.484l.062.02c3.125.99,9.12,1,9.18,1,6.864,0,9.153-.99,9.175-1l.068-.031v2.423l-.028.012C264.848,298.353,260.3,298.46,258.974,298.46Zm-9.553-1.467c.2.141,2.156,1.367,9.147,1.367,0,0,.148,0,.406,0,1.315,0,5.822-.105,8.741-1.455v-2.216c-.425.16-2.9.982-9.147.982-.06,0-5.992-.012-9.147-.987Z" transform="translate(-249.326 -294.547)" fill="#ed8f00"/></g><g transform="translate(0.048 1.543)"><g clip-path="url(#c)"><g transform="translate(-2.23 0.063)"><rect width="0.096" height="3.627" fill="#ed8f00" stroke="#ed8f00" stroke-miterlimit="10" stroke-width="0.25"/><g transform="translate(0.696)"><rect width="0.096" height="3.627" fill="#ed8f00" stroke="#ed8f00" stroke-miterlimit="10" stroke-width="0.25"/></g><g transform="translate(1.391)"><rect width="0.096" height="3.627" fill="#ed8f00" stroke="#ed8f00" stroke-miterlimit="10" stroke-width="0.25"/></g><g transform="translate(2.086)"><rect width="0.096" height="3.627" fill="#ed8f00" stroke="#ed8f00" stroke-miterlimit="10" stroke-width="0.25"/></g><g transform="translate(2.782)"><rect width="0.096" height="3.627" fill="#ed8f00" stroke="#ed8f00" stroke-miterlimit="10" stroke-width="0.25"/></g><g transform="translate(3.477)"><rect width="0.096" height="3.627" fill="#ed8f00" stroke="#ed8f00" stroke-miterlimit="10" stroke-width="0.25"/></g><g transform="translate(4.172)"><rect width="0.096" height="3.627" fill="#ed8f00" stroke="#ed8f00" stroke-miterlimit="10" stroke-width="0.25"/></g><g transform="translate(4.868)"><rect width="0.096" height="3.627" fill="#ed8f00" stroke="#ed8f00" stroke-miterlimit="10" stroke-width="0.25"/></g><g transform="translate(5.563)"><rect width="0.096" height="3.627" fill="#ed8f00" stroke="#ed8f00" stroke-miterlimit="10" stroke-width="0.25"/></g><g transform="translate(6.259)"><rect width="0.096" height="3.627" fill="#ed8f00" stroke="#ed8f00" stroke-miterlimit="10" stroke-width="0.25"/></g><g transform="translate(6.954)"><rect width="0.096" height="3.627" fill="#ed8f00" stroke="#ed8f00" stroke-miterlimit="10" stroke-width="0.25"/></g><g transform="translate(7.649)"><rect width="0.096" height="3.627" fill="#ed8f00" stroke="#ed8f00" stroke-miterlimit="10" stroke-width="0.25"/></g><g transform="translate(8.345)"><rect width="0.096" height="3.627" fill="#ed8f00" stroke="#ed8f00" stroke-miterlimit="10" stroke-width="0.25"/></g><g transform="translate(9.04)"><rect width="0.096" height="3.627" fill="#ed8f00" stroke="#ed8f00" stroke-miterlimit="10" stroke-width="0.25"/></g><g transform="translate(9.735)"><rect width="0.096" height="3.627" fill="#ed8f00" stroke="#ed8f00" stroke-miterlimit="10" stroke-width="0.25"/></g><g transform="translate(10.431)"><rect width="0.096" height="3.627" fill="#ed8f00" stroke="#ed8f00" stroke-miterlimit="10" stroke-width="0.25"/></g><g transform="translate(11.127)"><rect width="0.096" height="3.627" fill="#ed8f00" stroke="#ed8f00" stroke-miterlimit="10" stroke-width="0.25"/></g><g transform="translate(11.822)"><rect width="0.096" height="3.627" fill="#ed8f00" stroke="#ed8f00" stroke-miterlimit="10" stroke-width="0.25"/></g><g transform="translate(12.517)"><rect width="0.096" height="3.627" fill="#ed8f00" stroke="#ed8f00" stroke-miterlimit="10" stroke-width="0.25"/></g><g transform="translate(13.213)"><rect width="0.096" height="3.627" fill="#ed8f00" stroke="#ed8f00" stroke-miterlimit="10" stroke-width="0.25"/></g><g transform="translate(13.908)"><rect width="0.096" height="3.627" fill="#ed8f00" stroke="#ed8f00" stroke-miterlimit="10" stroke-width="0.25"/></g><g transform="translate(14.603)"><rect width="0.096" height="3.627" fill="#ed8f00" stroke="#ed8f00" stroke-miterlimit="10" stroke-width="0.25"/></g><g transform="translate(15.299)"><rect width="0.096" height="3.627" fill="#ed8f00" stroke="#ed8f00" stroke-miterlimit="10" stroke-width="0.25"/></g><g transform="translate(15.994)"><rect width="0.096" height="3.627" fill="#ed8f00" stroke="#ed8f00" stroke-miterlimit="10" stroke-width="0.25"/></g><g transform="translate(16.69)"><rect width="0.096" height="3.627" fill="#ed8f00" stroke="#ed8f00" stroke-miterlimit="10" stroke-width="0.25"/></g><g transform="translate(17.385)"><rect width="0.096" height="3.627" fill="#ed8f00" stroke="#ed8f00" stroke-miterlimit="10" stroke-width="0.25"/></g><g transform="translate(18.08)"><rect width="0.096" height="3.627" fill="#ed8f00" stroke="#ed8f00" stroke-miterlimit="10" stroke-width="0.25"/></g><g transform="translate(18.776)"><rect width="0.096" height="3.627" fill="#ed8f00" stroke="#ed8f00" stroke-miterlimit="10" stroke-width="0.25"/></g><g transform="translate(19.471)"><rect width="0.096" height="3.627" fill="#ed8f00" stroke="#ed8f00" stroke-miterlimit="10" stroke-width="0.25"/></g><g transform="translate(20.167)"><rect width="0.096" height="3.627" fill="#ed8f00" stroke="#ed8f00" stroke-miterlimit="10" stroke-width="0.25"/></g><g transform="translate(20.862)"><rect width="0.096" height="3.627" fill="#ed8f00" stroke="#ed8f00" stroke-miterlimit="10" stroke-width="0.25"/></g><g transform="translate(21.557)"><rect width="0.096" height="3.627" fill="#ed8f00" stroke="#ed8f00" stroke-miterlimit="10" stroke-width="0.25"/></g><g transform="translate(22.252)"><rect width="0.096" height="3.627" fill="#ed8f00" stroke="#ed8f00" stroke-miterlimit="10" stroke-width="0.25"/></g></g></g><path d="M249.479,294.743v2.4s1.7,1.391,9.195,1.391c0,0,5.718.154,9.2-1.468v-2.318s-2.241,1-9.2,1C258.674,295.748,252.647,295.748,249.479,294.743Z" transform="translate(-249.479 -294.743)" fill="none" stroke="#ed8f00" stroke-miterlimit="10" stroke-width="0.25"/></g><path d="M267.869,291.461c0,.833-4.117,1.509-9.195,1.509s-9.195-.676-9.195-1.509,4.117-1.508,9.195-1.508S267.869,290.629,267.869,291.461Z" transform="translate(-249.431 -289.905)" fill="#fedb61"/><path d="M258.569,292.912c-4.543,0-9.243-.582-9.243-1.557s4.7-1.556,9.243-1.556,9.243.582,9.243,1.556S263.112,292.912,258.569,292.912Zm0-3.017c-5.471,0-9.147.755-9.147,1.461s3.675,1.461,9.147,1.461,9.147-.755,9.147-1.461S264.04,289.895,258.569,289.895Z" transform="translate(-249.326 -289.799)" fill="#ed8f00"/><g transform="translate(1.678 0.315)"><path d="M269.831,292.05c0,.685-3.387,1.241-7.564,1.241s-7.564-.556-7.564-1.241,3.386-1.241,7.564-1.241S269.831,291.365,269.831,292.05Z" transform="translate(-254.703 -290.809)" fill="#febc27"/><g opacity="0.51" style="mix-blend-mode:multiply;isolation:isolate"><path d="M269.831,292.05c0,.685-3.387,1.241-7.564,1.241s-7.564-.556-7.564-1.241,3.386-1.241,7.564-1.241S269.831,291.365,269.831,292.05Z" transform="translate(-254.703 -290.809)" fill="#f2974c"/></g></g><g transform="translate(5.37 0.934)"><path d="M273.2,294.123c-.435.04-1.179.08-2,.08a16.4,16.4,0,0,1-3.127-.239,1.616,1.616,0,0,1-.717-.273h-.833v-.15h.705v-.035c0-.022.012-.042.012-.064h-.718v-.149h.859a2.433,2.433,0,0,1,.884-.286,16.758,16.758,0,0,1,2.96-.217c.769,0,1.461.029,1.922.063l-.359.239c-.333-.023-.871-.05-1.435-.05a8.9,8.9,0,0,0-1.563.113,1.181,1.181,0,0,0-.41.137h3.191v.149h-3.383a.114.114,0,0,0-.013.065v.033h3.4v.15h-3.216a1.11,1.11,0,0,0,.423.147,9.991,9.991,0,0,0,1.653.108c.589,0,1.192-.032,1.461-.055Z" transform="translate(-266.528 -292.79)" fill="#ed8f00"/></g><g transform="translate(4.815 0.85)"><path d="M271.429,293.856c-.435.04-1.179.08-2,.08a16.374,16.374,0,0,1-3.128-.24,1.615,1.615,0,0,1-.718-.273h-.833v-.15h.705v-.036c0-.021.013-.042.013-.063h-.718v-.15h.859a2.449,2.449,0,0,1,.884-.286,16.8,16.8,0,0,1,2.96-.216c.769,0,1.461.029,1.922.063l-.359.24c-.333-.024-.871-.051-1.435-.051a8.8,8.8,0,0,0-1.563.113,1.18,1.18,0,0,0-.41.137H270.8v.15h-3.383a.112.112,0,0,0-.013.065v.034h3.4v.15h-3.216a1.114,1.114,0,0,0,.423.147,10.033,10.033,0,0,0,1.653.107c.59,0,1.191-.032,1.461-.055Z" transform="translate(-264.752 -292.523)" fill="#fedb61"/></g></g><g transform="translate(0 4.552)"><g transform="translate(0 1.482)"><path d="M244.12,283.98v2.4s1.7,1.391,9.195,1.391c0,0,5.718.154,9.195-1.469V283.98s-2.241,1-9.195,1C253.315,284.985,247.288,284.984,244.12,283.98Z" transform="translate(-244.072 -283.906)" fill="#febc27"/><path d="M253.615,287.655c-.261,0-.407,0-.407,0-7.425,0-9.154-1.344-9.224-1.4l-.017-.014v-2.484l.062.02c3.124.99,9.12,1,9.18,1,6.864,0,9.153-.99,9.175-1l.067-.03v2.423l-.028.013C259.489,287.549,254.939,287.655,253.615,287.655Zm-9.553-1.467c.2.141,2.156,1.367,9.147,1.367,0,0,.147,0,.406,0,1.315,0,5.821-.105,8.741-1.455v-2.216c-.424.16-2.9.982-9.147.982-.06,0-5.992-.012-9.147-.987Z" transform="translate(-243.967 -283.743)" fill="#ed8f00"/></g><g transform="translate(0.048 1.543)"><g clip-path="url(#d)"><g transform="translate(-2.23 0.063)"><rect width="0.096" height="3.627" fill="#ed8f00" stroke="#ed8f00" stroke-miterlimit="10" stroke-width="0.25"/><g transform="translate(0.695)"><rect width="0.096" height="3.627" fill="#ed8f00" stroke="#ed8f00" stroke-miterlimit="10" stroke-width="0.25"/></g><g transform="translate(1.391)"><rect width="0.096" height="3.627" fill="#ed8f00" stroke="#ed8f00" stroke-miterlimit="10" stroke-width="0.25"/></g><g transform="translate(2.086)"><rect width="0.096" height="3.627" fill="#ed8f00" stroke="#ed8f00" stroke-miterlimit="10" stroke-width="0.25"/></g><g transform="translate(2.781)"><rect width="0.096" height="3.627" fill="#ed8f00" stroke="#ed8f00" stroke-miterlimit="10" stroke-width="0.25"/></g><g transform="translate(3.477)"><rect width="0.096" height="3.627" fill="#ed8f00" stroke="#ed8f00" stroke-miterlimit="10" stroke-width="0.25"/></g><g transform="translate(4.172)"><rect width="0.096" height="3.627" fill="#ed8f00" stroke="#ed8f00" stroke-miterlimit="10" stroke-width="0.25"/></g><g transform="translate(4.867)"><rect width="0.096" height="3.627" fill="#ed8f00" stroke="#ed8f00" stroke-miterlimit="10" stroke-width="0.25"/></g><g transform="translate(5.563)"><rect width="0.096" height="3.627" fill="#ed8f00" stroke="#ed8f00" stroke-miterlimit="10" stroke-width="0.25"/></g><g transform="translate(6.258)"><rect width="0.096" height="3.627" fill="#ed8f00" stroke="#ed8f00" stroke-miterlimit="10" stroke-width="0.25"/></g><g transform="translate(6.954)"><rect width="0.096" height="3.627" fill="#ed8f00" stroke="#ed8f00" stroke-miterlimit="10" stroke-width="0.25"/></g><g transform="translate(7.649)"><rect width="0.096" height="3.627" fill="#ed8f00" stroke="#ed8f00" stroke-miterlimit="10" stroke-width="0.25"/></g><g transform="translate(8.345)"><rect width="0.096" height="3.627" fill="#ed8f00" stroke="#ed8f00" stroke-miterlimit="10" stroke-width="0.25"/></g><g transform="translate(9.04)"><rect width="0.096" height="3.627" fill="#ed8f00" stroke="#ed8f00" stroke-miterlimit="10" stroke-width="0.25"/></g><g transform="translate(9.735)"><rect width="0.096" height="3.627" fill="#ed8f00" stroke="#ed8f00" stroke-miterlimit="10" stroke-width="0.25"/></g><g transform="translate(10.431)"><rect width="0.096" height="3.627" fill="#ed8f00" stroke="#ed8f00" stroke-miterlimit="10" stroke-width="0.25"/></g><g transform="translate(11.126)"><rect width="0.096" height="3.627" fill="#ed8f00" stroke="#ed8f00" stroke-miterlimit="10" stroke-width="0.25"/></g><g transform="translate(11.822)"><rect width="0.096" height="3.627" fill="#ed8f00" stroke="#ed8f00" stroke-miterlimit="10" stroke-width="0.25"/></g><g transform="translate(12.517)"><rect width="0.096" height="3.627" fill="#ed8f00" stroke="#ed8f00" stroke-miterlimit="10" stroke-width="0.25"/></g><g transform="translate(13.212)"><rect width="0.096" height="3.627" fill="#ed8f00" stroke="#ed8f00" stroke-miterlimit="10" stroke-width="0.25"/></g><g transform="translate(13.908)"><rect width="0.096" height="3.627" fill="#ed8f00" stroke="#ed8f00" stroke-miterlimit="10" stroke-width="0.25"/></g><g transform="translate(14.603)"><rect width="0.096" height="3.627" fill="#ed8f00" stroke="#ed8f00" stroke-miterlimit="10" stroke-width="0.25"/></g><g transform="translate(15.298)"><rect width="0.096" height="3.627" fill="#ed8f00" stroke="#ed8f00" stroke-miterlimit="10" stroke-width="0.25"/></g><g transform="translate(15.994)"><rect width="0.096" height="3.627" fill="#ed8f00" stroke="#ed8f00" stroke-miterlimit="10" stroke-width="0.25"/></g><g transform="translate(16.69)"><rect width="0.096" height="3.627" fill="#ed8f00" stroke="#ed8f00" stroke-miterlimit="10" stroke-width="0.25"/></g><g transform="translate(17.385)"><rect width="0.096" height="3.627" fill="#ed8f00" stroke="#ed8f00" stroke-miterlimit="10" stroke-width="0.25"/></g><g transform="translate(18.08)"><rect width="0.096" height="3.627" fill="#ed8f00" stroke="#ed8f00" stroke-miterlimit="10" stroke-width="0.25"/></g><g transform="translate(18.776)"><rect width="0.096" height="3.627" fill="#ed8f00" stroke="#ed8f00" stroke-miterlimit="10" stroke-width="0.25"/></g><g transform="translate(19.471)"><rect width="0.096" height="3.627" fill="#ed8f00" stroke="#ed8f00" stroke-miterlimit="10" stroke-width="0.25"/></g><g transform="translate(20.166)"><rect width="0.096" height="3.627" fill="#ed8f00" stroke="#ed8f00" stroke-miterlimit="10" stroke-width="0.25"/></g><g transform="translate(20.862)"><rect width="0.096" height="3.627" fill="#ed8f00" stroke="#ed8f00" stroke-miterlimit="10" stroke-width="0.25"/></g><g transform="translate(21.557)"><rect width="0.096" height="3.627" fill="#ed8f00" stroke="#ed8f00" stroke-miterlimit="10" stroke-width="0.25"/></g><g transform="translate(22.252)"><rect width="0.096" height="3.627" fill="#ed8f00" stroke="#ed8f00" stroke-miterlimit="10" stroke-width="0.25"/></g></g></g><path d="M244.12,283.938v2.4s1.7,1.391,9.195,1.391c0,0,5.718.154,9.195-1.468v-2.318s-2.241,1-9.195,1C253.315,284.943,247.288,284.943,244.12,283.938Z" transform="translate(-244.12 -283.938)" fill="none" stroke="#ed8f00" stroke-miterlimit="10" stroke-width="0.25"/></g><path d="M262.509,280.656c0,.833-4.116,1.509-9.195,1.509s-9.195-.676-9.195-1.509,4.117-1.508,9.195-1.508S262.509,279.824,262.509,280.656Z" transform="translate(-244.072 -279.1)" fill="#fedb61"/><path d="M253.21,282.108c-4.543,0-9.243-.583-9.243-1.557s4.7-1.556,9.243-1.556,9.242.582,9.242,1.556S257.753,282.108,253.21,282.108Zm0-3.018c-5.471,0-9.147.755-9.147,1.461s3.676,1.461,9.147,1.461,9.146-.756,9.146-1.461S258.681,279.091,253.21,279.091Z" transform="translate(-243.967 -278.995)" fill="#ed8f00"/><g transform="translate(1.678 0.315)"><path d="M264.472,281.245c0,.685-3.387,1.241-7.564,1.241s-7.564-.556-7.564-1.241S252.73,280,256.908,280,264.472,280.56,264.472,281.245Z" transform="translate(-249.344 -280.004)" fill="#febc27"/><g opacity="0.51" style="mix-blend-mode:multiply;isolation:isolate"><path d="M264.472,281.245c0,.685-3.387,1.241-7.564,1.241s-7.564-.556-7.564-1.241S252.73,280,256.908,280,264.472,280.56,264.472,281.245Z" transform="translate(-249.344 -280.004)" fill="#f2974c"/></g></g><g transform="translate(5.37 0.933)"><path d="M267.846,283.318c-.435.04-1.179.08-2,.08a16.391,16.391,0,0,1-3.126-.239,1.612,1.612,0,0,1-.718-.273h-.833v-.15h.705V282.7c0-.022.013-.042.013-.064h-.718v-.149h.859a2.435,2.435,0,0,1,.884-.286,16.766,16.766,0,0,1,2.961-.217c.769,0,1.461.029,1.922.063l-.359.239c-.333-.023-.871-.05-1.435-.05a8.893,8.893,0,0,0-1.563.113,1.179,1.179,0,0,0-.41.137h3.191v.149h-3.383a.116.116,0,0,0-.013.065v.033h3.4v.15H264a1.111,1.111,0,0,0,.423.147,10.037,10.037,0,0,0,1.653.107c.589,0,1.191-.032,1.461-.055Z" transform="translate(-261.169 -281.985)" fill="#ed8f00"/></g><g transform="translate(4.815 0.85)"><path d="M266.069,283.051c-.435.04-1.179.08-2,.08a16.373,16.373,0,0,1-3.127-.24,1.609,1.609,0,0,1-.717-.273h-.834v-.15h.705v-.036c0-.022.012-.042.012-.063h-.718v-.15h.859a2.446,2.446,0,0,1,.884-.286,16.776,16.776,0,0,1,2.961-.216c.769,0,1.461.029,1.922.063l-.359.24c-.333-.024-.872-.051-1.435-.051a8.8,8.8,0,0,0-1.563.113,1.18,1.18,0,0,0-.41.137h3.191v.15h-3.383a.113.113,0,0,0-.013.065v.033h3.4v.15h-3.216a1.111,1.111,0,0,0,.423.147,10.072,10.072,0,0,0,1.653.107c.59,0,1.191-.032,1.461-.055Z" transform="translate(-259.392 -281.718)" fill="#fedb61"/></g></g><g transform="translate(1.66 1.398)"><g transform="translate(0 1.482)"><path d="M249.438,273.874v2.4s1.7,1.391,9.195,1.391c0,0,5.718.154,9.2-1.469v-2.318s-2.241,1-9.2,1C258.633,274.879,252.606,274.879,249.438,273.874Z" transform="translate(-249.39 -273.8)" fill="#febc27"/><path d="M258.932,277.549c-.26,0-.407,0-.407,0-7.425,0-9.154-1.344-9.224-1.4l-.017-.014v-2.484l.062.02c3.124.99,9.12,1,9.18,1,6.864,0,9.153-.99,9.175-1l.068-.03v2.423l-.028.013C264.806,277.443,260.257,277.549,258.932,277.549Zm-9.552-1.467c.2.14,2.155,1.367,9.147,1.367,0,0,.147,0,.406,0,1.315,0,5.822-.105,8.741-1.456v-2.216c-.425.16-2.9.982-9.147.982-.06,0-5.992-.012-9.147-.988Z" transform="translate(-249.284 -273.637)" fill="#ed8f00"/></g><g transform="translate(0.048 1.543)"><g clip-path="url(#e)"><g transform="translate(-2.23 0.063)"><rect width="0.096" height="3.627" fill="#ed8f00" stroke="#ed8f00" stroke-miterlimit="10" stroke-width="0.25"/><g transform="translate(0.696)"><rect width="0.096" height="3.627" fill="#ed8f00" stroke="#ed8f00" stroke-miterlimit="10" stroke-width="0.25"/></g><g transform="translate(1.391)"><rect width="0.096" height="3.627" fill="#ed8f00" stroke="#ed8f00" stroke-miterlimit="10" stroke-width="0.25"/></g><g transform="translate(2.086)"><rect width="0.096" height="3.627" fill="#ed8f00" stroke="#ed8f00" stroke-miterlimit="10" stroke-width="0.25"/></g><g transform="translate(2.782)"><rect width="0.096" height="3.627" fill="#ed8f00" stroke="#ed8f00" stroke-miterlimit="10" stroke-width="0.25"/></g><g transform="translate(3.477)"><rect width="0.096" height="3.627" fill="#ed8f00" stroke="#ed8f00" stroke-miterlimit="10" stroke-width="0.25"/></g><g transform="translate(4.172)"><rect width="0.096" height="3.627" fill="#ed8f00" stroke="#ed8f00" stroke-miterlimit="10" stroke-width="0.25"/></g><g transform="translate(4.868)"><rect width="0.096" height="3.627" fill="#ed8f00" stroke="#ed8f00" stroke-miterlimit="10" stroke-width="0.25"/></g><g transform="translate(5.563)"><rect width="0.096" height="3.627" fill="#ed8f00" stroke="#ed8f00" stroke-miterlimit="10" stroke-width="0.25"/></g><g transform="translate(6.258)"><rect width="0.096" height="3.627" fill="#ed8f00" stroke="#ed8f00" stroke-miterlimit="10" stroke-width="0.25"/></g><g transform="translate(6.954)"><rect width="0.096" height="3.627" fill="#ed8f00" stroke="#ed8f00" stroke-miterlimit="10" stroke-width="0.25"/></g><g transform="translate(7.649)"><rect width="0.096" height="3.627" fill="#ed8f00" stroke="#ed8f00" stroke-miterlimit="10" stroke-width="0.25"/></g><g transform="translate(8.345)"><rect width="0.096" height="3.627" fill="#ed8f00" stroke="#ed8f00" stroke-miterlimit="10" stroke-width="0.25"/></g><g transform="translate(9.04)"><rect width="0.096" height="3.627" fill="#ed8f00" stroke="#ed8f00" stroke-miterlimit="10" stroke-width="0.25"/></g><g transform="translate(9.735)"><rect width="0.096" height="3.627" fill="#ed8f00" stroke="#ed8f00" stroke-miterlimit="10" stroke-width="0.25"/></g><g transform="translate(10.431)"><rect width="0.096" height="3.627" fill="#ed8f00" stroke="#ed8f00" stroke-miterlimit="10" stroke-width="0.25"/></g><g transform="translate(11.127)"><rect width="0.096" height="3.627" fill="#ed8f00" stroke="#ed8f00" stroke-miterlimit="10" stroke-width="0.25"/></g><g transform="translate(11.822)"><rect width="0.096" height="3.627" fill="#ed8f00" stroke="#ed8f00" stroke-miterlimit="10" stroke-width="0.25"/></g><g transform="translate(12.517)"><rect width="0.096" height="3.627" fill="#ed8f00" stroke="#ed8f00" stroke-miterlimit="10" stroke-width="0.25"/></g><g transform="translate(13.213)"><rect width="0.096" height="3.627" fill="#ed8f00" stroke="#ed8f00" stroke-miterlimit="10" stroke-width="0.25"/></g><g transform="translate(13.908)"><rect width="0.096" height="3.627" fill="#ed8f00" stroke="#ed8f00" stroke-miterlimit="10" stroke-width="0.25"/></g><g transform="translate(14.603)"><rect width="0.096" height="3.627" fill="#ed8f00" stroke="#ed8f00" stroke-miterlimit="10" stroke-width="0.25"/></g><g transform="translate(15.299)"><rect width="0.096" height="3.627" fill="#ed8f00" stroke="#ed8f00" stroke-miterlimit="10" stroke-width="0.25"/></g><g transform="translate(15.994)"><rect width="0.096" height="3.627" fill="#ed8f00" stroke="#ed8f00" stroke-miterlimit="10" stroke-width="0.25"/></g><g transform="translate(16.69)"><rect width="0.096" height="3.627" fill="#ed8f00" stroke="#ed8f00" stroke-miterlimit="10" stroke-width="0.25"/></g><g transform="translate(17.385)"><rect width="0.096" height="3.627" fill="#ed8f00" stroke="#ed8f00" stroke-miterlimit="10" stroke-width="0.25"/></g><g transform="translate(18.08)"><rect width="0.096" height="3.627" fill="#ed8f00" stroke="#ed8f00" stroke-miterlimit="10" stroke-width="0.25"/></g><g transform="translate(18.776)"><rect width="0.096" height="3.627" fill="#ed8f00" stroke="#ed8f00" stroke-miterlimit="10" stroke-width="0.25"/></g><g transform="translate(19.472)"><rect width="0.096" height="3.627" fill="#ed8f00" stroke="#ed8f00" stroke-miterlimit="10" stroke-width="0.25"/></g><g transform="translate(20.166)"><rect width="0.096" height="3.627" fill="#ed8f00" stroke="#ed8f00" stroke-miterlimit="10" stroke-width="0.25"/></g><g transform="translate(20.862)"><rect width="0.096" height="3.627" fill="#ed8f00" stroke="#ed8f00" stroke-miterlimit="10" stroke-width="0.25"/></g><g transform="translate(21.557)"><rect width="0.096" height="3.627" fill="#ed8f00" stroke="#ed8f00" stroke-miterlimit="10" stroke-width="0.25"/></g><g transform="translate(22.252)"><rect width="0.096" height="3.627" fill="#ed8f00" stroke="#ed8f00" stroke-miterlimit="10" stroke-width="0.25"/></g></g></g><path d="M249.438,273.832v2.4s1.7,1.391,9.195,1.391c0,0,5.718.154,9.2-1.468v-2.318s-2.241,1-9.2,1C258.633,274.837,252.606,274.836,249.438,273.832Z" transform="translate(-249.438 -273.832)" fill="none" stroke="#ed8f00" stroke-miterlimit="10" stroke-width="0.25"/></g><path d="M267.828,270.55c0,.833-4.117,1.509-9.195,1.509s-9.195-.676-9.195-1.509,4.117-1.508,9.195-1.508S267.828,269.717,267.828,270.55Z" transform="translate(-249.39 -268.994)" fill="#fedb61"/><path d="M258.527,272c-4.543,0-9.243-.583-9.243-1.557s4.7-1.556,9.243-1.556,9.243.582,9.243,1.556S263.07,272,258.527,272Zm0-3.017c-5.472,0-9.147.755-9.147,1.46s3.675,1.461,9.147,1.461,9.147-.755,9.147-1.461S264,268.985,258.527,268.985Z" transform="translate(-249.284 -268.889)" fill="#ed8f00"/><g transform="translate(1.679 0.315)"><path d="M269.79,271.139c0,.686-3.387,1.241-7.564,1.241s-7.564-.556-7.564-1.241,3.386-1.241,7.564-1.241S269.79,270.454,269.79,271.139Z" transform="translate(-254.662 -269.898)" fill="#febc27"/><g opacity="0.51" style="mix-blend-mode:multiply;isolation:isolate"><path d="M269.79,271.139c0,.686-3.387,1.241-7.564,1.241s-7.564-.556-7.564-1.241,3.386-1.241,7.564-1.241S269.79,270.454,269.79,271.139Z" transform="translate(-254.662 -269.898)" fill="#f2974c"/></g></g><g transform="translate(5.37 0.933)"><path d="M273.164,273.212c-.436.04-1.179.08-2,.08a16.393,16.393,0,0,1-3.126-.239,1.613,1.613,0,0,1-.718-.273h-.833v-.15h.705v-.035c0-.022.013-.043.013-.064h-.718v-.149h.859a2.431,2.431,0,0,1,.884-.286,16.759,16.759,0,0,1,2.96-.217c.769,0,1.461.029,1.922.063l-.359.239c-.333-.023-.871-.05-1.435-.05a8.9,8.9,0,0,0-1.563.113,1.176,1.176,0,0,0-.41.137h3.191v.149h-3.383a.113.113,0,0,0-.013.065v.033h3.4v.15h-3.216a1.109,1.109,0,0,0,.423.147,10.023,10.023,0,0,0,1.653.107c.589,0,1.192-.032,1.461-.055Z" transform="translate(-266.487 -271.879)" fill="#ed8f00"/></g><g transform="translate(4.816 0.85)"><path d="M271.388,272.945c-.436.04-1.179.08-2,.08a16.371,16.371,0,0,1-3.127-.24,1.612,1.612,0,0,1-.718-.273h-.833v-.15h.705v-.036c0-.022.013-.042.013-.063h-.718v-.15h.859a2.441,2.441,0,0,1,.884-.286,16.773,16.773,0,0,1,2.96-.216c.769,0,1.461.029,1.922.063l-.359.24c-.333-.024-.871-.051-1.435-.051a8.811,8.811,0,0,0-1.563.113,1.18,1.18,0,0,0-.41.137h3.191v.15h-3.383a.113.113,0,0,0-.013.065v.033h3.4v.15h-3.216a1.114,1.114,0,0,0,.423.147,10.071,10.071,0,0,0,1.653.107c.59,0,1.192-.032,1.461-.055Z" transform="translate(-264.711 -271.612)" fill="#fedb61"/></g></g><g transform="translate(17.654)"><g transform="translate(0 0.022)"><path d="M302.631,264.728l-1.956,1.384s-.153,2.191,4.176,8.309c0,0,3.177,4.756,6.51,6.657l1.892-1.339s-2.115-1.249-6.132-6.926C307.122,272.814,303.641,267.894,302.631,264.728Z" transform="translate(-300.627 -264.651)" fill="#febc27"/><path d="M304.938,274.613c-.15-.213-.232-.335-.232-.335-4.289-6.061-4.19-8.248-4.184-8.339l0-.022,2.027-1.435.02.062c1,3.123,4.45,8.024,4.485,8.073,3.965,5.6,6.1,6.9,6.117,6.911l.064.038-1.977,1.4-.027-.016C308.418,279.346,305.7,275.694,304.938,274.613Zm-4.32-8.645c0,.244.129,2.549,4.167,8.256,0,0,.082.123.231.334.759,1.073,3.449,4.691,6.238,6.294l1.809-1.28c-.376-.254-2.479-1.8-6.085-6.9-.034-.049-3.452-4.9-4.477-8.036Z" transform="translate(-300.521 -264.482)" fill="#ed8f00"/></g><g transform="translate(0.059 0.091)"><g clip-path="url(#f)"><g transform="translate(-2.343 -1.785)"><g transform="translate(0 0)"><rect width="3.627" height="0.096" transform="matrix(0.816, -0.578, 0.578, 0.816, 0, 2.097)" fill="#ed8f00" stroke="#ed8f00" stroke-miterlimit="10" stroke-width="0.25"/></g><g transform="translate(0.401 0.569)"><rect width="3.627" height="0.096" transform="matrix(0.816, -0.578, 0.578, 0.816, 0, 2.095)" fill="#ed8f00" stroke="#ed8f00" stroke-miterlimit="10" stroke-width="0.25"/></g><g transform="translate(0.803 1.137)"><rect width="3.627" height="0.096" transform="matrix(0.817, -0.577, 0.577, 0.817, 0, 2.094)" fill="#ed8f00" stroke="#ed8f00" stroke-miterlimit="10" stroke-width="0.25"/></g><g transform="translate(1.205 1.702)"><rect width="3.627" height="0.096" transform="matrix(0.816, -0.578, 0.578, 0.816, 0, 2.098)" fill="#ed8f00" stroke="#ed8f00" stroke-miterlimit="10" stroke-width="0.25"/></g><g transform="translate(1.606 2.272)"><path d="M298.4,268.436l-.055-.078,2.961-2.1.055.078Z" transform="translate(-298.348 -266.262)" fill="#ed8f00" stroke="#ed8f00" stroke-miterlimit="10" stroke-width="0.25"/></g><g transform="translate(2.008 2.839)"><rect width="3.627" height="0.096" transform="translate(0 2.096) rotate(-35.308)" fill="#ed8f00" stroke="#ed8f00" stroke-miterlimit="10" stroke-width="0.25"/></g><g transform="translate(2.409 3.407)"><rect width="3.627" height="0.096" transform="translate(0 2.094) rotate(-35.265)" fill="#ed8f00" stroke="#ed8f00" stroke-miterlimit="10" stroke-width="0.25"/></g><g transform="translate(2.811 3.975)"><rect width="3.627" height="0.096" transform="translate(0 2.094) rotate(-35.269)" fill="#ed8f00" stroke="#ed8f00" stroke-miterlimit="10" stroke-width="0.25"/></g><g transform="translate(3.213 4.542)"><rect width="3.627" height="0.096" transform="matrix(0.816, -0.578, 0.578, 0.816, 0, 2.095)" fill="#ed8f00" stroke="#ed8f00" stroke-miterlimit="10" stroke-width="0.25"/></g><g transform="translate(3.615 5.11)"><path d="M304.838,277.528l-.055-.079,2.961-2.1.055.079Z" transform="translate(-304.782 -275.354)" fill="#ed8f00" stroke="#ed8f00" stroke-miterlimit="10" stroke-width="0.25"/></g><g transform="translate(4.016 5.677)"><rect width="3.627" height="0.096" transform="translate(0 2.095) rotate(-35.281)" fill="#ed8f00" stroke="#ed8f00" stroke-miterlimit="10" stroke-width="0.25"/></g><g transform="translate(4.418 6.246)"><rect width="3.627" height="0.096" transform="matrix(0.817, -0.577, 0.577, 0.817, 0, 2.094)" fill="#ed8f00" stroke="#ed8f00" stroke-miterlimit="10" stroke-width="0.25"/></g><g transform="translate(4.819 6.813)"><rect width="3.627" height="0.096" transform="matrix(0.817, -0.577, 0.577, 0.817, 0, 2.094)" fill="#ed8f00" stroke="#ed8f00" stroke-miterlimit="10" stroke-width="0.25"/></g><g transform="translate(5.221 7.381)"><rect width="3.627" height="0.096" transform="translate(0 2.094) rotate(-35.259)" fill="#ed8f00" stroke="#ed8f00" stroke-miterlimit="10" stroke-width="0.25"/></g><g transform="translate(5.623 7.948)"><rect width="3.627" height="0.096" transform="matrix(0.816, -0.578, 0.578, 0.816, 0, 2.096)" fill="#ed8f00" stroke="#ed8f00" stroke-miterlimit="10" stroke-width="0.25"/></g><g transform="translate(6.026 8.515)"><rect width="3.627" height="0.096" transform="matrix(0.816, -0.578, 0.578, 0.816, 0, 2.097)" fill="#ed8f00" stroke="#ed8f00" stroke-miterlimit="10" stroke-width="0.25"/></g><g transform="translate(6.428 9.081)"><rect width="3.627" height="0.096" transform="translate(0 2.1) rotate(-35.371)" fill="#ed8f00" stroke="#ed8f00" stroke-miterlimit="10" stroke-width="0.25"/></g><g transform="translate(6.828 9.65)"><rect width="3.627" height="0.096" transform="translate(0 2.096) rotate(-35.301)" fill="#ed8f00" stroke="#ed8f00" stroke-miterlimit="10" stroke-width="0.25"/></g><g transform="translate(7.229 10.22)"><rect width="3.627" height="0.096" transform="translate(0 2.093) rotate(-35.246)" fill="#ed8f00" stroke="#ed8f00" stroke-miterlimit="10" stroke-width="0.25"/></g><g transform="translate(7.631 10.787)"><rect width="3.627" height="0.096" transform="matrix(0.817, -0.577, 0.577, 0.817, 0, 2.094)" fill="#ed8f00" stroke="#ed8f00" stroke-miterlimit="10" stroke-width="0.25"/></g><g transform="translate(8.033 11.354)"><rect width="3.627" height="0.096" transform="matrix(0.816, -0.578, 0.578, 0.816, 0, 2.095)" fill="#ed8f00" stroke="#ed8f00" stroke-miterlimit="10" stroke-width="0.25"/></g><g transform="translate(8.434 11.923)"><rect width="3.627" height="0.096" transform="translate(0 2.093) rotate(-35.241)" fill="#ed8f00" stroke="#ed8f00" stroke-miterlimit="10" stroke-width="0.25"/></g><g transform="translate(8.837 12.489)"><rect width="3.627" height="0.096" transform="matrix(0.816, -0.578, 0.578, 0.816, 0, 2.095)" fill="#ed8f00" stroke="#ed8f00" stroke-miterlimit="10" stroke-width="0.25"/></g><g transform="translate(9.238 13.057)"><path d="M322.854,302.986l-.055-.078,2.961-2.1.055.078Z" transform="translate(-322.799 -300.813)" fill="#ed8f00" stroke="#ed8f00" stroke-miterlimit="10" stroke-width="0.25"/></g><g transform="translate(9.641 13.624)"><rect width="3.627" height="0.096" transform="matrix(0.816, -0.578, 0.578, 0.816, 0, 2.097)" fill="#ed8f00" stroke="#ed8f00" stroke-miterlimit="10" stroke-width="0.25"/></g><g transform="translate(10.043 14.19)"><rect width="3.627" height="0.096" transform="matrix(0.816, -0.579, 0.579, 0.816, 0, 2.099)" fill="#ed8f00" stroke="#ed8f00" stroke-miterlimit="10" stroke-width="0.25"/></g><g transform="translate(10.444 14.759)"><rect width="3.627" height="0.096" transform="matrix(0.816, -0.578, 0.578, 0.816, 0, 2.096)" fill="#ed8f00" stroke="#ed8f00" stroke-miterlimit="10" stroke-width="0.25"/></g><g transform="translate(10.846 15.326)"><rect width="3.627" height="0.096" transform="translate(0 2.098) rotate(-35.344)" fill="#ed8f00" stroke="#ed8f00" stroke-miterlimit="10" stroke-width="0.25"/></g><g transform="translate(11.247 15.895)"><path d="M329.289,312.079l-.055-.078,2.96-2.1.055.078Z" transform="translate(-329.234 -309.906)" fill="#ed8f00" stroke="#ed8f00" stroke-miterlimit="10" stroke-width="0.25"/></g><g transform="translate(11.649 16.462)"><rect width="3.627" height="0.096" transform="matrix(0.816, -0.578, 0.578, 0.816, 0, 2.097)" fill="#ed8f00" stroke="#ed8f00" stroke-miterlimit="10" stroke-width="0.25"/></g><g transform="translate(12.049 17.031)"><rect width="3.627" height="0.096" transform="matrix(0.817, -0.577, 0.577, 0.817, 0, 2.093)" fill="#ed8f00" stroke="#ed8f00" stroke-miterlimit="10" stroke-width="0.25"/></g><g transform="translate(12.451 17.598)"><rect width="3.627" height="0.096" transform="translate(0 2.094) rotate(-35.261)" fill="#ed8f00" stroke="#ed8f00" stroke-miterlimit="10" stroke-width="0.25"/></g><g transform="translate(12.853 18.166)"><rect width="3.627" height="0.096" transform="matrix(0.817, -0.577, 0.577, 0.817, 0, 2.094)" fill="#ed8f00" stroke="#ed8f00" stroke-miterlimit="10" stroke-width="0.25"/></g></g></g><path d="M302.666,264.7l-1.955,1.384s-.154,2.191,4.176,8.309c0,0,3.177,4.756,6.51,6.657l1.892-1.339s-2.115-1.249-6.131-6.926C307.157,272.79,303.676,267.87,302.666,264.7Z" transform="translate(-300.71 -264.704)" fill="none" stroke="#ed8f00" stroke-miterlimit="10" stroke-width="0.25"/></g><g transform="translate(1.814)"><path d="M317.251,279.627c-.68.481-3.609-2.488-6.543-6.634s-4.76-7.9-4.08-8.378,3.609,2.489,6.543,6.635S317.931,279.146,317.251,279.627Z" transform="translate(-306.438 -264.517)" fill="#fedb61"/><path d="M310.562,272.915c-2.625-3.709-4.864-7.881-4.068-8.444s3.985,2.937,6.61,6.646,4.864,7.881,4.069,8.444S313.187,276.624,310.562,272.915Zm2.463-1.743c-3.161-4.466-5.9-7.03-6.476-6.622s.931,3.844,4.091,8.31,5.9,7.03,6.476,6.622S316.186,275.638,313.025,271.172Z" transform="translate(-306.331 -264.411)" fill="#ed8f00"/><g transform="translate(1.016 1.388)"><path d="M318.441,281.249c-.56.4-2.97-2.047-5.383-5.457s-3.916-6.5-3.356-6.892,2.969,2.047,5.383,5.458S319,280.852,318.441,281.249Z" transform="translate(-309.585 -268.857)" fill="#febc27"/><g opacity="0.51" style="mix-blend-mode:multiply;isolation:isolate"><path d="M318.441,281.249c-.56.4-2.97-2.047-5.383-5.457s-3.916-6.5-3.356-6.892,2.969,2.047,5.383,5.458S319,280.852,318.441,281.249Z" transform="translate(-309.585 -268.857)" fill="#f2974c"/></g></g><g transform="translate(3.039 4.374)"><path d="M319.569,284.353c-.284-.332-.746-.916-1.22-1.586a16.386,16.386,0,0,1-1.61-2.69,1.611,1.611,0,0,1-.191-.744l-.481-.68.122-.087.407.576.029-.02c.017-.012.042-.014.059-.027l-.415-.586.122-.086.5.7a2.423,2.423,0,0,1,.744.557,16.769,16.769,0,0,1,1.887,2.291c.444.628.82,1.209,1.059,1.606l-.4-.155c-.174-.285-.463-.74-.789-1.2a8.863,8.863,0,0,0-1-1.211,1.181,1.181,0,0,0-.349-.256l1.843,2.6-.122.086-1.954-2.762a.114.114,0,0,0-.061.027l-.027.019,1.962,2.772-.122.086-1.858-2.625a1.112,1.112,0,0,0,.125.43,10.021,10.021,0,0,0,.867,1.411c.34.481.714.954.889,1.161Z" transform="translate(-316.066 -278.423)" fill="#ed8f00"/></g><g transform="translate(2.787 3.873)"><path d="M318.762,282.749c-.284-.332-.746-.916-1.22-1.585a16.362,16.362,0,0,1-1.61-2.691,1.611,1.611,0,0,1-.192-.743l-.481-.68.122-.086.407.576.029-.021c.017-.012.041-.014.059-.026l-.415-.586.122-.086.5.7a2.44,2.44,0,0,1,.744.556,16.761,16.761,0,0,1,1.886,2.292c.444.628.82,1.21,1.059,1.605l-.4-.155c-.173-.285-.462-.74-.788-1.2a8.8,8.8,0,0,0-1-1.211,1.189,1.189,0,0,0-.349-.256l1.843,2.6-.122.086L317,279.081a.113.113,0,0,0-.061.027l-.027.019,1.962,2.772-.122.086-1.858-2.626a1.114,1.114,0,0,0,.124.43,10.078,10.078,0,0,0,.867,1.411c.341.481.714.954.889,1.161Z" transform="translate(-315.258 -276.819)" fill="#fedb61"/></g></g></g></g></g></svg>