<svg xmlns="http://www.w3.org/2000/svg" width="24.712" height="29.603" viewBox="0 0 24.712 29.603">
  <path id="iconSymptoms" d="M4311.226,682.793c0-.026,0-.052,0-.078,0-.008,0-.015,0-.023,0-.03-.008-.06-.014-.09l0-.02c-.005-.022-.01-.045-.017-.067l-.011-.033c-.006-.019-.013-.038-.021-.057s-.007-.019-.011-.028a.823.823,0,0,0-.038-.078l-.011-.018q-.017-.03-.037-.06a.263.263,0,0,0-.015-.023c-.013-.019-.026-.037-.041-.054l-.015-.018c-.02-.023-.04-.046-.061-.067l-6.742-6.741c-.022-.022-.044-.042-.067-.061l-.019-.015c-.017-.014-.035-.027-.053-.04l-.023-.016c-.019-.012-.038-.024-.058-.035l-.021-.012c-.025-.013-.05-.026-.076-.037l-.033-.013-.05-.018-.038-.012-.056-.014-.031-.007c-.028-.006-.056-.01-.084-.013l-.031,0-.066,0h-14.9a2.063,2.063,0,0,0-2.061,2.061V702.58a2.063,2.063,0,0,0,2.061,2.061h20.59a2.063,2.063,0,0,0,2.061-2.061V682.806S4311.226,682.8,4311.226,682.793Zm-6.741-4.252,3.238,3.238h-3.23a.02.02,0,0,1-.007-.008Zm4.681,24.046h-20.587a.05.05,0,0,1-.011-.009V677.1a.017.017,0,0,1,.008-.008h13.857v4.681a2.063,2.063,0,0,0,2.061,2.061h4.681v18.742C4309.173,702.579,4309.164,702.587,4309.166,702.588Zm-2.342-10.3a1.026,1.026,0,0,1-1.026,1.026h-14.132a1.026,1.026,0,1,1,0-2.052H4305.8A1.026,1.026,0,0,1,4306.823,692.287Zm0,3.229a1.026,1.026,0,0,1-1.026,1.026h-14.132a1.026,1.026,0,1,1,0-2.052H4305.8A1.026,1.026,0,0,1,4306.823,695.516Zm0,3.229a1.026,1.026,0,0,1-1.026,1.026h-14.132a1.026,1.026,0,1,1,0-2.052H4305.8A1.026,1.026,0,0,1,4306.823,698.746Zm-15.4-15.158a1.026,1.026,0,0,1,1.026-1.026h1.224v-1.224a1.026,1.026,0,0,1,2.053,0v1.224h1.224a1.026,1.026,0,0,1,0,2.052h-1.224v1.224a1.026,1.026,0,0,1-2.053,0v-1.224h-1.224A1.026,1.026,0,0,1,4291.422,683.588Z" transform="translate(-4286.515 -675.038)" fill="#ffebf6"/>
</svg>
