<svg id="iconEndCall" xmlns="http://www.w3.org/2000/svg" width="48" height="48" viewBox="0 0 48 48">
  <circle id="Ellipse_42" data-name="Ellipse 42" cx="24" cy="24" r="24" fill="#ed3b5d"/>
  <g id="Group_271" data-name="Group 271" transform="translate(9.588 18.866)">
    <path id="Path_1112" data-name="Path 1112" d="M328.427,260.935c-1.981.75-3.785,2.027-3.84,3.84a28.579,28.579,0,0,0,.222,3,1.767,1.767,0,0,0,1.958,1.554l.069-.009,5.551-.88a1.767,1.767,0,0,0,1.435-1.313l.721-2.869h0a23.892,23.892,0,0,1,8.383-.111l.518.084.731,2.887a1.767,1.767,0,0,0,1.434,1.314l5.553.879a1.767,1.767,0,0,0,2.017-1.476c0-.023.007-.046.01-.069a28.5,28.5,0,0,0,.222-3c-.056-1.851-1.851-3.035-3.84-3.84C343.436,258.392,334.785,258.511,328.427,260.935Z" transform="translate(-324.587 -259.071)" fill="#fff"/>
  </g>
</svg>
