<svg xmlns="http://www.w3.org/2000/svg" width="28" height="28" viewBox="0 0 28 28">
  <path id="iconTime" d="M-300-1763a14.009,14.009,0,0,1,14-14,14.009,14.009,0,0,1,14,14,14.009,14.009,0,0,1-14,14A14.009,14.009,0,0,1-300-1763Zm2.2,0a11.813,11.813,0,0,0,11.8,11.8,11.824,11.824,0,0,0,11.8-11.8,11.813,11.813,0,0,0-11.8-11.8A11.8,11.8,0,0,0-297.8-1763Zm14.734,6-4.716-3.67a1.1,1.1,0,0,1-.422-.863v-8.073a1.1,1.1,0,0,1,1.1-1.1,1.1,1.1,0,0,1,1.1,1.1v7.542l4.275,3.339a1.09,1.09,0,0,1,.2,1.542,1.069,1.069,0,0,1-.862.422A1.175,1.175,0,0,1-283.064-1757Z" transform="translate(300 1777)" fill="#3acce1"/>
</svg>
