<svg xmlns="http://www.w3.org/2000/svg" width="28" height="20.563" viewBox="0 0 28 20.563">
  <path id="iconPayments" d="M24.719,68H3.281A3.285,3.285,0,0,0,0,71.281v14a3.285,3.285,0,0,0,3.281,3.281H24.719A3.285,3.285,0,0,0,28,85.281v-14A3.285,3.285,0,0,0,24.719,68Zm1.094,17.281a1.1,1.1,0,0,1-1.094,1.094H3.281a1.1,1.1,0,0,1-1.094-1.094v-9.3H25.813Zm0-12.578H2.187V71.281a1.1,1.1,0,0,1,1.094-1.094H24.719a1.1,1.1,0,0,1,1.094,1.094Zm-7.656,7.109H3.719V77.625H18.156Z" transform="translate(0 -68)" fill="#ed3b5d"/>
</svg>
