<svg xmlns="http://www.w3.org/2000/svg" width="16" height="16" viewBox="0 0 16 16"><path d="M6.167,5.333h-5A1.168,1.168,0,0,1,0,4.167v-3A1.168,1.168,0,0,1,1.167,0h5A1.168,1.168,0,0,1,7.333,1.167v3A1.168,1.168,0,0,1,6.167,5.333ZM1.167,1A.167.167,0,0,0,1,1.167v3a.167.167,0,0,0,.167.167h5a.167.167,0,0,0,.167-.167v-3A.167.167,0,0,0,6.167,1Zm5,15h-5A1.168,1.168,0,0,1,0,14.833v-7A1.168,1.168,0,0,1,1.167,6.667h5A1.168,1.168,0,0,1,7.333,7.833v7A1.168,1.168,0,0,1,6.167,16Zm-5-8.333A.167.167,0,0,0,1,7.833v7A.167.167,0,0,0,1.167,15h5a.167.167,0,0,0,.167-.167v-7a.167.167,0,0,0-.167-.167ZM14.833,16h-5a1.168,1.168,0,0,1-1.167-1.167v-3a1.168,1.168,0,0,1,1.167-1.167h5A1.168,1.168,0,0,1,16,11.833v3A1.168,1.168,0,0,1,14.833,16Zm-5-4.333a.167.167,0,0,0-.167.167v3A.167.167,0,0,0,9.833,15h5A.167.167,0,0,0,15,14.833v-3a.167.167,0,0,0-.167-.167Zm5-2.333h-5A1.168,1.168,0,0,1,8.667,8.167v-7A1.168,1.168,0,0,1,9.833,0h5A1.168,1.168,0,0,1,16,1.167v7A1.168,1.168,0,0,1,14.833,9.333ZM9.833,1a.167.167,0,0,0-.167.167v7a.167.167,0,0,0,.167.167h5A.167.167,0,0,0,15,8.167v-7A.167.167,0,0,0,14.833,1Z" fill="#32435e"/></svg>