<svg xmlns="http://www.w3.org/2000/svg" width="21.618" height="7.701" viewBox="0 0 21.618 7.701">
  <path id="iconCall" d="M327.467,260.469c-1.486.563-2.839,1.52-2.88,2.88a21.437,21.437,0,0,0,.167,2.249,1.325,1.325,0,0,0,1.468,1.165l.052-.007,4.163-.66a1.325,1.325,0,0,0,1.077-.985l.541-2.152h0a17.919,17.919,0,0,1,6.287-.083l.388.063.549,2.165a1.325,1.325,0,0,0,1.075.986l4.164.659a1.325,1.325,0,0,0,1.513-1.107c0-.017.005-.035.008-.052a21.37,21.37,0,0,0,.167-2.248c-.042-1.388-1.388-2.276-2.88-2.88A23.239,23.239,0,0,0,327.467,260.469Z" transform="translate(-324.587 -259.071)" fill="#fff"/>
</svg>
