<svg xmlns="http://www.w3.org/2000/svg" width="28" height="28" viewBox="0 0 28 28"><path d="M3.771,16.066A3.776,3.776,0,0,0,0,19.837v4.391a3.771,3.771,0,1,0,7.543,0V19.837A3.776,3.776,0,0,0,3.771,16.066Zm1.584,8.163a1.584,1.584,0,1,1-3.168,0V19.837a1.584,1.584,0,0,1,3.168,0ZM14,0a3.776,3.776,0,0,0-3.771,3.771V24.229a3.771,3.771,0,0,0,7.543,0V3.771A3.776,3.776,0,0,0,14,0Zm1.584,24.229a1.584,1.584,0,0,1-3.168,0V3.771a1.584,1.584,0,0,1,3.168,0Zm8.645-16.2A3.776,3.776,0,0,0,20.457,11.8V24.229a3.771,3.771,0,1,0,7.543,0V11.8A3.776,3.776,0,0,0,24.229,8.033Zm1.584,16.2a1.584,1.584,0,1,1-3.168,0V11.8a1.584,1.584,0,1,1,3.168,0Z" fill="#3497fd"/></svg>