<svg xmlns="http://www.w3.org/2000/svg" width="16" height="16" viewBox="0 0 16 16"><path d="M.558,16A.557.557,0,0,1,0,15.448V2.023a.556.556,0,0,1,.558-.552H2.6a.552.552,0,1,1,0,1.1H1.116V14.9H14.884V2.575H13.767a.552.552,0,1,1,0-1.1h1.675A.557.557,0,0,1,16,2.023V15.448a.557.557,0,0,1-.558.552Zm6.7-2.575a.556.556,0,0,1-.558-.552v-.919a.557.557,0,0,1,.558-.552h1.4a.557.557,0,0,1,.558.552v.919a.557.557,0,0,1-.558.552Zm-3.907,0a.557.557,0,0,1-.558-.552v-.919a.557.557,0,0,1,.558-.552h1.3a.557.557,0,0,1,.558.552v.919a.557.557,0,0,1-.558.552Zm7.907-3.034a.557.557,0,0,1-.558-.552v-.92a.557.557,0,0,1,.558-.552h1.3a.557.557,0,0,1,.558.552v.92a.557.557,0,0,1-.558.552Zm-4,0A.556.556,0,0,1,6.7,9.839v-.92a.557.557,0,0,1,.558-.552h1.4a.557.557,0,0,1,.558.552v.92a.557.557,0,0,1-.558.552Zm-3.907,0a.557.557,0,0,1-.558-.552v-.92a.557.557,0,0,1,.558-.552h1.3a.557.557,0,0,1,.558.552v.92a.557.557,0,0,1-.558.552Zm7.907-3.126a.557.557,0,0,1-.558-.552v-.92a.557.557,0,0,1,.558-.552h1.3a.557.557,0,0,1,.558.552v.92a.557.557,0,0,1-.558.552Zm-4,0A.556.556,0,0,1,6.7,6.713v-.92a.556.556,0,0,1,.558-.552h1.4a.557.557,0,0,1,.558.552v.92a.557.557,0,0,1-.558.552Zm-3.907,0a.557.557,0,0,1-.558-.552v-.92a.557.557,0,0,1,.558-.552h1.3a.557.557,0,0,1,.558.552v.92a.557.557,0,0,1-.558.552Zm7.535-3.586a.557.557,0,0,1-.558-.552V.552A.557.557,0,0,1,10.884,0h.558A.557.557,0,0,1,12,.552V3.126a.557.557,0,0,1-.558.552Zm-6.419,0a.557.557,0,0,1-.558-.552V.552A.557.557,0,0,1,4.465,0h.558a.557.557,0,0,1,.558.552V3.126a.557.557,0,0,1-.558.552Zm2.7-1.1a.552.552,0,1,1,0-1.1H8.744a.552.552,0,1,1,0,1.1Z" transform="translate(0 0)" fill="#32435e"/></svg>