<svg xmlns="http://www.w3.org/2000/svg" width="21.515" height="28" viewBox="0 0 21.515 28">
  <path id="iconPatients" d="M48.592,26.866A1.138,1.138,0,0,0,49.726,28H68.973a1.138,1.138,0,0,0,1.134-1.134c0-6.277-2.836-11.665-6.825-13.82a7.118,7.118,0,1,0-7.846,0C51.428,15.2,48.592,20.589,48.592,26.866ZM59.35,2.269a4.84,4.84,0,1,1-4.84,4.84A4.849,4.849,0,0,1,59.35,2.269Zm0,12.005c4.424,0,8.054,5.048,8.451,11.457H50.9C51.3,19.322,54.926,14.274,59.35,14.274Z" transform="translate(-48.592)" fill="#5873f9"/>
</svg>
