<svg id="logoDoctaroo" xmlns="http://www.w3.org/2000/svg" width="150" height="35.172" viewBox="0 0 150 35.172">
  <g id="Group_91" data-name="Group 91" transform="translate(0 5.542)">
    <path id="Path_626" data-name="Path 626" d="M-3013.433-1465.094a10.052,10.052,0,0,1,4.006.918V-1476.4a.821.821,0,0,1,.793-.793h2.42a.821.821,0,0,1,.793.793v27.628a.821.821,0,0,1-.793.793h-1.252c-.375,0-.626-.292-.751-.709l-.333-1.211a7.46,7.46,0,0,1-5.3,2.338c-4.424,0-7.8-3.965-7.8-8.764C-3021.654-1461.213-3018.065-1465.094-3013.433-1465.094Zm.083,13.938a4.491,4.491,0,0,0,3.965-2.5v-6.8a6.926,6.926,0,0,0-3.631-1,4.848,4.848,0,0,0-4.757,5.133C-3017.773-1453.534-3016.02-1451.156-3013.349-1451.156Z" transform="translate(3021.654 1477.197)" fill="#32435e"/>
    <path id="Path_627" data-name="Path 627" d="M-2968.319-1447.534a8.632,8.632,0,0,1,8.429,8.722,8.653,8.653,0,0,1-8.429,8.806,8.653,8.653,0,0,1-8.431-8.806A8.633,8.633,0,0,1-2968.319-1447.534Zm0,13.939a4.97,4.97,0,0,0,4.715-5.217,4.908,4.908,0,0,0-4.715-5.091,4.908,4.908,0,0,0-4.716,5.091A4.97,4.97,0,0,0-2968.319-1433.6Z" transform="translate(2995.071 1459.637)" fill="#32435e"/>
    <path id="Path_628" data-name="Path 628" d="M-2924.614-1447.534a7.4,7.4,0,0,1,6.052,2.963.816.816,0,0,1-.167,1.168l-1.377,1.252c-.5.459-.793.125-1.127-.167a4.639,4.639,0,0,0-3.339-1.586,4.966,4.966,0,0,0-4.84,5.133,4.944,4.944,0,0,0,4.8,5.175,4.964,4.964,0,0,0,3.881-1.92.764.764,0,0,1,1.127-.083l1.126.918c.417.334.584.751.292,1.168a7.4,7.4,0,0,1-6.468,3.506,8.691,8.691,0,0,1-8.722-8.722A8.879,8.879,0,0,1-2924.614-1447.534Z" transform="translate(2969.396 1459.637)" fill="#32435e"/>
    <path id="Path_629" data-name="Path 629" d="M-2892.065-1450.979h-1.753a.792.792,0,0,1-.793-.793v-1.878a.767.767,0,0,1,.793-.793h1.753v-4.632a.821.821,0,0,1,.793-.793l2.379-.042a.784.784,0,0,1,.751.793v4.674h4.257a.767.767,0,0,1,.793.793v1.878a.792.792,0,0,1-.793.793h-4.257v8.263c0,1.419.542,1.669,1.335,1.669a6.79,6.79,0,0,0,2.545-.751.625.625,0,0,1,.961.376l.751,1.836a.692.692,0,0,1-.376,1,12.8,12.8,0,0,1-4.882,1.252c-3.3,0-4.257-2-4.257-4.967Z" transform="translate(2946.446 1466.963)" fill="#32435e"/>
    <path id="Path_630" data-name="Path 630" d="M-2857.042-1440.982a12.007,12.007,0,0,1,3.3.5c.042-2.629-.459-3.673-2.588-3.673a17.729,17.729,0,0,0-4.674.751c-.5.125-.793-.209-.918-.668l-.334-1.544a.75.75,0,0,1,.543-.96,17.216,17.216,0,0,1,5.759-.96c5.342,0,5.843,3.255,5.843,7.428v8.89a.821.821,0,0,1-.793.793h-1.169c-.376,0-.542-.167-.709-.585l-.418-1.126a7.2,7.2,0,0,1-5.133,2.129c-3.131,0-5.384-2.129-5.384-5.592C-2863.72-1438.645-2861.3-1440.982-2857.042-1440.982Zm-.5,8.013a4.935,4.935,0,0,0,3.756-2.087v-2.671a6.274,6.274,0,0,0-2.921-.668c-2,0-3.38,1.043-3.38,2.754A2.51,2.51,0,0,0-2857.543-1432.969Z" transform="translate(2928.159 1459.637)" fill="#32435e"/>
    <path id="Path_631" data-name="Path 631" d="M-2822.6-1446.324a.821.821,0,0,1,.793-.793h1.21a.794.794,0,0,1,.71.584l.459,1.419a5.946,5.946,0,0,1,4.883-2.42c1.586,0,3.505.417,3.047,1.544l-1,2.045a.712.712,0,0,1-1,.376,3.815,3.815,0,0,0-1.419-.293,4.4,4.4,0,0,0-3.756,2.046v10.6c0,.709-.459.793-1.127.793h-2a.821.821,0,0,1-.793-.793Z" transform="translate(2903.816 1459.637)" fill="#32435e"/>
    <path id="Path_632" data-name="Path 632" d="M-2788.288-1447.534a8.632,8.632,0,0,1,8.429,8.722,8.653,8.653,0,0,1-8.429,8.806,8.652,8.652,0,0,1-8.43-8.806A8.632,8.632,0,0,1-2788.288-1447.534Zm0,13.939a4.97,4.97,0,0,0,4.715-5.217,4.908,4.908,0,0,0-4.715-5.091,4.909,4.909,0,0,0-4.717,5.091A4.971,4.971,0,0,0-2788.288-1433.6Z" transform="translate(2888.495 1459.637)" fill="#32435e"/>
    <path id="Path_633" data-name="Path 633" d="M-2744.917-1447.534a8.633,8.633,0,0,1,8.43,8.722,8.653,8.653,0,0,1-8.43,8.806,8.653,8.653,0,0,1-8.43-8.806A8.633,8.633,0,0,1-2744.917-1447.534Zm0,13.939a4.97,4.97,0,0,0,4.716-5.217,4.908,4.908,0,0,0-4.716-5.091,4.908,4.908,0,0,0-4.716,5.091A4.97,4.97,0,0,0-2744.917-1433.6Z" transform="translate(2862.82 1459.637)" fill="#32435e"/>
  </g>
  <g id="Group_92" data-name="Group 92" transform="translate(117.923)">
    <path id="Path_634" data-name="Path 634" d="M-2678.277-1492.047h-5.228v4.453h5.228a4.322,4.322,0,0,1,4.322,4.322v.577a4.322,4.322,0,0,1-4.322,4.322h-.634a.62.62,0,0,0-.62.62v3.213a.62.62,0,0,0,.62.62h.634a8.8,8.8,0,0,0,8.776-8.776v-.577A8.8,8.8,0,0,0-2678.277-1492.047Z" transform="translate(2701.578 1492.047)" fill="#005ddd"/>
    <path id="Path_635" data-name="Path 635" d="M-2719.026-1492.047a8.8,8.8,0,0,0-8.775,8.775v.577a8.8,8.8,0,0,0,8.775,8.776h.76v4.272a.6.6,0,0,0,1,.445l5.223-4.717h2.313v-18.128Zm.108,6.427h-.556a1.918,1.918,0,0,0-1.916,1.916v.128h-1.974v-.128a3.9,3.9,0,0,1,3.89-3.89h.556Z" transform="translate(2727.802 1492.047)" fill="#32435e"/>
  </g>
</svg>
