<svg xmlns="http://www.w3.org/2000/svg" xmlns:xlink="http://www.w3.org/1999/xlink" width="144" height="160" viewBox="0 0 144 160"><defs><clipPath id="a"><rect width="144" height="160" transform="translate(1388 28)" fill="#fff" stroke="#707070" stroke-width="1"/></clipPath></defs><g transform="translate(-1388 -28)" clip-path="url(#a)"><g transform="translate(1411.908 61.5)"><g transform="translate(39.17 107.579)"><path d="M153.674,268.816l.42-13.562s.426-.559,1.16-1.489c.3-.088.605-.176.908-.266h1.788a8.534,8.534,0,0,1,3.367,6.754A8.781,8.781,0,0,1,153.674,268.816Z" transform="translate(-153.674 -251.664)" fill="#002a4d"/><path d="M195.444,294.162c2.613-.307,5.186-.782,7.759-1.265.688-15.587,1.693-38.071.358-40.914a5.092,5.092,0,0,0-2.277-2.237c-.071.013-.133.038-.206.048l-17.166,2.331a55.018,55.018,0,0,1-5.443,2.247l7.512,40.8C189.137,294.844,192.294,294.533,195.444,294.162Z" transform="translate(-166.468 -249.747)" fill="#002c72"/></g><g transform="translate(38.222 105.879)"><path d="M158.9,298.042c1.126-.178,2.253-.353,3.383-.519,1.77-.259,3.542-.484,5.317-.692,1.938-13.552,5.574-38.546,5.081-44.832H155.038c-1.213,1.518-1.954,2.49-1.954,2.49l-1.367,44.193Q155.3,298.317,158.9,298.042Z" transform="translate(-151.717 -249.197)" fill="#002c72"/><path d="M175.559,260.827a1.875,1.875,0,0,0,1.91-1.838V248.111a1.912,1.912,0,0,0-3.821,0v10.878A1.875,1.875,0,0,0,175.559,260.827Z" transform="translate(-163.033 -246.273)" fill="#002a4d"/><path d="M218.713,267.141a9.351,9.351,0,0,1-2.256.285,8.851,8.851,0,0,1-9.019-8.673A8.534,8.534,0,0,1,210.806,252h1.788a58.073,58.073,0,0,0,5.8,1.494Z" transform="translate(-180.468 -249.197)" fill="#002a4d"/><path d="M190.815,255.247c-.668.092-22.186,4.183-36.768,6.961l.239-7.728s.742-.971,1.954-2.49h11.231a1.118,1.118,0,0,1,.237,0h17.336a58.063,58.063,0,0,0,5.8,1.494l.037,1.6Z" transform="translate(-152.919 -249.189)" fill="#002a4d"/><path d="M184.643,298.044c-3.543-5.325-5.525-14.853-4.86-14.96s3.233,6.141,3.233,6.141Z" transform="translate(-166.133 -265.072)" fill="#002a4d"/></g><g transform="translate(8.722 43.5)"><path d="M114.049,158.859l-.491-.129-.288-.091-.525-.178c-.317-.117-.581-.229-.871-.348-.576-.235-1.032-.482-1.547-.73a25.785,25.785,0,0,1-2.656-1.621l-.621-.427c-.2-.147-.385-.3-.576-.449l-1.136-.908q-1.061-.945-2.059-1.922a37.671,37.671,0,0,1-6.193-8.5l-.605-1.114-.3-.556-.257-.567-1.02-2.267c-.363-.75-.6-1.523-.892-2.286l-.83-2.293c-.446-1.543-.9-3.083-1.31-4.623l-1-4.639a5.457,5.457,0,0,1,4.36-6.273,5.35,5.35,0,0,1,6.393,3.315l.107.334,1.273,3.949c.488,1.28,1,2.54,1.5,3.8l.877,1.811c.3.6.554,1.223.906,1.778l.985,1.708.244.426.276.4.547.8a26.411,26.411,0,0,0,4.908,5.536c.459.36.92.707,1.375,1.046l.7.447.347.224.35.184a12.164,12.164,0,0,0,1.35.65c.2.058.429.165.584.2l.223.058a.5.5,0,0,0-.179-.065,6.5,6.5,0,0,1,5.069,8.213A7.729,7.729,0,0,1,114.049,158.859Z" transform="translate(-90.767 -118.786)" fill="#fff"/><path d="M148.234,124.781s-7.619,14.11-12.137,22.362,8.733,11.92,8.733,11.92,6.086-8.488,7.844-14.782,1.163-17.14,1.163-17.14Z" transform="translate(-113.672 -121.848)" fill="#fff"/><path d="M136.438,165.9c-.242-.2-.479-.405-.714-.618l-.024.05,2.653,5.947-.135-7.25c-.465.76-.908,1.505-1.317,2.223C136.746,166.13,136.592,166.017,136.438,165.9Z" transform="translate(-113.951 -141.89)" fill="#e0e0e0" opacity="0.65"/></g><g transform="translate(39.373 38.977)"><path d="M154.094,181.452s.548-10.549,1.173-21.18c.911-15.478-.56-37.267,2.737-43.274,4.25-7.745,16.406-8.4,26.594-6.663s9.343,22.829,5.3,71.079C184.734,179.892,154.094,181.452,154.094,181.452Z" transform="translate(-154.094 -109.54)" fill="#498ae8"/><path d="M185.247,217.213s-1.56,15.243-3.578,16.239a64.186,64.186,0,0,1-8.021,2.489H184.04Z" transform="translate(-164.184 -164.529)" fill="#0b54d5"/><g transform="translate(0.09 70.479)"><path d="M154.28,258.75h36.79l.034-3.636h-36.79Z" transform="translate(-154.28 -254.364)" fill="#04121e"/><g transform="translate(5.154)"><path d="M165.508,258.134a1.877,1.877,0,0,1-.579-1.376l.016-1.7a1.52,1.52,0,0,1,1.539-1.477h6.387a2,2,0,0,1,1.405.563,1.877,1.877,0,0,1,.579,1.376l-.012,1.243a1.99,1.99,0,0,1-2.014,1.933h-5.918A2,2,0,0,1,165.508,258.134Zm.976-3.9a.848.848,0,0,0-.856.826l-.016,1.7a1.239,1.239,0,0,0,.381.908,1.312,1.312,0,0,0,.919.368h5.918a1.317,1.317,0,0,0,1.331-1.282l.012-1.243a1.241,1.241,0,0,0-.381-.908,1.313,1.313,0,0,0-.92-.368Z" transform="translate(-164.929 -253.582)" fill="#fdcf30"/><g transform="translate(4.22 2.263)"><path d="M173.99,258.866h4.974a.329.329,0,1,0,0-.658H173.99a.329.329,0,1,0,0,.658Z" transform="translate(-173.648 -258.208)" fill="#fdcf30"/></g></g></g></g><g transform="translate(57.662 38.749)"><path d="M192.391,194.32s2.976-44.654,4.067-52.422c0,0,6.533-23.35,6.708-32.058,0,0,7.074.109,11.618,5.073s-6.389,59.163-1.15,73.747,1.242,11.115,1.242,11.115l-23-1.22Z" transform="translate(-191.881 -109.466)" fill="#fff"/><path d="M217.217,270.16s-2.176-5.718-2.5-7.272-.859-4.771-.859-4.771-11.654,2.011-11.265,2-.222,3.908-3.763,8.065a30.027,30.027,0,0,1-3.986,3.166Z" transform="translate(-193.408 -185.192)" fill="#e0e0e0"/><path d="M229.6,171.781s-1.307-5.069-2.42-6.007c0,0,.31,21.3-6.266,30.936a7.183,7.183,0,0,1,1.711-.073l1.054.114s3.94-3.687,4.015-5.117S229.6,171.781,229.6,171.781Z" transform="translate(-206.862 -138.032)" fill="#e0e0e0" opacity="0.65"/><path d="M207.934,109.075s-1.755,13.894-3.781,21.221c-.9,3.241-3,11.909-3,11.909s5.892-9.94,6.826-12.875,2.873-6.64.935-8.18c-.911-.724.435-4.3.662-4.726a12.776,12.776,0,0,0,.747-4.726C210.1,110.338,207.934,109.075,207.934,109.075Z" transform="translate(-196.663 -109.075)" fill="#d5dddd"/></g><g transform="translate(63.885 40.169)"><path d="M217.169,112.078c2.727-.064,4.1.4,5.1,1.218.128.1,3.4,2.429,3.905,2.977,1.013,1.092,3.267,4.392,4.187,5.544,1.841,2.3,6.41,12.654,7.306,15.349.224.674.366,1.341.523,2.006s.3,1.379.414,2.013.273,1.488.373,2a9.056,9.056,0,0,1,.151,1.137c.033.376.075.825.091,1.1a46.583,46.583,0,0,1-.289,8.557,33.59,33.59,0,0,1-10.406,21.6,6.168,6.168,0,0,1-8,.458c-2.438-1.852-2.081-4.208-.6-6.534a.52.52,0,0,1,.044-.038c2.868-3.02,5.078-5.9,6.214-9.9a26.506,26.506,0,0,0,.817-6.136,33.434,33.434,0,0,0-.364-6.058c-.026-.191-.084-.456-.128-.721s-.078-.429-.137-.813-.168-1.059-.285-1.533-.254-.993-.4-1.49-.275-1.054-.452-1.556a29.42,29.42,0,0,0-2.675-5.738,28.319,28.319,0,0,0-3.974-5.085c-.762-.772-1.574-1.476-2.367-2.2-.394-.362-.836-.706-1.221-1.045-.194-.17-.435-.354-.584-.479s-.209-.148-.3-.242.822-4.489,1.114-9.539C215.456,112.877,215.561,111.579,217.169,112.078Z" transform="translate(-209.569 -111.977)" fill="#fff"/><g transform="translate(2.382 59.369)"><path d="M212.034,236.817a8.233,8.233,0,0,0-2.339,4.648,1.606,1.606,0,0,0-.033.351c.193.9,1.435,1.347,1.944.627a27.542,27.542,0,0,0,.635-2.734,5.341,5.341,0,0,0-.315,2.67,2.042,2.042,0,0,0,1.685,1.672l.3.038-.036-.13a4.057,4.057,0,0,1,.086-2.445l.321-.89s-1.109,3.068.114,3.929,1.468.2,1.468.2a3.941,3.941,0,0,1,.654-2.993s-1.73,4,.5,4.56c1.78.445,3.4-2.041,3.987-3.065a.617.617,0,0,0-.1-.738h0a.7.7,0,0,0-.763-.148l-1.38.584,3.216-2.526a3.907,3.907,0,0,0,1.285-3.861l-.289-1.365-2.553-1.168a6.035,6.035,0,0,0-6.818,1.261Z" transform="translate(-209.66 -233.398)" fill="#ff8e77" opacity="0.46"/><path d="M213.1,236.652a8.233,8.233,0,0,0-2.339,4.648,1.547,1.547,0,0,0-.033.351c.193.9,1.435,1.347,1.944.627a27.54,27.54,0,0,0,.635-2.734,5.34,5.34,0,0,0-.315,2.67,2.041,2.041,0,0,0,1.685,1.672l.3.038-.036-.13a4.05,4.05,0,0,1,.086-2.445l.321-.89s-1.109,3.068.114,3.929,1.469.2,1.469.2a3.942,3.942,0,0,1,.654-2.994s-1.73,4,.5,4.561c1.78.445,3.4-2.041,3.987-3.065a.617.617,0,0,0-.1-.738h0a.7.7,0,0,0-.764-.149l-1.379.584,3.216-2.526a3.907,3.907,0,0,0,1.285-3.861l-.29-1.365-2.553-1.168a6.034,6.034,0,0,0-6.817,1.261Z" transform="translate(-210.209 -233.314)" fill="#fdbea6"/><path d="M224.652,248.893a2.721,2.721,0,0,0-.59.717,3.868,3.868,0,0,0-.381.9,4.6,4.6,0,0,0-.1.488c-.011.083-.028.165-.035.249l-.017.252a1.986,1.986,0,0,0-.007.252l0,.253c.008.168.027.337.04.5v.016a.147.147,0,0,1-.122.165.142.142,0,0,1-.145-.141v0c-.011-.178-.028-.356-.034-.534l0-.269a2.256,2.256,0,0,1,.011-.268l.023-.267c.009-.089.028-.177.041-.265a4.868,4.868,0,0,1,.118-.52,4.137,4.137,0,0,1,.424-.957,2.9,2.9,0,0,1,.662-.771.1.1,0,0,1,.143.03.129.129,0,0,1-.024.162Z" transform="translate(-216.678 -241.158)" fill="#ff8970"/><path d="M219.893,247.217a2.994,2.994,0,0,0-.43.865,4.112,4.112,0,0,0-.186.982,4.621,4.621,0,0,0,0,.5c.006.084.007.168.017.251l.034.25a2.165,2.165,0,0,0,.045.248l.054.246c.043.162.1.321.142.481l0,.015a.158.158,0,0,1-.085.193.132.132,0,0,1-.17-.1v0c-.045-.171-.1-.341-.137-.513l-.05-.262a2.281,2.281,0,0,1-.041-.264l-.029-.266c-.009-.089-.008-.179-.012-.269a4.83,4.83,0,0,1,.014-.536,4.327,4.327,0,0,1,.226-1.038,3.146,3.146,0,0,1,.489-.913.072.072,0,0,1,.112-.005.1.1,0,0,1,.007.126Z" transform="translate(-214.503 -240.334)" fill="#ff8970"/><path d="M216.019,244.653a2.92,2.92,0,0,0-.486.825,4.054,4.054,0,0,0-.25.962,4.733,4.733,0,0,0-.033.5c0,.084,0,.168,0,.252l.018.252a1.991,1.991,0,0,0,.029.251l.038.25c.032.165.074.328.11.492l0,.015a.156.156,0,0,1-.1.186.135.135,0,0,1-.163-.113v0c-.034-.174-.073-.347-.1-.523l-.032-.266a2.242,2.242,0,0,1-.024-.267l-.012-.268c0-.09,0-.179.007-.269a4.913,4.913,0,0,1,.049-.533,4.292,4.292,0,0,1,.293-1.015,3.053,3.053,0,0,1,.549-.868.072.072,0,0,1,.112,0,.1.1,0,0,1,0,.126Z" transform="translate(-212.423 -239.022)" fill="#ff8970"/></g><path d="M219.005,249.371a35.269,35.269,0,0,1-6.7-1.577c-2.736-.963-4.922-2-7.231-2.97,0,0-2.115,11.521,4.209,12.6C215,258.4,220.051,258.309,219.005,249.371Z" transform="translate(-204.738 -179.823)" fill="#eee"/></g><g transform="translate(45.917 36.734)"><path d="M187.952,145.772l.759-.275c-.036-.092-3.572-9.242-.631-13.942a5.969,5.969,0,0,1,4.615-2.675l.4-.049-.044-.382a75.715,75.715,0,0,1,.161-9.606c.387-7.429-.273-11.293-2.206-12.917-1.709-1.436-4.139-1-7.217-.446a45.028,45.028,0,0,1-4.608.657c-9.251.707-11.473,17.113-11.563,17.811l.805.1c.021-.165,2.227-16.473,10.822-17.129a45.809,45.809,0,0,0,4.693-.668c2.861-.514,5.121-.92,6.533.267,1.7,1.431,2.3,5.221,1.929,12.291-.309,5.93-.237,8.481-.186,9.355a6.624,6.624,0,0,0-4.827,2.995C184.241,136.179,187.8,145.383,187.952,145.772Z" transform="translate(-167.614 -104.956)" fill="#a0c1e4"/></g><g transform="translate(44.422)"><g transform="translate(9.418 27.345)"><path d="M199.127,87.905a86.736,86.736,0,0,1-.109,9.911c-.529,5.093-2.453,6.8-7.857,6.776-9.465-.044-4-13.455-7.177-18.824C188.019,85.976,199.127,87.905,199.127,87.905Z" transform="translate(-183.984 -85.768)" fill="#fdbea6"/><path d="M199.127,87.905s.039.449.067,1.2q-.105.346-.211.675a13.249,13.249,0,0,1-9.916,9.166s-2.127.411-3.6.545c-.831-4.97.3-10.708-1.484-13.727C188.019,85.976,199.127,87.905,199.127,87.905Z" transform="translate(-183.984 -85.768)" fill="#ff8e77" opacity="0.46"/></g><g transform="translate(4.747 10.682)"><path d="M209.449,81.242a3.792,3.792,0,0,1,3.731-3.812,3.729,3.729,0,0,1,3.927,3.556,3.792,3.792,0,0,1-3.731,3.812A3.73,3.73,0,0,1,209.449,81.242Z" transform="translate(-192.452 -64.845)" fill="#fdbea6"/><path d="M182.405,78.1l3.461-.115a9.628,9.628,0,0,0,9.475-9.681l-.19-7.136c-.144-5.411-2.657-9.558-10.444-9.456l-10.375.346.511,19.2A7.18,7.18,0,0,0,182.405,78.1Z" transform="translate(-174.333 -51.712)" fill="#fdbea6"/><path d="M214.454,73.462c-.573-.535-1.05-2.184-1.589-2.747.915-2.351,1.321-2.971.561-5.6,2.293-3.092.836-2.227,1.668-1.34s.035,6.227.035,6.227S214.676,72.117,214.454,73.462Z" transform="translate(-194.215 -57.448)" fill="#04121e"/><path d="M182.4,88.292c-.2-1.938,1.847-.022,4.1-.238s3.873-2.485,4.073-.547a3.815,3.815,0,0,1-3.725,3.9A3.887,3.887,0,0,1,182.4,88.292Z" transform="translate(-178.488 -69.596)" fill="#fff"/><g transform="translate(3.197 8.67)"><path d="M195.621,75.052a.558.558,0,1,0,.613-.5A.563.563,0,0,0,195.621,75.052Z" transform="translate(-188.512 -72.044)" fill="#1c191a"/><path d="M181.678,74.7a.558.558,0,1,0,.614-.5A.562.562,0,0,0,181.678,74.7Z" transform="translate(-181.318 -71.865)" fill="#1c191a"/><path d="M188.674,75.064c.072.01.146.018.22.022a5.651,5.651,0,0,0,1.085-.062.137.137,0,0,0-.039-.271,5.383,5.383,0,0,1-1.033.059,1.591,1.591,0,0,1-1.29-.665.949.949,0,0,1-.091-.876l1.434-3.652a.137.137,0,0,0-.076-.178.134.134,0,0,0-.176.077l-1.434,3.652a1.219,1.219,0,0,0,.115,1.125A1.809,1.809,0,0,0,188.674,75.064Z" transform="translate(-184.162 -69.431)" fill="#ff8e77"/><path d="M195.141,77.043a.133.133,0,0,0,.1-.023c.679-.483,1.089-.029,1.106-.009a.135.135,0,0,0,.191.013.138.138,0,0,0,.014-.192,1.054,1.054,0,0,0-1.467-.035.138.138,0,0,0-.033.19A.134.134,0,0,0,195.141,77.043Z" transform="translate(-188.207 -73.053)" fill="#ff8e77"/><path d="M181.054,76.563a.134.134,0,0,0,.1-.023c.678-.483,1.089-.029,1.105-.01a.135.135,0,0,0,.191.013.138.138,0,0,0,.014-.192A1.053,1.053,0,0,0,181,76.315a.137.137,0,0,0-.032.19A.133.133,0,0,0,181.054,76.563Z" transform="translate(-180.938 -72.808)" fill="#ff8e77"/></g></g><path d="M171.288,33.936c4.285-3.839,11.977.375,14.217.375,1.232,0,3.253.191,4.822.363a6.757,6.757,0,0,1,4.277,2.148,10.883,10.883,0,0,1,2.1,3.237c1.991,4.745-1.837,15.005-1.837,15.005l-.227-.106a7.885,7.885,0,0,0-2.34-.673l-1.514-.048s0-10.545-2.847-10.577c-.743-.008-7.125.308-9.62.376-.473.013-.943.005-1.415-.022l-5.056-.291S166.817,37.943,171.288,33.936Z" transform="translate(-167.06 -31.128)" fill="#04121e"/><path d="M164.768,34.94a5.144,5.144,0,0,1,6.287-3.34,3.3,3.3,0,0,1,3.891-1.565,3.251,3.251,0,0,1,1.9,1.569c.258-.026.517-.045.776-.05l7.46-.157c4.662-.1,8.527,3.339,8.632,7.678l.082,3.408a2.771,2.771,0,0,1,1.238,2.24,2.824,2.824,0,0,1-5.072,1.732l-.489.01c-.1,0-.2.01-.291.02-2.43-1.816-4.154-5.644-4.154-5.644-.318,1.17-2.006,1.823-4.211,2.16a3.737,3.737,0,0,1-4.594.489c-.087-.055-.169-.113-.249-.174-.181,0-.359,0-.539,0a4.6,4.6,0,0,1-8.937-1.335,4.476,4.476,0,0,1,.184-1.378A5.035,5.035,0,0,1,164.768,34.94Z" transform="translate(-164.526 -29.881)" fill="#04121e"/></g><g transform="translate(36.965 39.371)"><path d="M167.266,110.346s-6.025,16.241-4.751,30.491c.721,8.06-2.475,56.446-2.475,56.446L149.12,198.95s3.375-58.545,2.775-65.979c-.592-7.348,3.542-15.562,3.542-15.562S157.947,111.488,167.266,110.346Z" transform="translate(-149.12 -110.346)" fill="#fff"/><path d="M178.522,110.346s-4.329.885-4.96,3.542.038,3.575-.355,5.336-2.244,2.081-2.27,4.946c-.056,6.2,1.268,14.935,2.827,17.938a71.808,71.808,0,0,1,.22-12.12A86.207,86.207,0,0,1,178.522,110.346Z" transform="translate(-160.377 -110.346)" fill="#d5dddd"/></g><g transform="translate(42.261 37.577)"><g transform="translate(28.196 22.318)"><path d="M220.094,170.612c.222-.363,5.415-8.952,3.157-14.451a6.7,6.7,0,0,0-4.706-3.868l-.229.749a5.937,5.937,0,0,1,4.18,3.406c2.114,5.148-3.049,13.683-3.1,13.769Z" transform="translate(-218.316 -152.292)" fill="#a0c1e4"/></g><path d="M221.045,187.112a1.105,1.105,0,0,0-1.307-.786,1.044,1.044,0,0,0-.541,1.389,1.1,1.1,0,0,0,1.307.785A1.043,1.043,0,0,0,221.045,187.112Z" transform="translate(-190.535 -147.334)" fill="#1fb28f"/><path d="M210.226,187.831a1,1,0,0,0-.445-1.367,1.073,1.073,0,0,0-1.3.692,1.006,1.006,0,0,0,.446,1.367A1.073,1.073,0,0,0,210.226,187.831Z" transform="translate(-184.991 -147.398)" fill="#1fb28f"/><g transform="translate(23.322 24.493)"><path d="M217.564,158.622l.3-.724a14.083,14.083,0,0,0-9.619-.554l.271.736A13.477,13.477,0,0,1,217.564,158.622Z" transform="translate(-208.246 -156.736)" fill="#a0c1e4"/></g><g transform="translate(26.552)"><path d="M217.262,129.105c0-.03.181-3.125.288-10.5.093-6.37-.5-10.366-1.706-11.556a1.109,1.109,0,0,0-.757-.369l-.011,1.171a.349.349,0,0,1-.156-.029c.015.009,1.556.989,1.414,10.767-.107,7.351-.284,10.42-.286,10.45Z" transform="translate(-214.919 -106.679)" fill="#1fb28f"/></g><g transform="translate(2.37 0.6)"><path d="M166.172,125.542c.011-.148,1.166-14.788,9.347-16.492l-.257-1.144c-9.073,1.889-10.258,16.916-10.3,17.555Z" transform="translate(-164.958 -107.906)" fill="#1fb28f"/></g><g transform="translate(0 17.482)"><path d="M161.231,148.127a3.193,3.193,0,0,1-1.161-2.229,3.305,3.305,0,0,1,3.134-3.482,3.451,3.451,0,0,1,2.46.786,3.192,3.192,0,0,1,1.161,2.229,3.305,3.305,0,0,1-3.134,3.482c-.083.006-.166.009-.249.009A3.442,3.442,0,0,1,161.231,148.127Zm2.08-4.287a1.856,1.856,0,0,0-1.76,1.956,1.792,1.792,0,0,0,.652,1.252,1.94,1.94,0,0,0,1.381.441,1.856,1.856,0,0,0,1.76-1.956,1.793,1.793,0,0,0-.652-1.252,1.935,1.935,0,0,0-1.242-.446C163.4,143.835,163.357,143.837,163.311,143.84Z" transform="translate(-160.061 -142.408)" fill="#a0c1e4"/></g></g><g transform="translate(0 33.021)"><path d="M73.036,100.2l22.924.15,14.019,21.52-.288.618-21.934-.529-15.01-21.141Z" transform="translate(-72.747 -98.813)" fill="#27debf"/><path d="M120.111,101.121l14.019,21.52.288-.618L120.4,100.5Z" transform="translate(-97.186 -98.969)" opacity="0.35"/><path d="M72.747,101.46l22.924.15,14.019,21.52L87.757,122.6Z" transform="translate(-72.747 -99.458)" opacity="0.25"/><g transform="translate(11.914 17.38)" opacity="0.2"><path d="M101.79,132.89c-.024.523-1.227,2.054-3.559,2.625l-.868-1.223Z" transform="translate(-97.362 -132.89)"/></g><g transform="translate(7.394 3.489)" opacity="0.1"><path d="M88.505,105.759l-.45-.728c-.248-.4,1.032-.573,2.861-.382l4.074-.15c1.829.192,3.506.23,3.754.632l.45.728Z" transform="translate(-88.024 -104.499)"/></g><g transform="translate(5.359)"><path d="M83.848,98.974c-.156-.251.33-.351,1.042-.4l1.316-.005s-.888-.978,2.158-1.177c3.351-.219,3.945,1.231,3.945,1.231a14.645,14.645,0,0,0,1.658.027c1.131-.02,1.313.135,1.495.381l.329.447-11.683-.07S84,99.225,83.848,98.974Z" transform="translate(-83.818 -97.369)" fill="#37474f"/></g><g transform="translate(6.365 1.871)"><path d="M86.555,102.067c1.116.1,1.59.173,1.974.792.438.708.587,1.014.587,1.014l6.163.258s-.7-1.025-.9-1.376.51-.592,1.6-.485l-.56-.862-9.518-.216Z" transform="translate(-85.898 -101.192)" fill="#37474f"/></g><g transform="translate(7.119 3.595)"><path d="M87.936,105.976l-.45-.728c-.248-.4,1.032-.573,2.861-.381l4.074-.151c1.828.192,3.505.23,3.754.632l.45.729Z" transform="translate(-87.455 -104.716)" fill="#37474f"/></g><g transform="translate(3.62 9.035)"><path d="M81.751,116.048s1.645,2.324,2.067,2.911,4.3.96,6.051.6c3.342-.679,3.946-.132,3.961,2.313.014,2.255-1.8,3.707-4.811,4.34a5.656,5.656,0,0,1-5.163-2.015c-1.864-2.267-2.347-5.188-3.26-6.571S80.613,115.42,81.751,116.048Z" transform="translate(-80.227 -115.835)" fill="#fdbea6"/></g></g></g></g></svg>