<svg xmlns="http://www.w3.org/2000/svg" xmlns:xlink="http://www.w3.org/1999/xlink" width="179" height="160.088" viewBox="0 0 179 160.088"><defs><clipPath id="a"><path d="M154.3,127.968a30.359,30.359,0,1,1-30.359-30.359A30.359,30.359,0,0,1,154.3,127.968Z" transform="translate(-93.579 -97.609)" fill="none"/></clipPath><clipPath id="b"><path d="M252.926,304.684v2.4s1.7,1.391,9.195,1.391c0,0,5.718.154,9.195-1.468v-2.318s-2.241,1-9.195,1C262.121,305.689,256.093,305.689,252.926,304.684Z" transform="translate(-252.926 -304.684)" fill="none" stroke="#ed8f00" stroke-miterlimit="10" stroke-width="0.25"/></clipPath><clipPath id="c"><path d="M249.479,294.743v2.4s1.7,1.391,9.195,1.391c0,0,5.718.154,9.2-1.468v-2.318s-2.241,1-9.2,1C258.674,295.748,252.647,295.748,249.479,294.743Z" transform="translate(-249.479 -294.743)" fill="none" stroke="#ed8f00" stroke-miterlimit="10" stroke-width="0.25"/></clipPath><clipPath id="d"><path d="M244.12,283.938v2.4s1.7,1.391,9.195,1.391c0,0,5.718.154,9.195-1.468v-2.318s-2.241,1-9.195,1C253.315,284.943,247.288,284.943,244.12,283.938Z" transform="translate(-244.12 -283.938)" fill="none" stroke="#ed8f00" stroke-miterlimit="10" stroke-width="0.25"/></clipPath><clipPath id="e"><path d="M249.438,273.832v2.4s1.7,1.391,9.195,1.391c0,0,5.718.154,9.2-1.468v-2.318s-2.241,1-9.2,1C258.633,274.837,252.606,274.836,249.438,273.832Z" transform="translate(-249.438 -273.832)" fill="none" stroke="#ed8f00" stroke-miterlimit="10" stroke-width="0.25"/></clipPath><clipPath id="f"><path d="M302.666,264.7l-1.955,1.384s-.154,2.191,4.176,8.309c0,0,3.177,4.756,6.51,6.657l1.892-1.339s-2.115-1.249-6.131-6.926C307.157,272.79,303.676,267.87,302.666,264.7Z" transform="translate(-300.71 -264.704)" fill="none" stroke="#ed8f00" stroke-miterlimit="10" stroke-width="0.25"/></clipPath><clipPath id="g"><rect width="144" height="160" transform="translate(1388 28)" fill="#fff" stroke="#707070" stroke-width="1"/></clipPath></defs><g transform="translate(-1347 -52.912)"><g transform="translate(1344.961 76.766)"><path d="M25.788,130.783c-11-5.537-19.969-15.506-23.031-30.877C.031,86.223,5.2,70.725,15.9,65.665c11.419-5.4,25.194,1.543,37.249-1.825,7.215-2.015,13.14-7.528,19.515-11.791,9.785-6.543,21.719-10.264,32.937-6.23,9.044,3.252,16.14,11.641,18.094,22.544,2.494,13.923-4.17,27.659-11.28,37.655a67.194,67.194,0,0,1-22.685,19.969,87.144,87.144,0,0,1-36.824,10.151A53.933,53.933,0,0,1,25.788,130.783Z" fill="#dce9f9" opacity="0.487"/><g transform="translate(30.614 60.835)"><path d="M165.128,137.445a30.359,30.359,0,1,1-30.359-30.359A30.359,30.359,0,0,1,165.128,137.445Z" transform="translate(-101.029 -104.128)" opacity="0.1" style="mix-blend-mode:multiply;isolation:isolate"/><g transform="translate(0 0)"><path d="M154.3,127.968a30.359,30.359,0,1,1-30.359-30.359A30.359,30.359,0,0,1,154.3,127.968Z" transform="translate(-93.579 -97.609)" fill="#1fb28f"/><g clip-path="url(#a)"><path d="M247.734,249.286l-.169-.169h0l-.169-.169h0l-.169-.169h0l-.17-.169h0l-.169-.169h0l-.169-.169h0l-.169-.169h0l-.169-.169h0l-.169-.169h0l-.169-.169h0l-.169-.169h0l-.169-.169h0l-.169-.169h0l-.169-.169h0l-.17-.169h0l-.169-.169h0l-.169-.169h0l-.169-.169h0l-.169-.169h0l-.169-.169h0l-.17-.169h0l-.169-.169h0l-.169-.169h0l-.169-.169h0l-.169-.169h0l-.17-.169h0l-.169-.169h0l-.17-.169h0l-.169-.169h0l-.169-.169h0l-.169-.169h0l-.17-.169h0l-.169-.169h0l-.169-.169h0l-.169-.169h0l-.17-.169h0l-.169-.169h0l-.169-.169h0l-.17-.169h0l-.169-.169h0l-.17-.169h0l-.169-.169h0l-.17-.169h0l-.169-.169h0l-.169-.169h0l-.15-.15h.617v-4.618h-.169v-.169h-.169v-.169h-.17v-.169h-.169v-.169h-.169v-.169h-.169V235.9h-.17v-.169h-.169v-.169h-.17v-.169H238.9v-.169h-.169v-.169h-.169v-.169h-.169V234.8h2.2v-4.618h-.169v-.169h-.169v-.169h-.17v-.169h-.169V229.5h-.169v-.169h-.169v-.169h-.17V229h-.169v-.169h-.17v-.169H238.9v-.169h-.169v-.169h-.169v-.169h-.169v-.169h-.17v-.169h-.169v-.169h-.17v-.169h-.169v-.169h-.169v-.169h-.169v-.169H237.2V226.8h-.169v-.169h-.169v-.169H236.7v-.169h-.169v-.169h-.169v-.169h-.169v-.169h-.169v-.169h-.169v-.169h-.169v-.169h-.169v-.169h-.17v-.169h-.169v-.169H235V224.6h-.169v-.169h-.169v-.169H234.5V224.1h-.169v-.169h-.169v-.169h-.169v-.169h-.17v-.169h-.169v-.169h-.169v-.169h-.169v-.169h-.169v-.169h-.169v-.169H232.8v-.169h-.169v-.028a9.265,9.265,0,0,1,3.412-.634,10.574,10.574,0,0,1,6.915,2.657l.041.046.006-.006.024.02c.046.052.094.1.139.155l.01-.01c.053.06.108.118.159.179l.01-.01c.053.06.108.117.16.179l.009-.009c.053.06.108.117.16.179l.01-.01c.053.06.108.117.16.179l.009-.009c.053.06.108.117.16.179l.01-.01c.053.06.108.117.16.179l.009-.009c.053.06.108.117.16.178l3.547-3.542a18.349,18.349,0,0,0-1.325-1.482c-.056-.057-.113-.112-.169-.169s-.113-.112-.169-.169-.113-.112-.17-.169-.113-.112-.169-.169-.113-.112-.17-.169-.113-.112-.169-.169-.113-.112-.169-.169-.113-.112-.169-.169-.113-.112-.169-.169-.113-.112-.169-.169-.113-.112-.169-.169-.113-.112-.169-.169-.113-.112-.169-.169-.114-.112-.169-.169-.113-.112-.169-.169-.113-.112-.169-.169-.113-.112-.169-.169-.113-.112-.169-.169-.113-.112-.169-.169-.113-.112-.17-.169-.113-.112-.169-.169-.113-.112-.17-.169-.113-.112-.169-.169-.113-.112-.169-.169-.113-.112-.169-.169-.113-.112-.169-.169-.113-.112-.169-.169-.113-.112-.169-.169-.113-.112-.17-.169-.113-.112-.169-.169-.114-.112-.17-.169-.113-.112-.169-.169-.113-.112-.169-.169-.113-.112-.169-.169-.113-.112-.17-.169-.113-.112-.169-.169-.113-.112-.17-.169-.113-.112-.169-.169-.113-.112-.169-.169-.113-.112-.169-.169-.113-.112-.169-.169-.113-.112-.17-.169-.113-.112-.169-.169-.113-.112-.169-.169-.113-.112-.169-.169-.113-.112-.169-.169-.113-.112-.169-.169-.113-.112-.169-.169-.113-.112-.169-.169-.113-.112-.17-.169-.113-.112-.169-.169-.113-.112-.169-.169-.113-.112-.17-.169-.113-.112-.169-.169-.113-.112-.169-.169-.113-.112-.169-.169-.113-.112-.17-.169-.113-.112-.169-.169-.113-.112-.17-.169-.113-.112-.169-.169-.113-.112-.169-.169-.113-.112-.169-.169-.113-.112-.169-.169-.113-.112-.169-.169-.113-.112-.169-.169-.113-.112-.169-.169-.113-.112-.169-.169-.113-.112-.169-.169-.113-.112-.169-.169-.114-.112-.17-.169-.113-.112-.169-.169-.113-.112-.169-.169-.113-.112-.169-.169-.113-.112-.17-.169-.113-.112-.169-.169-.113-.112-.169-.169-.113-.112-.169-.169-.113-.112-.169-.169-.113-.112-.169-.169-.113-.112-.169-.169-.113-.112-.17-.169-.113-.112-.169-.169-.113-.112-.17-.169-.113-.112-.169-.169-.113-.112-.17-.169-.113-.112-.169-.169-.113-.112-.169-.169-.113-.112-.169-.169-.113-.112-.169-.169-.113-.112-.169-.169-.113-.112-.169-.169-.113-.112-.17-.169-.113-.112-.169-.169-.113-.112-.169-.169-.113-.112-.169-.169-.113-.112-.169-.169-.113-.112-.169-.169c-.1-.1-.2-.194-.295-.292l-.043-.046c-.056-.057-.113-.112-.169-.169s-.113-.112-.169-.169-.113-.112-.169-.169-.113-.112-.17-.169-.113-.112-.169-.169-.113-.112-.17-.169-.113-.112-.169-.169-.113-.112-.169-.169-.113-.112-.169-.169-.114-.112-.17-.169-.113-.112-.169-.169-.113-.112-.169-.169-.113-.112-.169-.169-.113-.112-.169-.169-.113-.112-.169-.169-.113-.112-.169-.169-.113-.112-.169-.169-.113-.112-.169-.169-.113-.112-.169-.169-.113-.112-.169-.169-.113-.112-.17-.169-.113-.112-.169-.169-.113-.112-.17-.169-.113-.112-.169-.169-.113-.112-.17-.169-.113-.112-.169-.169-.113-.112-.169-.169-.113-.112-.169-.169-.113-.112-.169-.169-.113-.112-.169-.169-.113-.112-.169-.169-.113-.112-.17-.169-.113-.112-.169-.169-.113-.112-.169-.169-.113-.112-.169-.169-.113-.112-.169-.169-.113-.112-.169-.169-.113-.112-.17-.169-.113-.112-.169-.169-.113-.112-.169-.169-.113-.112-.169-.169-.113-.112-.169-.169-.113-.112-.17-.169-.113-.112-.169-.169-.113-.112-.17-.169-.113-.112-.169-.169-.113-.112-.169-.169-.113-.112-.169-.169-.113-.112-.169-.169-.113-.112-.169-.169-.113-.112-.169-.169-.113-.112-.169-.169-.113-.112-.169-.169-.113-.112-.169-.169-.113-.112-.169-.169-.113-.112-.169-.169-.113-.112-.169-.169-.113-.112-.169-.169-.113-.112-.169-.169-.113-.112-.17-.169-.113-.112-.169-.169-.113-.112-.17-.169-.113-.112-.169-.169-.113-.112-.169-.169-.113-.112-.169-.169-.113-.112-.169-.169-.113-.112-.17-.169-.113-.112-.169-.169-.113-.112-.17-.169-.113-.112-.169-.169-.113-.112-.17-.169-.113-.112-.169-.169-.113-.112-.169-.169-.113-.112-.169-.169-.113-.112-.169-.169-.113-.112-.169-.169-.113-.112-.17-.169-.113-.112-.169-.169-.113-.112-.169-.169-.113-.112-.169-.169-.113-.112-.169-.169-.113-.112-.17-.169-.113-.112-.169-.169-.113-.112-.169-.169-.113-.112-.169-.169-.113-.112-.169-.169-.113-.112-.169-.169-.113-.112-.17-.169-.113-.112-.169-.169-.113-.112-.169-.169-.113-.112-.169-.169-.113-.112-.169-.169-.113-.112-.17-.169-.113-.112-.169-.169-.114-.112-.17-.169-.113-.112-.169-.169-.113-.112-.169-.169-.113-.112-.169-.169-.113-.112-.169-.169-.113-.112-.169-.169-.113-.112-.169-.169-.113-.112-.169-.169-.113-.112-.169-.169-.113-.112-.169-.169-.113-.112-.169-.169-.113-.112-.17-.169-.113-.112-.169-.169-.113-.112-.169-.169c-.1-.1-.2-.194-.294-.292l-.044-.047c-.056-.057-.113-.112-.169-.169s-.113-.112-.169-.169-.113-.112-.169-.169-.113-.112-.169-.169-.113-.112-.169-.169-.113-.112-.169-.169-.114-.112-.17-.169-.113-.112-.169-.169-.113-.112-.169-.169-.113-.112-.169-.169-.113-.112-.17-.169-.113-.112-.169-.169-.113-.112-.17-.169-.113-.112-.169-.169-.113-.112-.169-.169-.113-.112-.169-.169-.113-.112-.17-.169-.113-.112-.169-.169-.113-.112-.169-.169-.113-.112-.169-.169-.113-.112-.169-.169-.113-.112-.169-.169-.113-.112-.169-.169-.114-.112-.17-.169-.113-.112-.169-.169-.113-.112-.169-.169-.113-.112-.169-.169-.113-.112-.17-.169-.113-.112-.169-.169-.113-.112-.169-.169-.113-.112-.169-.169-.113-.112-.169-.169-.113-.112-.169-.169-.113-.112-.169-.169-.113-.112-.17-.169-.113-.112-.169-.169-.113-.112-.169-.169-.113-.112-.169-.169-.113-.112-.169-.169-.113-.112-.169-.169-.113-.112-.169-.169-.113-.112-.169-.169-.113-.112-.169-.169-.113-.112-.169-.169-.113-.112-.169-.169-.114-.112-.17-.169-.113-.112-.169-.169-.113-.112-.169-.169-.113-.112-.169-.169-.113-.112-.169-.169-.113-.112-.169-.169-.113-.112-.17-.169-.113-.112-.169-.169-.113-.112-.17-.169-.113-.112-.169-.169-.113-.112-.169-.169-.113-.112-.17-.169-.113-.112-.169-.169-.113-.112-.17-.169-.113-.112-.169-.169-.113-.112-.17-.169-.113-.112-.169-.169-.114-.112-.17-.169-.113-.112-.169-.169-.113-.112-.169-.169-.113-.112-.169-.169-.113-.112-.17-.169-.113-.112-.169-.169-.113-.112-.169-.169-.114-.112-.17-.169-.113-.112-.169-.169-.113-.112-.169-.169-.113-.112-.169-.169-.113-.112-.169-.169-.113-.112-.169-.169-.113-.112-.169-.169-.113-.112-.169-.169-.113-.112-.17-.169-.113-.112-.169-.169-.113-.112-.169-.169-.113-.112-.169-.169-.113-.112-.169-.169-.113-.112-.169-.169-.113-.112-.169-.169-.114-.112-.17-.169-.113-.112-.169-.169-.113-.112-.169-.169-.113-.112-.169-.169-.113-.112-.17-.169-.112-.112-.169-.169-.113-.113-.17-.17-.113-.112-.169-.169-.113-.112-.169-.169-.113-.113-.169-.169-.113-.113-.169-.169-.113-.112-.17-.169-.113-.112-.169-.169-.113-.112-.169-.169-.113-.112-.169-.169-.113-.112-.17-.169-.113-.112-.169-.169-.113-.112-.169-.169-.113-.113-.17-.169-.113-.113-.17-.169-.112-.112-.169-.169-.113-.112-.17-.169c-.1-.1-.2-.195-.3-.292l-.043-.046c-.056-.057-.113-.113-.17-.169s-.112-.112-.169-.169-.113-.113-.17-.169-.113-.112-.169-.169-.113-.112-.169-.169-.113-.112-.169-.169-.114-.112-.17-.169-.113-.112-.168-.169-.113-.112-.169-.169-.113-.112-.17-.169-.112-.112-.169-.169-.113-.113-.17-.169-.112-.112-.169-.169-.113-.113-.169-.169-.113-.113-.169-.169-.113-.112-.169-.169-.113-.113-.169-.169-.114-.113-.17-.17-.113-.112-.169-.169-.112-.112-.169-.169-.113-.113-.169-.17-.113-.112-.17-.169-.113-.113-.169-.169-.113-.113-.169-.169-.113-.112-.169-.169-.112-.111-.168-.168-.113-.112-.169-.169-.113-.112-.169-.169-.113-.112-.169-.169-.113-.112-.169-.169-.113-.112-.17-.169-.113-.112-.169-.169-.113-.112-.169-.169-.113-.112-.169-.169-.113-.112-.169-.169-.113-.112-.169-.169-.113-.112-.169-.169-.113-.112-.169-.169-.113-.112-.169-.169-.112-.112-.169-.169-.113-.112-.169-.169-.112-.112-.169-.169-.113-.112-.169-.169-.113-.112-.169-.169-.113-.112-.169-.169-.113-.112-.169-.169-.113-.112-.17-.169-.113-.112-.169-.169-.113-.112-.169-.169-.113-.112-.169-.169-.113-.112-.169-.169-.113-.112-.169-.169-.113-.112-.169-.169-.113-.112-.169-.169-.113-.112-.169-.169-.113-.112-.169-.169-.113-.112-.169-.169-.113-.112-.169-.169-.113-.112-.169-.169-.113-.112-.169-.169-.113-.112-.169-.169-.113-.112-.169-.169-.113-.112-.169-.169-.113-.112-.169-.169-.113-.112-.169-.169-.113-.112-.169-.169-.113-.112-.169-.169-.113-.112-.169-.169-.113-.112-.169-.169-.113-.112-.169-.169c-.1-.1-.2-.195-.295-.292l-.043-.046c-.056-.057-.113-.112-.169-.169s-.113-.112-.169-.169-.113-.112-.169-.169-.113-.112-.169-.169-.113-.112-.169-.169-.113-.112-.169-.169-.113-.112-.169-.169-.113-.112-.169-.169-.113-.112-.169-.169-.113-.112-.169-.169-.113-.112-.169-.169-.113-.112-.169-.169-.113-.112-.169-.169-.112-.112-.169-.169-.113-.112-.169-.169-.113-.112-.169-.169-.113-.112-.169-.169-.113-.112-.169-.169-.113-.112-.169-.169-.113-.112-.169-.169-.113-.112-.169-.169-.112-.112-.169-.169-.113-.112-.169-.169-.113-.112-.169-.169-.113-.112-.169-.169-.113-.112-.169-.169-.113-.112-.169-.169-.113-.112-.169-.169-.113-.112-.169-.169-.112-.112-.169-.169-.113-.112-.169-.169-.112-.112-.169-.169-.113-.112-.169-.169-.112-.112-.169-.169-.113-.112-.169-.169-.113-.112-.169-.169-.113-.112-.169-.169-.113-.112-.169-.169-.113-.112-.169-.169-.112-.112-.169-.169-.113-.112-.169-.169-.112-.112-.169-.169-.113-.112-.169-.169-.113-.112-.169-.169-.113-.112-.169-.169-.113-.112-.169-.169-.113-.112-.169-.169-.113-.112-.169-.169-.113-.112-.169-.169-.112-.112-.169-.169-.113-.112-.169-.169c-.1-.1-.2-.195-.294-.292l-.044-.046c-.055-.057-.113-.112-.169-.169s-.113-.112-.169-.169-.113-.112-.169-.169-.113-.112-.169-.169-.113-.112-.169-.169-.113-.112-.169-.169-.112-.112-.169-.169-.113-.112-.169-.169-.113-.112-.169-.169-.113-.112-.169-.169-.113-.112-.169-.169-.113-.112-.169-.169-.113-.112-.169-.169-.113-.112-.169-.169-.113-.112-.169-.169-.113-.112-.17-.169-.112-.112-.169-.169-.113-.112-.169-.169-.113-.112-.169-.169-.113-.112-.169-.169-.113-.112-.169-.169-.113-.112-.17-.169-.113-.112-.169-.169-.113-.112-.169-.169-.113-.112-.169-.169-.113-.112-.169-.169-.113-.112-.169-.169-.113-.112-.169-.169-.113-.112-.169-.169-.113-.112-.169-.169-.113-.112-.169-.169-.113-.112-.169-.169-.113-.112-.169-.169-.113-.112-.169-.169-.113-.112-.169-.169-.113-.112-.169-.169-.113-.112-.169-.169-.113-.112-.169-.169-.113-.112-.169-.169-.113-.112-.169-.169-.113-.112-.169-.169-.113-.112-.169-.169-.113-.112-.169-.169-.113-.112-.169-.169-.113-.112-.169-.169-.113-.112-.169-.169-.113-.112-.169-.169-.113-.112-.169-.169-.113-.112-.169-.169-.113-.112-.169-.169-.113-.112-.169-.169-.113-.112-.169-.169-.113-.112-.169-.169-.113-.112-.169-.169-.113-.112-.169-.169-.113-.112-.169-.169-.113-.112-.169-.169a15.052,15.052,0,0,0-10.846-4.832c-7.491,0-13.076,5.932-14.853,14.069H131.13V150.3h.169v.169h.169v.169h.169v.169h.169v.169h.169v.169h.169v.169h.169v.169h.169v.169h.169v.169h.169v.169h.169v.169h.169v.169h.169v.086h-2.2v4.618h.169v.169h.169v.169h.169v.169h.169v.169h.169v.169h.169v.169h.169v.169h.169v.169h.169v.169h.169v.169h.169v.169h.169v.169h.169v.169h.169v.169h.169v.169h.169v.169H134v.169h.169v.169h.169v.169h.169v.169h.169v.169h.169v.169h.169v.169h.169v.169h.169v.169h.169v.169h.169v.169h.169v.169h.169v.169h.169v.169h.169v.169h.169v.169h.169v.169h.169v.169h.169v.169h.169v.169h.169v.169h.169v.169h.169v.169h.169v.169h.169v.169h.169v.169h.169v.169h.169v.169h.169v.169h.169v.169h.169v.169h.169v.169h.169v.169h.169v.169h.169v.169h.169v.169h.169v.169h.169v.169h.169v.169h.169v.169h.169v.169h.169v.169h.169V167h.169v.169h.169v.169h.169v.169h.169v.169h.169v.169h.169v.169h.169v.169h.169v.169h.169v.169h.169v.169h.169v.169h.169v.169h.169v.169h.169v.169h.169v.169h.169v.169h.169v.169h.169v.169h.169v.169h.169v.169h.169v.169h.169v.169h.169v.169h.169v.169h.169v.169h.169v.169h.169v.169h.169v.169H146v.169h.169v.169h.169v.169h.169v.169h.169v.169h.169v.169h.169v.169h.169v.169h.169v.169h.169v.169h.169v.169h.169v.169h.169v.169h.169v.169h.169v.169h.169v.169h.169v.169h.169v.169h.169v.169h.169v.169h.169v.169h.169v.169h.169v.169h.169v.169h.169v.169h.169v.169h.169v.169h.169v.169h.169v.169h.169v.169h.169v.169h.169v.169h.169v.169h.169v.169h.169v.169h.169v.169h.169v.169h.169v.169h.169v.169h.169v.169h.169v.169h.17v.169h.169V179h.169v.169h.169v.169h.169v.169h.169v.169h.169v.169h.169v.169h.169v.169h.169v.169h.17v.169h.169v.169h.169v.169h.169v.169h.169v.169h.169v.169h.169v.169h.169v.169h.169v.169h.169v.169h.169v.169h.169v.169h.169v.169h.169v.169h.169v.169h.169v.169h.169v.169h.169v.169h.169v.169h.169v.169H158v.169h.169v.169h.169v.169h.169v.169h.169v.169h.169v.169h.169v.169h.169v.169h.169v.169h.169v.169h.169v.169h.169v.169h.169v.169h.169v.169h.169v.169h.169v.169h.169v.169h.169v.169h.169v.169h.169v.169h.169v.169h.169v.169h.169v.169h.169v.169h.169v.169h.169v.169h.169v.169h.169v.169h.169v.169h.169v.169h.169v.169h.169v.169h.169v.169h.169v.169h.169v.169h.169v.169h.169v.169h.169v.169h.169v.169h.169v.169h.169v.169h.169v.169h.169V191h.169v.169h.169v.169h.169v.169h.169v.169h.169v.169h.169v.169h.169v.169h.169v.169h.169v.169h.169v.169h.169v.169h.169v.169h.169v.169h.169v.169h.169v.169h.169v.169h.169v.169h.169v.169h.169v.169h.169v.169h.169v.169h.169v.169h.169v.169h.169v.169h.169v.169h.169v.169h.169v.169h.169v.169H170v.169h.169v.169h.169v.169h.169v.169h.169v.169h.169v.169h.169v.169h.169v.169h.169v.169h.169v.169h.169v.169h.169v.169h.169v.169h.169v.169h.169v.169h.17v.169h.169v.169h.169v.169h.169v.169h.169v.169h.169v.169h.169v.169h.169v.169h.169v.169h.169v.169h.169v.169h.169v.169h.169v.169h.169v.169h.169v.169h.169v.169h.169v.169h.169v.169h.169v.169h.169v.169h.169v.169h.169v.169h.169v.169h.169v.169h.169v.169h.169v.169h.169v.169h.169V203h.169v.169h.169v.169h.169v.169h.169v.169h.169v.169h.169v.169h.169v.169h.169v.169h.169v.169h.169v.169h.169v.169h.169v.169h.169v.169h.169v.169h.169v.169h.169v.169h.169v.169h.169v.169h.169v.169h.169v.169h.169v.169h.169v.169h.169v.169h.169v.169h.169v.169h.169v.169h.169v.169h.169v.169H182v.169h.169v.169h.169v.169h.169v.169h.169v.169h.169v.169h.169v.169h.169v.169h.169v.169h.169v.169h.169v.169h.169v.169h.169v.169h.169v.169h.169v.169h.169v.169h.169v.169h.169v.169h.169v.169h.169v.169h.17v.169h.169v.169h.169v.169h.169v.169h.169v.169h.169v.169h.169v.169h.169v.169h.169v.169h.169v.169h.169v.169h.169v.169h.169v.169h.169v.169h.169v.169h.169v.169h.17v.169h.169v.169h.169v.169h.169v.169h.169v.169h.169v.169h.169V215h.169v.169h.169v.169h.169v.169h.169v.169h.169v.169h.169v.169h.17v.169h.169v.169h.17v.169h.169v.169h.169v.169h.169v.169h.169v.169h.169v.169h.169v.169h.169v.169h.169v.169h.17v.169h.169v.169h.169v.169h.169v.169h.17v.169h.169v.169h.17v.169h.169v.169h.17v.169h.169v.169h.169v.169H194v.169h.169v.169h.169v.169h.169v.169h.169v.169h.169v.169h.169v.169h.169v.169h.169v.169h.169v.169h.17v.169h.169v.169h.169v.169h.169v.169h.169v.169h.17v.169h.169v.169h.17v.169h.169v.169h.169v.169h.169v.169h.17v.169h.169v.169h.169v.169h.169v.169h.169v.169h.17v.169h.169v.169h.17v.169h.169v.169h.169v.169h.169v.169h.17v.169h.169v.169h.17v.169h.169v.169h.169v.169h.169v.169h.169v.169h.169v.169h.169v.169h.169v.169h.169V227h.17v.169h.169v.169h.169v.169h.169v.169h.169v.169h.169v.169h.17v.169h.169v.169h.169v.169h.169v.169h.169v.169h.169v.169h.169v.169h.169v.169h.169v.169h.169v.169h.169v.169h.17v.169h.169v.169h.169v.169h.17v.169h.169v.169H205v.169h.169v.169h.169v.169h.169v.169h.169v.169h.169v.169h.17v.169h.169v.169h.17v.169h.169v.169h.169v.169h.17v.169h.169v.169h.17v.169h.169v.169h.17v.169h.169v.169h.169v.169h.169v.169h.169v.169h.169v.169h.169v.169h.169v.169h.169v.169h.169v.169h.169v.169h.169v.169h.169v.169h.17v.169h.169v.169h.17v.169h.169v.169h.169v.169h.169v.169h.169v.169h.169v.169h.169v.169h.17v.169h.169v.169h.169v.169h.169v.169h.169v.169h.169v.169h.169v.169h.169v.169h.169v.169h.169v.169h.17v.169h.169V239h.169v.169h.169v.169h.169v.169h.17v.169h.169v.169h.17v.169h.169v.169h.17v.169h.169v.169h.17v.169h.169v.169h.169v.169h.169v.169h.169v.169h.17v.169h.551c.052.052.1.1.156.155s.112.114.169.169.112.114.169.169.113.114.169.169.112.114.169.169.112.114.17.169.112.114.169.169.112.113.169.169.112.114.169.169.112.114.169.169.112.114.169.169.112.114.169.169.113.114.17.169.112.114.169.169.112.114.169.169.112.114.169.169.112.114.17.169.112.114.169.169.112.114.169.169.112.114.169.169.112.114.17.169.112.114.169.169.112.114.169.169.112.114.17.169.112.114.169.169.113.114.17.169.112.114.169.169.113.114.17.169.112.114.169.169.113.114.169.169.112.114.169.169.112.114.169.169.112.114.169.169.112.114.17.169.112.114.169.169.112.114.169.169.113.114.169.169.112.114.169.169.112.113.169.169.112.114.169.169.112.114.169.169.112.114.169.169.112.114.17.169.112.114.169.169.112.114.17.169.112.114.169.169.112.113.169.169.112.114.169.169.112.114.169.169.113.114.17.169.112.114.169.169.113.114.17.169.112.114.169.169.112.114.169.169.112.114.169.169.112.114.169.169.111.113.168.168.112.114.17.169.112.114.17.169a13.509,13.509,0,0,0,9.708,4.114,15.417,15.417,0,0,0,12.015-6.147l-.169-.169Z" transform="translate(-119.408 -120.998)" opacity="0.1" style="mix-blend-mode:multiply;isolation:isolate"/></g><g transform="translate(11.722 10.614)"><path d="M170.254,161.413a10.914,10.914,0,0,1-8.3,4.055c-6.537,0-10.693-6.318-10.693-14.111s4.156-14.111,10.693-14.111a10.915,10.915,0,0,1,8.3,4.055l3.543-3.542a15.392,15.392,0,0,0-12-6.146c-9.147,0-15.455,8.84-15.455,19.745S152.65,171.1,161.8,171.1a15.392,15.392,0,0,0,12-6.146Z" transform="translate(-141.594 -131.612)" fill="#fff"/><g transform="translate(0 14.069)"><rect width="24.896" height="4.618" fill="#fff"/><rect width="24.896" height="4.618" transform="translate(0 6.732)" fill="#fff"/></g></g></g></g><g transform="translate(12.868 95.054)"><rect width="103.469" height="17.832" transform="translate(0 13.181) rotate(-7.319)" fill="#00276b"/><g transform="translate(9.598 5.812)"><path d="M68.779,265.229a3.175,3.175,0,0,0,1.909.519c.62-.08.857-.316.812-.662-.047-.37-.456-.438-1.146-.616l-1.018-.281a2.309,2.309,0,0,1-1.84-1.958,2.645,2.645,0,0,1,2.576-2.779,3.758,3.758,0,0,1,2.709.707l-.861,1.419a2.576,2.576,0,0,0-1.622-.361c-.5.064-.787.283-.743.629.047.37.505.444,1.244.628l.99.248a2.149,2.149,0,0,1,1.787,1.928c.168,1.312-.779,2.621-2.71,2.869a4.527,4.527,0,0,1-3.076-.732Z" transform="translate(-67.479 -248.942)" fill="#fff"/><path d="M90.517,256.282l2.051-.263.545,4.245c.178,1.383.6,1.839,1.411,1.735s1.128-.655.951-2.038l-.545-4.244,1.979-.254.514,4.007c.34,2.647-.5,4.016-2.672,4.295s-3.379-.827-3.719-3.474Z" transform="translate(-83.325 -246.217)" fill="#fff"/><path d="M118.247,253.6l2.791-.359c1.621-.208,2.985.029,3.181,1.555a1.7,1.7,0,0,1-1.073,1.835l.006.047a1.739,1.739,0,0,1,1.879,1.6c.205,1.6-1.089,2.467-2.759,2.681l-3.029.389Zm3.135,2.7c.668-.086.935-.46.874-.937s-.4-.628-1.064-.542l-.691.089.19,1.479Zm.545,3.105c.811-.1,1.152-.463,1.079-1.035s-.486-.762-1.3-.658l-.835.107.218,1.693Z" transform="translate(-102.399 -244.644)" fill="#fff"/><path d="M144.336,255.525a3.177,3.177,0,0,0,1.909.519c.62-.08.857-.317.812-.662-.047-.37-.457-.438-1.146-.616l-1.018-.281a2.309,2.309,0,0,1-1.84-1.958,2.644,2.644,0,0,1,2.576-2.779,3.758,3.758,0,0,1,2.709.706l-.86,1.42a2.577,2.577,0,0,0-1.622-.361c-.5.064-.788.283-.743.629.047.37.505.444,1.244.628l.99.249a2.149,2.149,0,0,1,1.787,1.928c.168,1.312-.779,2.621-2.71,2.869a4.529,4.529,0,0,1-3.076-.732Z" transform="translate(-119.45 -242.267)" fill="#fff"/><path d="M169.946,246.431a3.424,3.424,0,0,1,2.493.722l-.959,1.408a1.734,1.734,0,0,0-1.284-.369c-.93.12-1.61,1.056-1.429,2.462.187,1.455.959,2.18,1.96,2.052a1.806,1.806,0,0,0,1.28-.8l1.28,1.1a3.267,3.267,0,0,1-2.356,1.466A3.643,3.643,0,0,1,166.678,251,3.82,3.82,0,0,1,169.946,246.431Z" transform="translate(-135.682 -239.989)" fill="#fff"/><path d="M195.688,251.516l-1.669-2.428-.787.1.334,2.6-2.051.263-1-7.751,2.933-.377c1.669-.214,3.174.174,3.422,2.106a2.4,2.4,0,0,1-.964,2.4l2.067,2.788Zm-2.665-3.949.739-.095c.811-.1,1.194-.517,1.108-1.185s-.543-.827-1.354-.723l-.739.095Z" transform="translate(-152.111 -238.245)" fill="#fff"/><path d="M216.495,241.331l2.051-.263,1,7.751-2.051.263Z" transform="translate(-169.979 -236.317)" fill="#fff"/><path d="M230.474,239.156l3.005-.386c1.669-.214,3.18.222,3.431,2.177.243,1.9-1.129,2.909-2.751,3.117l-.954.123.315,2.456-2.051.263Zm3.381,3.3c.811-.1,1.141-.558,1.052-1.25s-.552-.9-1.315-.8l-.858.11.263,2.051Z" transform="translate(-179.594 -234.702)" fill="#fff"/><path d="M256.049,236.835,254,237.1l-.221-1.717,6.153-.79.221,1.717-2.051.264.775,6.034-2.051.263Z" transform="translate(-195.623 -231.862)" fill="#fff"/><path d="M279.064,233.3l2.051-.263,1,7.751-2.051.263Z" transform="translate(-213.016 -230.79)" fill="#fff"/><path d="M293.441,234.64c-.328-2.552.944-4.17,3.09-4.445s3.786.98,4.113,3.52-.934,4.241-3.081,4.517S293.769,237.192,293.441,234.64Zm5.1-.656c-.181-1.407-.857-2.145-1.788-2.025s-1.4,1-1.217,2.411.866,2.216,1.8,2.1S298.725,235.391,298.545,233.984Z" transform="translate(-222.87 -228.812)" fill="#fff"/><path d="M321.386,226.658l2.1-.27,2.161,3.238.963,1.645.047-.006a28,28,0,0,1-.642-2.924l-.288-2.241,1.956-.251,1,7.751-2.1.27-2.162-3.25-.962-1.634-.047.006a29.161,29.161,0,0,1,.642,2.924l.288,2.242-1.955.251Z" transform="translate(-242.127 -225.849)" fill="#fff"/></g></g><g transform="translate(77.559 112.903)"><g transform="translate(2.749 11.028)"><g transform="translate(0 1.482)"><path d="M252.926,304.726v2.4s1.7,1.391,9.195,1.391c0,0,5.718.154,9.195-1.469v-2.318s-2.241,1-9.195,1C262.121,305.731,256.093,305.731,252.926,304.726Z" transform="translate(-252.878 -304.652)" fill="#febc27"/><path d="M262.421,308.4c-.261,0-.407,0-.407,0-7.425,0-9.154-1.344-9.224-1.4l-.017-.014V304.5l.062.02c3.124.99,9.12,1,9.18,1,6.864,0,9.152-.99,9.175-1l.068-.03v2.423l-.028.013C268.294,308.295,263.745,308.4,262.421,308.4Zm-9.553-1.467c.2.141,2.156,1.367,9.147,1.367,0,0,.147,0,.406,0,1.315,0,5.821-.105,8.741-1.455v-2.216c-.425.16-2.9.982-9.147.982-.06,0-5.992-.012-9.147-.988Z" transform="translate(-252.772 -304.489)" fill="#ed8f00"/></g><g transform="translate(0.048 1.543)"><g clip-path="url(#b)"><g transform="translate(-2.23 0.063)"><rect width="0.096" height="3.627" fill="#ed8f00" stroke="#ed8f00" stroke-miterlimit="10" stroke-width="0.25"/><g transform="translate(0.695)"><rect width="0.096" height="3.627" fill="#ed8f00" stroke="#ed8f00" stroke-miterlimit="10" stroke-width="0.25"/></g><g transform="translate(1.391)"><rect width="0.096" height="3.627" fill="#ed8f00" stroke="#ed8f00" stroke-miterlimit="10" stroke-width="0.25"/></g><g transform="translate(2.086)"><rect width="0.096" height="3.627" fill="#ed8f00" stroke="#ed8f00" stroke-miterlimit="10" stroke-width="0.25"/></g><g transform="translate(2.781)"><rect width="0.096" height="3.627" fill="#ed8f00" stroke="#ed8f00" stroke-miterlimit="10" stroke-width="0.25"/></g><g transform="translate(3.477)"><rect width="0.096" height="3.627" fill="#ed8f00" stroke="#ed8f00" stroke-miterlimit="10" stroke-width="0.25"/></g><g transform="translate(4.172)"><rect width="0.096" height="3.627" fill="#ed8f00" stroke="#ed8f00" stroke-miterlimit="10" stroke-width="0.25"/></g><g transform="translate(4.867)"><rect width="0.096" height="3.627" fill="#ed8f00" stroke="#ed8f00" stroke-miterlimit="10" stroke-width="0.25"/></g><g transform="translate(5.563)"><rect width="0.096" height="3.627" fill="#ed8f00" stroke="#ed8f00" stroke-miterlimit="10" stroke-width="0.25"/></g><g transform="translate(6.258)"><rect width="0.096" height="3.627" fill="#ed8f00" stroke="#ed8f00" stroke-miterlimit="10" stroke-width="0.25"/></g><g transform="translate(6.954)"><rect width="0.096" height="3.627" fill="#ed8f00" stroke="#ed8f00" stroke-miterlimit="10" stroke-width="0.25"/></g><g transform="translate(7.649)"><rect width="0.096" height="3.627" fill="#ed8f00" stroke="#ed8f00" stroke-miterlimit="10" stroke-width="0.25"/></g><g transform="translate(8.345)"><rect width="0.096" height="3.627" fill="#ed8f00" stroke="#ed8f00" stroke-miterlimit="10" stroke-width="0.25"/></g><g transform="translate(9.04)"><rect width="0.096" height="3.627" fill="#ed8f00" stroke="#ed8f00" stroke-miterlimit="10" stroke-width="0.25"/></g><g transform="translate(9.735)"><rect width="0.096" height="3.627" fill="#ed8f00" stroke="#ed8f00" stroke-miterlimit="10" stroke-width="0.25"/></g><g transform="translate(10.431)"><rect width="0.096" height="3.627" fill="#ed8f00" stroke="#ed8f00" stroke-miterlimit="10" stroke-width="0.25"/></g><g transform="translate(11.126)"><rect width="0.096" height="3.627" fill="#ed8f00" stroke="#ed8f00" stroke-miterlimit="10" stroke-width="0.25"/></g><g transform="translate(11.821)"><rect width="0.096" height="3.627" fill="#ed8f00" stroke="#ed8f00" stroke-miterlimit="10" stroke-width="0.25"/></g><g transform="translate(12.517)"><rect width="0.096" height="3.627" fill="#ed8f00" stroke="#ed8f00" stroke-miterlimit="10" stroke-width="0.25"/></g><g transform="translate(13.212)"><rect width="0.096" height="3.627" fill="#ed8f00" stroke="#ed8f00" stroke-miterlimit="10" stroke-width="0.25"/></g><g transform="translate(13.908)"><rect width="0.096" height="3.627" fill="#ed8f00" stroke="#ed8f00" stroke-miterlimit="10" stroke-width="0.25"/></g><g transform="translate(14.603)"><rect width="0.096" height="3.627" fill="#ed8f00" stroke="#ed8f00" stroke-miterlimit="10" stroke-width="0.25"/></g><g transform="translate(15.298)"><rect width="0.096" height="3.627" fill="#ed8f00" stroke="#ed8f00" stroke-miterlimit="10" stroke-width="0.25"/></g><g transform="translate(15.994)"><rect width="0.096" height="3.627" fill="#ed8f00" stroke="#ed8f00" stroke-miterlimit="10" stroke-width="0.25"/></g><g transform="translate(16.689)"><rect width="0.096" height="3.627" fill="#ed8f00" stroke="#ed8f00" stroke-miterlimit="10" stroke-width="0.25"/></g><g transform="translate(17.385)"><rect width="0.096" height="3.627" fill="#ed8f00" stroke="#ed8f00" stroke-miterlimit="10" stroke-width="0.25"/></g><g transform="translate(18.08)"><rect width="0.096" height="3.627" fill="#ed8f00" stroke="#ed8f00" stroke-miterlimit="10" stroke-width="0.25"/></g><g transform="translate(18.776)"><rect width="0.096" height="3.627" fill="#ed8f00" stroke="#ed8f00" stroke-miterlimit="10" stroke-width="0.25"/></g><g transform="translate(19.471)"><rect width="0.096" height="3.627" fill="#ed8f00" stroke="#ed8f00" stroke-miterlimit="10" stroke-width="0.25"/></g><g transform="translate(20.166)"><rect width="0.096" height="3.627" fill="#ed8f00" stroke="#ed8f00" stroke-miterlimit="10" stroke-width="0.25"/></g><g transform="translate(20.862)"><rect width="0.096" height="3.627" fill="#ed8f00" stroke="#ed8f00" stroke-miterlimit="10" stroke-width="0.25"/></g><g transform="translate(21.557)"><rect width="0.096" height="3.627" fill="#ed8f00" stroke="#ed8f00" stroke-miterlimit="10" stroke-width="0.25"/></g><g transform="translate(22.252)"><rect width="0.096" height="3.627" fill="#ed8f00" stroke="#ed8f00" stroke-miterlimit="10" stroke-width="0.25"/></g></g></g><path d="M252.926,304.684v2.4s1.7,1.391,9.195,1.391c0,0,5.718.154,9.195-1.468v-2.318s-2.241,1-9.195,1C262.121,305.689,256.093,305.689,252.926,304.684Z" transform="translate(-252.926 -304.684)" fill="none" stroke="#ed8f00" stroke-miterlimit="10" stroke-width="0.25"/></g><path d="M271.315,301.4c0,.833-4.117,1.509-9.195,1.509s-9.195-.676-9.195-1.509,4.116-1.508,9.195-1.508S271.315,300.569,271.315,301.4Z" transform="translate(-252.878 -299.846)" fill="#fedb61"/><path d="M262.015,302.854c-4.543,0-9.243-.583-9.243-1.557s4.7-1.556,9.243-1.556,9.242.582,9.242,1.556S266.558,302.854,262.015,302.854Zm0-3.018c-5.471,0-9.147.755-9.147,1.461s3.676,1.461,9.147,1.461,9.147-.755,9.147-1.461S267.486,299.837,262.015,299.837Z" transform="translate(-252.772 -299.741)" fill="#ed8f00"/><g transform="translate(1.678 0.315)"><path d="M273.277,301.991c0,.686-3.387,1.241-7.564,1.241s-7.565-.556-7.565-1.241,3.387-1.241,7.565-1.241S273.277,301.306,273.277,301.991Z" transform="translate(-258.149 -300.75)" fill="#febc27"/><g opacity="0.51" style="mix-blend-mode:multiply;isolation:isolate"><path d="M273.277,301.991c0,.686-3.387,1.241-7.564,1.241s-7.565-.556-7.565-1.241,3.387-1.241,7.565-1.241S273.277,301.306,273.277,301.991Z" transform="translate(-258.149 -300.75)" fill="#f2974c"/></g></g><g transform="translate(5.37 0.933)"><path d="M276.651,304.064c-.436.04-1.179.08-2,.08a16.392,16.392,0,0,1-3.127-.239,1.61,1.61,0,0,1-.717-.273h-.834v-.15h.706v-.035c0-.021.012-.042.012-.063h-.718v-.149h.859a2.435,2.435,0,0,1,.884-.286,16.768,16.768,0,0,1,2.96-.217c.769,0,1.461.029,1.922.063l-.359.239c-.333-.023-.872-.05-1.435-.05a8.906,8.906,0,0,0-1.564.113,1.177,1.177,0,0,0-.41.137h3.191v.149H272.64a.113.113,0,0,0-.013.065v.033h3.4v.15h-3.216a1.114,1.114,0,0,0,.423.147,10.03,10.03,0,0,0,1.653.107c.589,0,1.191-.032,1.461-.055Z" transform="translate(-269.974 -302.731)" fill="#ed8f00"/></g><g transform="translate(4.815 0.85)"><path d="M274.875,303.8c-.436.04-1.179.08-2,.08a16.338,16.338,0,0,1-3.127-.24,1.6,1.6,0,0,1-.717-.273H268.2v-.15h.705v-.036c0-.022.013-.042.013-.063H268.2v-.15h.859a2.445,2.445,0,0,1,.884-.286,16.773,16.773,0,0,1,2.96-.216c.769,0,1.461.029,1.922.063l-.359.24c-.333-.024-.872-.051-1.435-.051a8.808,8.808,0,0,0-1.563.113,1.179,1.179,0,0,0-.41.137h3.191v.15h-3.383a.113.113,0,0,0-.013.065v.033h3.4v.15h-3.216a1.1,1.1,0,0,0,.423.147,10.04,10.04,0,0,0,1.653.107c.59,0,1.191-.032,1.461-.055Z" transform="translate(-268.198 -302.464)" fill="#fedb61"/></g></g><g transform="translate(1.673 7.925)"><g transform="translate(0 1.482)"><path d="M249.479,294.785v2.4s1.7,1.391,9.195,1.391c0,0,5.718.155,9.2-1.468v-2.318s-2.241,1-9.2,1C258.674,295.79,252.647,295.789,249.479,294.785Z" transform="translate(-249.431 -294.711)" fill="#febc27"/><path d="M258.974,298.46c-.26,0-.407,0-.407,0-7.425,0-9.154-1.344-9.224-1.4l-.017-.014v-2.484l.062.02c3.125.99,9.12,1,9.18,1,6.864,0,9.153-.99,9.175-1l.068-.031v2.423l-.028.012C264.848,298.353,260.3,298.46,258.974,298.46Zm-9.553-1.467c.2.141,2.156,1.367,9.147,1.367,0,0,.148,0,.406,0,1.315,0,5.822-.105,8.741-1.455v-2.216c-.425.16-2.9.982-9.147.982-.06,0-5.992-.012-9.147-.987Z" transform="translate(-249.326 -294.547)" fill="#ed8f00"/></g><g transform="translate(0.048 1.543)"><g clip-path="url(#c)"><g transform="translate(-2.23 0.063)"><rect width="0.096" height="3.627" fill="#ed8f00" stroke="#ed8f00" stroke-miterlimit="10" stroke-width="0.25"/><g transform="translate(0.696)"><rect width="0.096" height="3.627" fill="#ed8f00" stroke="#ed8f00" stroke-miterlimit="10" stroke-width="0.25"/></g><g transform="translate(1.391)"><rect width="0.096" height="3.627" fill="#ed8f00" stroke="#ed8f00" stroke-miterlimit="10" stroke-width="0.25"/></g><g transform="translate(2.086)"><rect width="0.096" height="3.627" fill="#ed8f00" stroke="#ed8f00" stroke-miterlimit="10" stroke-width="0.25"/></g><g transform="translate(2.782)"><rect width="0.096" height="3.627" fill="#ed8f00" stroke="#ed8f00" stroke-miterlimit="10" stroke-width="0.25"/></g><g transform="translate(3.477)"><rect width="0.096" height="3.627" fill="#ed8f00" stroke="#ed8f00" stroke-miterlimit="10" stroke-width="0.25"/></g><g transform="translate(4.172)"><rect width="0.096" height="3.627" fill="#ed8f00" stroke="#ed8f00" stroke-miterlimit="10" stroke-width="0.25"/></g><g transform="translate(4.868)"><rect width="0.096" height="3.627" fill="#ed8f00" stroke="#ed8f00" stroke-miterlimit="10" stroke-width="0.25"/></g><g transform="translate(5.563)"><rect width="0.096" height="3.627" fill="#ed8f00" stroke="#ed8f00" stroke-miterlimit="10" stroke-width="0.25"/></g><g transform="translate(6.259)"><rect width="0.096" height="3.627" fill="#ed8f00" stroke="#ed8f00" stroke-miterlimit="10" stroke-width="0.25"/></g><g transform="translate(6.954)"><rect width="0.096" height="3.627" fill="#ed8f00" stroke="#ed8f00" stroke-miterlimit="10" stroke-width="0.25"/></g><g transform="translate(7.649)"><rect width="0.096" height="3.627" fill="#ed8f00" stroke="#ed8f00" stroke-miterlimit="10" stroke-width="0.25"/></g><g transform="translate(8.345)"><rect width="0.096" height="3.627" fill="#ed8f00" stroke="#ed8f00" stroke-miterlimit="10" stroke-width="0.25"/></g><g transform="translate(9.04)"><rect width="0.096" height="3.627" fill="#ed8f00" stroke="#ed8f00" stroke-miterlimit="10" stroke-width="0.25"/></g><g transform="translate(9.735)"><rect width="0.096" height="3.627" fill="#ed8f00" stroke="#ed8f00" stroke-miterlimit="10" stroke-width="0.25"/></g><g transform="translate(10.431)"><rect width="0.096" height="3.627" fill="#ed8f00" stroke="#ed8f00" stroke-miterlimit="10" stroke-width="0.25"/></g><g transform="translate(11.127)"><rect width="0.096" height="3.627" fill="#ed8f00" stroke="#ed8f00" stroke-miterlimit="10" stroke-width="0.25"/></g><g transform="translate(11.822)"><rect width="0.096" height="3.627" fill="#ed8f00" stroke="#ed8f00" stroke-miterlimit="10" stroke-width="0.25"/></g><g transform="translate(12.517)"><rect width="0.096" height="3.627" fill="#ed8f00" stroke="#ed8f00" stroke-miterlimit="10" stroke-width="0.25"/></g><g transform="translate(13.213)"><rect width="0.096" height="3.627" fill="#ed8f00" stroke="#ed8f00" stroke-miterlimit="10" stroke-width="0.25"/></g><g transform="translate(13.908)"><rect width="0.096" height="3.627" fill="#ed8f00" stroke="#ed8f00" stroke-miterlimit="10" stroke-width="0.25"/></g><g transform="translate(14.603)"><rect width="0.096" height="3.627" fill="#ed8f00" stroke="#ed8f00" stroke-miterlimit="10" stroke-width="0.25"/></g><g transform="translate(15.299)"><rect width="0.096" height="3.627" fill="#ed8f00" stroke="#ed8f00" stroke-miterlimit="10" stroke-width="0.25"/></g><g transform="translate(15.994)"><rect width="0.096" height="3.627" fill="#ed8f00" stroke="#ed8f00" stroke-miterlimit="10" stroke-width="0.25"/></g><g transform="translate(16.69)"><rect width="0.096" height="3.627" fill="#ed8f00" stroke="#ed8f00" stroke-miterlimit="10" stroke-width="0.25"/></g><g transform="translate(17.385)"><rect width="0.096" height="3.627" fill="#ed8f00" stroke="#ed8f00" stroke-miterlimit="10" stroke-width="0.25"/></g><g transform="translate(18.08)"><rect width="0.096" height="3.627" fill="#ed8f00" stroke="#ed8f00" stroke-miterlimit="10" stroke-width="0.25"/></g><g transform="translate(18.776)"><rect width="0.096" height="3.627" fill="#ed8f00" stroke="#ed8f00" stroke-miterlimit="10" stroke-width="0.25"/></g><g transform="translate(19.471)"><rect width="0.096" height="3.627" fill="#ed8f00" stroke="#ed8f00" stroke-miterlimit="10" stroke-width="0.25"/></g><g transform="translate(20.167)"><rect width="0.096" height="3.627" fill="#ed8f00" stroke="#ed8f00" stroke-miterlimit="10" stroke-width="0.25"/></g><g transform="translate(20.862)"><rect width="0.096" height="3.627" fill="#ed8f00" stroke="#ed8f00" stroke-miterlimit="10" stroke-width="0.25"/></g><g transform="translate(21.557)"><rect width="0.096" height="3.627" fill="#ed8f00" stroke="#ed8f00" stroke-miterlimit="10" stroke-width="0.25"/></g><g transform="translate(22.252)"><rect width="0.096" height="3.627" fill="#ed8f00" stroke="#ed8f00" stroke-miterlimit="10" stroke-width="0.25"/></g></g></g><path d="M249.479,294.743v2.4s1.7,1.391,9.195,1.391c0,0,5.718.154,9.2-1.468v-2.318s-2.241,1-9.2,1C258.674,295.748,252.647,295.748,249.479,294.743Z" transform="translate(-249.479 -294.743)" fill="none" stroke="#ed8f00" stroke-miterlimit="10" stroke-width="0.25"/></g><path d="M267.869,291.461c0,.833-4.117,1.509-9.195,1.509s-9.195-.676-9.195-1.509,4.117-1.508,9.195-1.508S267.869,290.629,267.869,291.461Z" transform="translate(-249.431 -289.905)" fill="#fedb61"/><path d="M258.569,292.912c-4.543,0-9.243-.582-9.243-1.557s4.7-1.556,9.243-1.556,9.243.582,9.243,1.556S263.112,292.912,258.569,292.912Zm0-3.017c-5.471,0-9.147.755-9.147,1.461s3.675,1.461,9.147,1.461,9.147-.755,9.147-1.461S264.04,289.895,258.569,289.895Z" transform="translate(-249.326 -289.799)" fill="#ed8f00"/><g transform="translate(1.678 0.315)"><path d="M269.831,292.05c0,.685-3.387,1.241-7.564,1.241s-7.564-.556-7.564-1.241,3.386-1.241,7.564-1.241S269.831,291.365,269.831,292.05Z" transform="translate(-254.703 -290.809)" fill="#febc27"/><g opacity="0.51" style="mix-blend-mode:multiply;isolation:isolate"><path d="M269.831,292.05c0,.685-3.387,1.241-7.564,1.241s-7.564-.556-7.564-1.241,3.386-1.241,7.564-1.241S269.831,291.365,269.831,292.05Z" transform="translate(-254.703 -290.809)" fill="#f2974c"/></g></g><g transform="translate(5.37 0.934)"><path d="M273.2,294.123c-.435.04-1.179.08-2,.08a16.4,16.4,0,0,1-3.127-.239,1.616,1.616,0,0,1-.717-.273h-.833v-.15h.705v-.035c0-.022.012-.042.012-.064h-.718v-.149h.859a2.433,2.433,0,0,1,.884-.286,16.758,16.758,0,0,1,2.96-.217c.769,0,1.461.029,1.922.063l-.359.239c-.333-.023-.871-.05-1.435-.05a8.9,8.9,0,0,0-1.563.113,1.181,1.181,0,0,0-.41.137h3.191v.149h-3.383a.114.114,0,0,0-.013.065v.033h3.4v.15h-3.216a1.11,1.11,0,0,0,.423.147,9.991,9.991,0,0,0,1.653.108c.589,0,1.192-.032,1.461-.055Z" transform="translate(-266.528 -292.79)" fill="#ed8f00"/></g><g transform="translate(4.815 0.85)"><path d="M271.429,293.856c-.435.04-1.179.08-2,.08a16.374,16.374,0,0,1-3.128-.24,1.615,1.615,0,0,1-.718-.273h-.833v-.15h.705v-.036c0-.021.013-.042.013-.063h-.718v-.15h.859a2.449,2.449,0,0,1,.884-.286,16.8,16.8,0,0,1,2.96-.216c.769,0,1.461.029,1.922.063l-.359.24c-.333-.024-.871-.051-1.435-.051a8.8,8.8,0,0,0-1.563.113,1.18,1.18,0,0,0-.41.137H270.8v.15h-3.383a.112.112,0,0,0-.013.065v.034h3.4v.15h-3.216a1.114,1.114,0,0,0,.423.147,10.033,10.033,0,0,0,1.653.107c.59,0,1.191-.032,1.461-.055Z" transform="translate(-264.752 -292.523)" fill="#fedb61"/></g></g><g transform="translate(0 4.552)"><g transform="translate(0 1.482)"><path d="M244.12,283.98v2.4s1.7,1.391,9.195,1.391c0,0,5.718.154,9.195-1.469V283.98s-2.241,1-9.195,1C253.315,284.985,247.288,284.984,244.12,283.98Z" transform="translate(-244.072 -283.906)" fill="#febc27"/><path d="M253.615,287.655c-.261,0-.407,0-.407,0-7.425,0-9.154-1.344-9.224-1.4l-.017-.014v-2.484l.062.02c3.124.99,9.12,1,9.18,1,6.864,0,9.153-.99,9.175-1l.067-.03v2.423l-.028.013C259.489,287.549,254.939,287.655,253.615,287.655Zm-9.553-1.467c.2.141,2.156,1.367,9.147,1.367,0,0,.147,0,.406,0,1.315,0,5.821-.105,8.741-1.455v-2.216c-.424.16-2.9.982-9.147.982-.06,0-5.992-.012-9.147-.987Z" transform="translate(-243.967 -283.743)" fill="#ed8f00"/></g><g transform="translate(0.048 1.543)"><g clip-path="url(#d)"><g transform="translate(-2.23 0.063)"><rect width="0.096" height="3.627" fill="#ed8f00" stroke="#ed8f00" stroke-miterlimit="10" stroke-width="0.25"/><g transform="translate(0.695)"><rect width="0.096" height="3.627" fill="#ed8f00" stroke="#ed8f00" stroke-miterlimit="10" stroke-width="0.25"/></g><g transform="translate(1.391)"><rect width="0.096" height="3.627" fill="#ed8f00" stroke="#ed8f00" stroke-miterlimit="10" stroke-width="0.25"/></g><g transform="translate(2.086)"><rect width="0.096" height="3.627" fill="#ed8f00" stroke="#ed8f00" stroke-miterlimit="10" stroke-width="0.25"/></g><g transform="translate(2.781)"><rect width="0.096" height="3.627" fill="#ed8f00" stroke="#ed8f00" stroke-miterlimit="10" stroke-width="0.25"/></g><g transform="translate(3.477)"><rect width="0.096" height="3.627" fill="#ed8f00" stroke="#ed8f00" stroke-miterlimit="10" stroke-width="0.25"/></g><g transform="translate(4.172)"><rect width="0.096" height="3.627" fill="#ed8f00" stroke="#ed8f00" stroke-miterlimit="10" stroke-width="0.25"/></g><g transform="translate(4.867)"><rect width="0.096" height="3.627" fill="#ed8f00" stroke="#ed8f00" stroke-miterlimit="10" stroke-width="0.25"/></g><g transform="translate(5.563)"><rect width="0.096" height="3.627" fill="#ed8f00" stroke="#ed8f00" stroke-miterlimit="10" stroke-width="0.25"/></g><g transform="translate(6.258)"><rect width="0.096" height="3.627" fill="#ed8f00" stroke="#ed8f00" stroke-miterlimit="10" stroke-width="0.25"/></g><g transform="translate(6.954)"><rect width="0.096" height="3.627" fill="#ed8f00" stroke="#ed8f00" stroke-miterlimit="10" stroke-width="0.25"/></g><g transform="translate(7.649)"><rect width="0.096" height="3.627" fill="#ed8f00" stroke="#ed8f00" stroke-miterlimit="10" stroke-width="0.25"/></g><g transform="translate(8.345)"><rect width="0.096" height="3.627" fill="#ed8f00" stroke="#ed8f00" stroke-miterlimit="10" stroke-width="0.25"/></g><g transform="translate(9.04)"><rect width="0.096" height="3.627" fill="#ed8f00" stroke="#ed8f00" stroke-miterlimit="10" stroke-width="0.25"/></g><g transform="translate(9.735)"><rect width="0.096" height="3.627" fill="#ed8f00" stroke="#ed8f00" stroke-miterlimit="10" stroke-width="0.25"/></g><g transform="translate(10.431)"><rect width="0.096" height="3.627" fill="#ed8f00" stroke="#ed8f00" stroke-miterlimit="10" stroke-width="0.25"/></g><g transform="translate(11.126)"><rect width="0.096" height="3.627" fill="#ed8f00" stroke="#ed8f00" stroke-miterlimit="10" stroke-width="0.25"/></g><g transform="translate(11.822)"><rect width="0.096" height="3.627" fill="#ed8f00" stroke="#ed8f00" stroke-miterlimit="10" stroke-width="0.25"/></g><g transform="translate(12.517)"><rect width="0.096" height="3.627" fill="#ed8f00" stroke="#ed8f00" stroke-miterlimit="10" stroke-width="0.25"/></g><g transform="translate(13.212)"><rect width="0.096" height="3.627" fill="#ed8f00" stroke="#ed8f00" stroke-miterlimit="10" stroke-width="0.25"/></g><g transform="translate(13.908)"><rect width="0.096" height="3.627" fill="#ed8f00" stroke="#ed8f00" stroke-miterlimit="10" stroke-width="0.25"/></g><g transform="translate(14.603)"><rect width="0.096" height="3.627" fill="#ed8f00" stroke="#ed8f00" stroke-miterlimit="10" stroke-width="0.25"/></g><g transform="translate(15.298)"><rect width="0.096" height="3.627" fill="#ed8f00" stroke="#ed8f00" stroke-miterlimit="10" stroke-width="0.25"/></g><g transform="translate(15.994)"><rect width="0.096" height="3.627" fill="#ed8f00" stroke="#ed8f00" stroke-miterlimit="10" stroke-width="0.25"/></g><g transform="translate(16.69)"><rect width="0.096" height="3.627" fill="#ed8f00" stroke="#ed8f00" stroke-miterlimit="10" stroke-width="0.25"/></g><g transform="translate(17.385)"><rect width="0.096" height="3.627" fill="#ed8f00" stroke="#ed8f00" stroke-miterlimit="10" stroke-width="0.25"/></g><g transform="translate(18.08)"><rect width="0.096" height="3.627" fill="#ed8f00" stroke="#ed8f00" stroke-miterlimit="10" stroke-width="0.25"/></g><g transform="translate(18.776)"><rect width="0.096" height="3.627" fill="#ed8f00" stroke="#ed8f00" stroke-miterlimit="10" stroke-width="0.25"/></g><g transform="translate(19.471)"><rect width="0.096" height="3.627" fill="#ed8f00" stroke="#ed8f00" stroke-miterlimit="10" stroke-width="0.25"/></g><g transform="translate(20.166)"><rect width="0.096" height="3.627" fill="#ed8f00" stroke="#ed8f00" stroke-miterlimit="10" stroke-width="0.25"/></g><g transform="translate(20.862)"><rect width="0.096" height="3.627" fill="#ed8f00" stroke="#ed8f00" stroke-miterlimit="10" stroke-width="0.25"/></g><g transform="translate(21.557)"><rect width="0.096" height="3.627" fill="#ed8f00" stroke="#ed8f00" stroke-miterlimit="10" stroke-width="0.25"/></g><g transform="translate(22.252)"><rect width="0.096" height="3.627" fill="#ed8f00" stroke="#ed8f00" stroke-miterlimit="10" stroke-width="0.25"/></g></g></g><path d="M244.12,283.938v2.4s1.7,1.391,9.195,1.391c0,0,5.718.154,9.195-1.468v-2.318s-2.241,1-9.195,1C253.315,284.943,247.288,284.943,244.12,283.938Z" transform="translate(-244.12 -283.938)" fill="none" stroke="#ed8f00" stroke-miterlimit="10" stroke-width="0.25"/></g><path d="M262.509,280.656c0,.833-4.116,1.509-9.195,1.509s-9.195-.676-9.195-1.509,4.117-1.508,9.195-1.508S262.509,279.824,262.509,280.656Z" transform="translate(-244.072 -279.1)" fill="#fedb61"/><path d="M253.21,282.108c-4.543,0-9.243-.583-9.243-1.557s4.7-1.556,9.243-1.556,9.242.582,9.242,1.556S257.753,282.108,253.21,282.108Zm0-3.018c-5.471,0-9.147.755-9.147,1.461s3.676,1.461,9.147,1.461,9.146-.756,9.146-1.461S258.681,279.091,253.21,279.091Z" transform="translate(-243.967 -278.995)" fill="#ed8f00"/><g transform="translate(1.678 0.315)"><path d="M264.472,281.245c0,.685-3.387,1.241-7.564,1.241s-7.564-.556-7.564-1.241S252.73,280,256.908,280,264.472,280.56,264.472,281.245Z" transform="translate(-249.344 -280.004)" fill="#febc27"/><g opacity="0.51" style="mix-blend-mode:multiply;isolation:isolate"><path d="M264.472,281.245c0,.685-3.387,1.241-7.564,1.241s-7.564-.556-7.564-1.241S252.73,280,256.908,280,264.472,280.56,264.472,281.245Z" transform="translate(-249.344 -280.004)" fill="#f2974c"/></g></g><g transform="translate(5.37 0.933)"><path d="M267.846,283.318c-.435.04-1.179.08-2,.08a16.391,16.391,0,0,1-3.126-.239,1.612,1.612,0,0,1-.718-.273h-.833v-.15h.705V282.7c0-.022.013-.042.013-.064h-.718v-.149h.859a2.435,2.435,0,0,1,.884-.286,16.766,16.766,0,0,1,2.961-.217c.769,0,1.461.029,1.922.063l-.359.239c-.333-.023-.871-.05-1.435-.05a8.893,8.893,0,0,0-1.563.113,1.179,1.179,0,0,0-.41.137h3.191v.149h-3.383a.116.116,0,0,0-.013.065v.033h3.4v.15H264a1.111,1.111,0,0,0,.423.147,10.037,10.037,0,0,0,1.653.107c.589,0,1.191-.032,1.461-.055Z" transform="translate(-261.169 -281.985)" fill="#ed8f00"/></g><g transform="translate(4.815 0.85)"><path d="M266.069,283.051c-.435.04-1.179.08-2,.08a16.373,16.373,0,0,1-3.127-.24,1.609,1.609,0,0,1-.717-.273h-.834v-.15h.705v-.036c0-.022.012-.042.012-.063h-.718v-.15h.859a2.446,2.446,0,0,1,.884-.286,16.776,16.776,0,0,1,2.961-.216c.769,0,1.461.029,1.922.063l-.359.24c-.333-.024-.872-.051-1.435-.051a8.8,8.8,0,0,0-1.563.113,1.18,1.18,0,0,0-.41.137h3.191v.15h-3.383a.113.113,0,0,0-.013.065v.033h3.4v.15h-3.216a1.111,1.111,0,0,0,.423.147,10.072,10.072,0,0,0,1.653.107c.59,0,1.191-.032,1.461-.055Z" transform="translate(-259.392 -281.718)" fill="#fedb61"/></g></g><g transform="translate(1.66 1.398)"><g transform="translate(0 1.482)"><path d="M249.438,273.874v2.4s1.7,1.391,9.195,1.391c0,0,5.718.154,9.2-1.469v-2.318s-2.241,1-9.2,1C258.633,274.879,252.606,274.879,249.438,273.874Z" transform="translate(-249.39 -273.8)" fill="#febc27"/><path d="M258.932,277.549c-.26,0-.407,0-.407,0-7.425,0-9.154-1.344-9.224-1.4l-.017-.014v-2.484l.062.02c3.124.99,9.12,1,9.18,1,6.864,0,9.153-.99,9.175-1l.068-.03v2.423l-.028.013C264.806,277.443,260.257,277.549,258.932,277.549Zm-9.552-1.467c.2.14,2.155,1.367,9.147,1.367,0,0,.147,0,.406,0,1.315,0,5.822-.105,8.741-1.456v-2.216c-.425.16-2.9.982-9.147.982-.06,0-5.992-.012-9.147-.988Z" transform="translate(-249.284 -273.637)" fill="#ed8f00"/></g><g transform="translate(0.048 1.543)"><g clip-path="url(#e)"><g transform="translate(-2.23 0.063)"><rect width="0.096" height="3.627" fill="#ed8f00" stroke="#ed8f00" stroke-miterlimit="10" stroke-width="0.25"/><g transform="translate(0.696)"><rect width="0.096" height="3.627" fill="#ed8f00" stroke="#ed8f00" stroke-miterlimit="10" stroke-width="0.25"/></g><g transform="translate(1.391)"><rect width="0.096" height="3.627" fill="#ed8f00" stroke="#ed8f00" stroke-miterlimit="10" stroke-width="0.25"/></g><g transform="translate(2.086)"><rect width="0.096" height="3.627" fill="#ed8f00" stroke="#ed8f00" stroke-miterlimit="10" stroke-width="0.25"/></g><g transform="translate(2.782)"><rect width="0.096" height="3.627" fill="#ed8f00" stroke="#ed8f00" stroke-miterlimit="10" stroke-width="0.25"/></g><g transform="translate(3.477)"><rect width="0.096" height="3.627" fill="#ed8f00" stroke="#ed8f00" stroke-miterlimit="10" stroke-width="0.25"/></g><g transform="translate(4.172)"><rect width="0.096" height="3.627" fill="#ed8f00" stroke="#ed8f00" stroke-miterlimit="10" stroke-width="0.25"/></g><g transform="translate(4.868)"><rect width="0.096" height="3.627" fill="#ed8f00" stroke="#ed8f00" stroke-miterlimit="10" stroke-width="0.25"/></g><g transform="translate(5.563)"><rect width="0.096" height="3.627" fill="#ed8f00" stroke="#ed8f00" stroke-miterlimit="10" stroke-width="0.25"/></g><g transform="translate(6.258)"><rect width="0.096" height="3.627" fill="#ed8f00" stroke="#ed8f00" stroke-miterlimit="10" stroke-width="0.25"/></g><g transform="translate(6.954)"><rect width="0.096" height="3.627" fill="#ed8f00" stroke="#ed8f00" stroke-miterlimit="10" stroke-width="0.25"/></g><g transform="translate(7.649)"><rect width="0.096" height="3.627" fill="#ed8f00" stroke="#ed8f00" stroke-miterlimit="10" stroke-width="0.25"/></g><g transform="translate(8.345)"><rect width="0.096" height="3.627" fill="#ed8f00" stroke="#ed8f00" stroke-miterlimit="10" stroke-width="0.25"/></g><g transform="translate(9.04)"><rect width="0.096" height="3.627" fill="#ed8f00" stroke="#ed8f00" stroke-miterlimit="10" stroke-width="0.25"/></g><g transform="translate(9.735)"><rect width="0.096" height="3.627" fill="#ed8f00" stroke="#ed8f00" stroke-miterlimit="10" stroke-width="0.25"/></g><g transform="translate(10.431)"><rect width="0.096" height="3.627" fill="#ed8f00" stroke="#ed8f00" stroke-miterlimit="10" stroke-width="0.25"/></g><g transform="translate(11.127)"><rect width="0.096" height="3.627" fill="#ed8f00" stroke="#ed8f00" stroke-miterlimit="10" stroke-width="0.25"/></g><g transform="translate(11.822)"><rect width="0.096" height="3.627" fill="#ed8f00" stroke="#ed8f00" stroke-miterlimit="10" stroke-width="0.25"/></g><g transform="translate(12.517)"><rect width="0.096" height="3.627" fill="#ed8f00" stroke="#ed8f00" stroke-miterlimit="10" stroke-width="0.25"/></g><g transform="translate(13.213)"><rect width="0.096" height="3.627" fill="#ed8f00" stroke="#ed8f00" stroke-miterlimit="10" stroke-width="0.25"/></g><g transform="translate(13.908)"><rect width="0.096" height="3.627" fill="#ed8f00" stroke="#ed8f00" stroke-miterlimit="10" stroke-width="0.25"/></g><g transform="translate(14.603)"><rect width="0.096" height="3.627" fill="#ed8f00" stroke="#ed8f00" stroke-miterlimit="10" stroke-width="0.25"/></g><g transform="translate(15.299)"><rect width="0.096" height="3.627" fill="#ed8f00" stroke="#ed8f00" stroke-miterlimit="10" stroke-width="0.25"/></g><g transform="translate(15.994)"><rect width="0.096" height="3.627" fill="#ed8f00" stroke="#ed8f00" stroke-miterlimit="10" stroke-width="0.25"/></g><g transform="translate(16.69)"><rect width="0.096" height="3.627" fill="#ed8f00" stroke="#ed8f00" stroke-miterlimit="10" stroke-width="0.25"/></g><g transform="translate(17.385)"><rect width="0.096" height="3.627" fill="#ed8f00" stroke="#ed8f00" stroke-miterlimit="10" stroke-width="0.25"/></g><g transform="translate(18.08)"><rect width="0.096" height="3.627" fill="#ed8f00" stroke="#ed8f00" stroke-miterlimit="10" stroke-width="0.25"/></g><g transform="translate(18.776)"><rect width="0.096" height="3.627" fill="#ed8f00" stroke="#ed8f00" stroke-miterlimit="10" stroke-width="0.25"/></g><g transform="translate(19.472)"><rect width="0.096" height="3.627" fill="#ed8f00" stroke="#ed8f00" stroke-miterlimit="10" stroke-width="0.25"/></g><g transform="translate(20.166)"><rect width="0.096" height="3.627" fill="#ed8f00" stroke="#ed8f00" stroke-miterlimit="10" stroke-width="0.25"/></g><g transform="translate(20.862)"><rect width="0.096" height="3.627" fill="#ed8f00" stroke="#ed8f00" stroke-miterlimit="10" stroke-width="0.25"/></g><g transform="translate(21.557)"><rect width="0.096" height="3.627" fill="#ed8f00" stroke="#ed8f00" stroke-miterlimit="10" stroke-width="0.25"/></g><g transform="translate(22.252)"><rect width="0.096" height="3.627" fill="#ed8f00" stroke="#ed8f00" stroke-miterlimit="10" stroke-width="0.25"/></g></g></g><path d="M249.438,273.832v2.4s1.7,1.391,9.195,1.391c0,0,5.718.154,9.2-1.468v-2.318s-2.241,1-9.2,1C258.633,274.837,252.606,274.836,249.438,273.832Z" transform="translate(-249.438 -273.832)" fill="none" stroke="#ed8f00" stroke-miterlimit="10" stroke-width="0.25"/></g><path d="M267.828,270.55c0,.833-4.117,1.509-9.195,1.509s-9.195-.676-9.195-1.509,4.117-1.508,9.195-1.508S267.828,269.717,267.828,270.55Z" transform="translate(-249.39 -268.994)" fill="#fedb61"/><path d="M258.527,272c-4.543,0-9.243-.583-9.243-1.557s4.7-1.556,9.243-1.556,9.243.582,9.243,1.556S263.07,272,258.527,272Zm0-3.017c-5.472,0-9.147.755-9.147,1.46s3.675,1.461,9.147,1.461,9.147-.755,9.147-1.461S264,268.985,258.527,268.985Z" transform="translate(-249.284 -268.889)" fill="#ed8f00"/><g transform="translate(1.679 0.315)"><path d="M269.79,271.139c0,.686-3.387,1.241-7.564,1.241s-7.564-.556-7.564-1.241,3.386-1.241,7.564-1.241S269.79,270.454,269.79,271.139Z" transform="translate(-254.662 -269.898)" fill="#febc27"/><g opacity="0.51" style="mix-blend-mode:multiply;isolation:isolate"><path d="M269.79,271.139c0,.686-3.387,1.241-7.564,1.241s-7.564-.556-7.564-1.241,3.386-1.241,7.564-1.241S269.79,270.454,269.79,271.139Z" transform="translate(-254.662 -269.898)" fill="#f2974c"/></g></g><g transform="translate(5.37 0.933)"><path d="M273.164,273.212c-.436.04-1.179.08-2,.08a16.393,16.393,0,0,1-3.126-.239,1.613,1.613,0,0,1-.718-.273h-.833v-.15h.705v-.035c0-.022.013-.043.013-.064h-.718v-.149h.859a2.431,2.431,0,0,1,.884-.286,16.759,16.759,0,0,1,2.96-.217c.769,0,1.461.029,1.922.063l-.359.239c-.333-.023-.871-.05-1.435-.05a8.9,8.9,0,0,0-1.563.113,1.176,1.176,0,0,0-.41.137h3.191v.149h-3.383a.113.113,0,0,0-.013.065v.033h3.4v.15h-3.216a1.109,1.109,0,0,0,.423.147,10.023,10.023,0,0,0,1.653.107c.589,0,1.192-.032,1.461-.055Z" transform="translate(-266.487 -271.879)" fill="#ed8f00"/></g><g transform="translate(4.816 0.85)"><path d="M271.388,272.945c-.436.04-1.179.08-2,.08a16.371,16.371,0,0,1-3.127-.24,1.612,1.612,0,0,1-.718-.273h-.833v-.15h.705v-.036c0-.022.013-.042.013-.063h-.718v-.15h.859a2.441,2.441,0,0,1,.884-.286,16.773,16.773,0,0,1,2.96-.216c.769,0,1.461.029,1.922.063l-.359.24c-.333-.024-.871-.051-1.435-.051a8.811,8.811,0,0,0-1.563.113,1.18,1.18,0,0,0-.41.137h3.191v.15h-3.383a.113.113,0,0,0-.013.065v.033h3.4v.15h-3.216a1.114,1.114,0,0,0,.423.147,10.071,10.071,0,0,0,1.653.107c.59,0,1.192-.032,1.461-.055Z" transform="translate(-264.711 -271.612)" fill="#fedb61"/></g></g><g transform="translate(17.654)"><g transform="translate(0 0.022)"><path d="M302.631,264.728l-1.956,1.384s-.153,2.191,4.176,8.309c0,0,3.177,4.756,6.51,6.657l1.892-1.339s-2.115-1.249-6.132-6.926C307.122,272.814,303.641,267.894,302.631,264.728Z" transform="translate(-300.627 -264.651)" fill="#febc27"/><path d="M304.938,274.613c-.15-.213-.232-.335-.232-.335-4.289-6.061-4.19-8.248-4.184-8.339l0-.022,2.027-1.435.02.062c1,3.123,4.45,8.024,4.485,8.073,3.965,5.6,6.1,6.9,6.117,6.911l.064.038-1.977,1.4-.027-.016C308.418,279.346,305.7,275.694,304.938,274.613Zm-4.32-8.645c0,.244.129,2.549,4.167,8.256,0,0,.082.123.231.334.759,1.073,3.449,4.691,6.238,6.294l1.809-1.28c-.376-.254-2.479-1.8-6.085-6.9-.034-.049-3.452-4.9-4.477-8.036Z" transform="translate(-300.521 -264.482)" fill="#ed8f00"/></g><g transform="translate(0.059 0.091)"><g clip-path="url(#f)"><g transform="translate(-2.343 -1.785)"><g transform="translate(0 0)"><rect width="3.627" height="0.096" transform="matrix(0.816, -0.578, 0.578, 0.816, 0, 2.097)" fill="#ed8f00" stroke="#ed8f00" stroke-miterlimit="10" stroke-width="0.25"/></g><g transform="translate(0.401 0.569)"><rect width="3.627" height="0.096" transform="matrix(0.816, -0.578, 0.578, 0.816, 0, 2.095)" fill="#ed8f00" stroke="#ed8f00" stroke-miterlimit="10" stroke-width="0.25"/></g><g transform="translate(0.803 1.137)"><rect width="3.627" height="0.096" transform="matrix(0.817, -0.577, 0.577, 0.817, 0, 2.094)" fill="#ed8f00" stroke="#ed8f00" stroke-miterlimit="10" stroke-width="0.25"/></g><g transform="translate(1.205 1.702)"><rect width="3.627" height="0.096" transform="matrix(0.816, -0.578, 0.578, 0.816, 0, 2.098)" fill="#ed8f00" stroke="#ed8f00" stroke-miterlimit="10" stroke-width="0.25"/></g><g transform="translate(1.606 2.272)"><path d="M298.4,268.436l-.055-.078,2.961-2.1.055.078Z" transform="translate(-298.348 -266.262)" fill="#ed8f00" stroke="#ed8f00" stroke-miterlimit="10" stroke-width="0.25"/></g><g transform="translate(2.008 2.839)"><rect width="3.627" height="0.096" transform="translate(0 2.096) rotate(-35.308)" fill="#ed8f00" stroke="#ed8f00" stroke-miterlimit="10" stroke-width="0.25"/></g><g transform="translate(2.409 3.407)"><rect width="3.627" height="0.096" transform="translate(0 2.094) rotate(-35.265)" fill="#ed8f00" stroke="#ed8f00" stroke-miterlimit="10" stroke-width="0.25"/></g><g transform="translate(2.811 3.975)"><rect width="3.627" height="0.096" transform="translate(0 2.094) rotate(-35.269)" fill="#ed8f00" stroke="#ed8f00" stroke-miterlimit="10" stroke-width="0.25"/></g><g transform="translate(3.213 4.542)"><rect width="3.627" height="0.096" transform="matrix(0.816, -0.578, 0.578, 0.816, 0, 2.095)" fill="#ed8f00" stroke="#ed8f00" stroke-miterlimit="10" stroke-width="0.25"/></g><g transform="translate(3.615 5.11)"><path d="M304.838,277.528l-.055-.079,2.961-2.1.055.079Z" transform="translate(-304.782 -275.354)" fill="#ed8f00" stroke="#ed8f00" stroke-miterlimit="10" stroke-width="0.25"/></g><g transform="translate(4.016 5.677)"><rect width="3.627" height="0.096" transform="translate(0 2.095) rotate(-35.281)" fill="#ed8f00" stroke="#ed8f00" stroke-miterlimit="10" stroke-width="0.25"/></g><g transform="translate(4.418 6.246)"><rect width="3.627" height="0.096" transform="matrix(0.817, -0.577, 0.577, 0.817, 0, 2.094)" fill="#ed8f00" stroke="#ed8f00" stroke-miterlimit="10" stroke-width="0.25"/></g><g transform="translate(4.819 6.813)"><rect width="3.627" height="0.096" transform="matrix(0.817, -0.577, 0.577, 0.817, 0, 2.094)" fill="#ed8f00" stroke="#ed8f00" stroke-miterlimit="10" stroke-width="0.25"/></g><g transform="translate(5.221 7.381)"><rect width="3.627" height="0.096" transform="translate(0 2.094) rotate(-35.259)" fill="#ed8f00" stroke="#ed8f00" stroke-miterlimit="10" stroke-width="0.25"/></g><g transform="translate(5.623 7.948)"><rect width="3.627" height="0.096" transform="matrix(0.816, -0.578, 0.578, 0.816, 0, 2.096)" fill="#ed8f00" stroke="#ed8f00" stroke-miterlimit="10" stroke-width="0.25"/></g><g transform="translate(6.026 8.515)"><rect width="3.627" height="0.096" transform="matrix(0.816, -0.578, 0.578, 0.816, 0, 2.097)" fill="#ed8f00" stroke="#ed8f00" stroke-miterlimit="10" stroke-width="0.25"/></g><g transform="translate(6.428 9.081)"><rect width="3.627" height="0.096" transform="translate(0 2.1) rotate(-35.371)" fill="#ed8f00" stroke="#ed8f00" stroke-miterlimit="10" stroke-width="0.25"/></g><g transform="translate(6.828 9.65)"><rect width="3.627" height="0.096" transform="translate(0 2.096) rotate(-35.301)" fill="#ed8f00" stroke="#ed8f00" stroke-miterlimit="10" stroke-width="0.25"/></g><g transform="translate(7.229 10.22)"><rect width="3.627" height="0.096" transform="translate(0 2.093) rotate(-35.246)" fill="#ed8f00" stroke="#ed8f00" stroke-miterlimit="10" stroke-width="0.25"/></g><g transform="translate(7.631 10.787)"><rect width="3.627" height="0.096" transform="matrix(0.817, -0.577, 0.577, 0.817, 0, 2.094)" fill="#ed8f00" stroke="#ed8f00" stroke-miterlimit="10" stroke-width="0.25"/></g><g transform="translate(8.033 11.354)"><rect width="3.627" height="0.096" transform="matrix(0.816, -0.578, 0.578, 0.816, 0, 2.095)" fill="#ed8f00" stroke="#ed8f00" stroke-miterlimit="10" stroke-width="0.25"/></g><g transform="translate(8.434 11.923)"><rect width="3.627" height="0.096" transform="translate(0 2.093) rotate(-35.241)" fill="#ed8f00" stroke="#ed8f00" stroke-miterlimit="10" stroke-width="0.25"/></g><g transform="translate(8.837 12.489)"><rect width="3.627" height="0.096" transform="matrix(0.816, -0.578, 0.578, 0.816, 0, 2.095)" fill="#ed8f00" stroke="#ed8f00" stroke-miterlimit="10" stroke-width="0.25"/></g><g transform="translate(9.238 13.057)"><path d="M322.854,302.986l-.055-.078,2.961-2.1.055.078Z" transform="translate(-322.799 -300.813)" fill="#ed8f00" stroke="#ed8f00" stroke-miterlimit="10" stroke-width="0.25"/></g><g transform="translate(9.641 13.624)"><rect width="3.627" height="0.096" transform="matrix(0.816, -0.578, 0.578, 0.816, 0, 2.097)" fill="#ed8f00" stroke="#ed8f00" stroke-miterlimit="10" stroke-width="0.25"/></g><g transform="translate(10.043 14.19)"><rect width="3.627" height="0.096" transform="matrix(0.816, -0.579, 0.579, 0.816, 0, 2.099)" fill="#ed8f00" stroke="#ed8f00" stroke-miterlimit="10" stroke-width="0.25"/></g><g transform="translate(10.444 14.759)"><rect width="3.627" height="0.096" transform="matrix(0.816, -0.578, 0.578, 0.816, 0, 2.096)" fill="#ed8f00" stroke="#ed8f00" stroke-miterlimit="10" stroke-width="0.25"/></g><g transform="translate(10.846 15.326)"><rect width="3.627" height="0.096" transform="translate(0 2.098) rotate(-35.344)" fill="#ed8f00" stroke="#ed8f00" stroke-miterlimit="10" stroke-width="0.25"/></g><g transform="translate(11.247 15.895)"><path d="M329.289,312.079l-.055-.078,2.96-2.1.055.078Z" transform="translate(-329.234 -309.906)" fill="#ed8f00" stroke="#ed8f00" stroke-miterlimit="10" stroke-width="0.25"/></g><g transform="translate(11.649 16.462)"><rect width="3.627" height="0.096" transform="matrix(0.816, -0.578, 0.578, 0.816, 0, 2.097)" fill="#ed8f00" stroke="#ed8f00" stroke-miterlimit="10" stroke-width="0.25"/></g><g transform="translate(12.049 17.031)"><rect width="3.627" height="0.096" transform="matrix(0.817, -0.577, 0.577, 0.817, 0, 2.093)" fill="#ed8f00" stroke="#ed8f00" stroke-miterlimit="10" stroke-width="0.25"/></g><g transform="translate(12.451 17.598)"><rect width="3.627" height="0.096" transform="translate(0 2.094) rotate(-35.261)" fill="#ed8f00" stroke="#ed8f00" stroke-miterlimit="10" stroke-width="0.25"/></g><g transform="translate(12.853 18.166)"><rect width="3.627" height="0.096" transform="matrix(0.817, -0.577, 0.577, 0.817, 0, 2.094)" fill="#ed8f00" stroke="#ed8f00" stroke-miterlimit="10" stroke-width="0.25"/></g></g></g><path d="M302.666,264.7l-1.955,1.384s-.154,2.191,4.176,8.309c0,0,3.177,4.756,6.51,6.657l1.892-1.339s-2.115-1.249-6.131-6.926C307.157,272.79,303.676,267.87,302.666,264.7Z" transform="translate(-300.71 -264.704)" fill="none" stroke="#ed8f00" stroke-miterlimit="10" stroke-width="0.25"/></g><g transform="translate(1.814)"><path d="M317.251,279.627c-.68.481-3.609-2.488-6.543-6.634s-4.76-7.9-4.08-8.378,3.609,2.489,6.543,6.635S317.931,279.146,317.251,279.627Z" transform="translate(-306.438 -264.517)" fill="#fedb61"/><path d="M310.562,272.915c-2.625-3.709-4.864-7.881-4.068-8.444s3.985,2.937,6.61,6.646,4.864,7.881,4.069,8.444S313.187,276.624,310.562,272.915Zm2.463-1.743c-3.161-4.466-5.9-7.03-6.476-6.622s.931,3.844,4.091,8.31,5.9,7.03,6.476,6.622S316.186,275.638,313.025,271.172Z" transform="translate(-306.331 -264.411)" fill="#ed8f00"/><g transform="translate(1.016 1.388)"><path d="M318.441,281.249c-.56.4-2.97-2.047-5.383-5.457s-3.916-6.5-3.356-6.892,2.969,2.047,5.383,5.458S319,280.852,318.441,281.249Z" transform="translate(-309.585 -268.857)" fill="#febc27"/><g opacity="0.51" style="mix-blend-mode:multiply;isolation:isolate"><path d="M318.441,281.249c-.56.4-2.97-2.047-5.383-5.457s-3.916-6.5-3.356-6.892,2.969,2.047,5.383,5.458S319,280.852,318.441,281.249Z" transform="translate(-309.585 -268.857)" fill="#f2974c"/></g></g><g transform="translate(3.039 4.374)"><path d="M319.569,284.353c-.284-.332-.746-.916-1.22-1.586a16.386,16.386,0,0,1-1.61-2.69,1.611,1.611,0,0,1-.191-.744l-.481-.68.122-.087.407.576.029-.02c.017-.012.042-.014.059-.027l-.415-.586.122-.086.5.7a2.423,2.423,0,0,1,.744.557,16.769,16.769,0,0,1,1.887,2.291c.444.628.82,1.209,1.059,1.606l-.4-.155c-.174-.285-.463-.74-.789-1.2a8.863,8.863,0,0,0-1-1.211,1.181,1.181,0,0,0-.349-.256l1.843,2.6-.122.086-1.954-2.762a.114.114,0,0,0-.061.027l-.027.019,1.962,2.772-.122.086-1.858-2.625a1.112,1.112,0,0,0,.125.43,10.021,10.021,0,0,0,.867,1.411c.34.481.714.954.889,1.161Z" transform="translate(-316.066 -278.423)" fill="#ed8f00"/></g><g transform="translate(2.787 3.873)"><path d="M318.762,282.749c-.284-.332-.746-.916-1.22-1.585a16.362,16.362,0,0,1-1.61-2.691,1.611,1.611,0,0,1-.192-.743l-.481-.68.122-.086.407.576.029-.021c.017-.012.041-.014.059-.026l-.415-.586.122-.086.5.7a2.44,2.44,0,0,1,.744.556,16.761,16.761,0,0,1,1.886,2.292c.444.628.82,1.21,1.059,1.605l-.4-.155c-.173-.285-.462-.74-.788-1.2a8.8,8.8,0,0,0-1-1.211,1.189,1.189,0,0,0-.349-.256l1.843,2.6-.122.086L317,279.081a.113.113,0,0,0-.061.027l-.027.019,1.962,2.772-.122.086-1.858-2.626a1.114,1.114,0,0,0,.124.43,10.078,10.078,0,0,0,.867,1.411c.341.481.714.954.889,1.161Z" transform="translate(-315.258 -276.819)" fill="#fedb61"/></g></g></g></g></g><g transform="translate(-6 24.912)" clip-path="url(#g)"><g transform="translate(1411.908 61.5)"><g transform="translate(39.17 107.579)"><path d="M153.674,268.816l.42-13.562s.426-.559,1.16-1.489c.3-.088.605-.176.908-.266h1.788a8.534,8.534,0,0,1,3.367,6.754A8.781,8.781,0,0,1,153.674,268.816Z" transform="translate(-153.674 -251.664)" fill="#002a4d"/><path d="M195.444,294.162c2.613-.307,5.186-.782,7.759-1.265.688-15.587,1.693-38.071.358-40.914a5.092,5.092,0,0,0-2.277-2.237c-.071.013-.133.038-.206.048l-17.166,2.331a55.018,55.018,0,0,1-5.443,2.247l7.512,40.8C189.137,294.844,192.294,294.533,195.444,294.162Z" transform="translate(-166.468 -249.747)" fill="#002c72"/></g><g transform="translate(38.222 105.879)"><path d="M158.9,298.042c1.126-.178,2.253-.353,3.383-.519,1.77-.259,3.542-.484,5.317-.692,1.938-13.552,5.574-38.546,5.081-44.832H155.038c-1.213,1.518-1.954,2.49-1.954,2.49l-1.367,44.193Q155.3,298.317,158.9,298.042Z" transform="translate(-151.717 -249.197)" fill="#002c72"/><path d="M175.559,260.827a1.875,1.875,0,0,0,1.91-1.838V248.111a1.912,1.912,0,0,0-3.821,0v10.878A1.875,1.875,0,0,0,175.559,260.827Z" transform="translate(-163.033 -246.273)" fill="#002a4d"/><path d="M218.713,267.141a9.351,9.351,0,0,1-2.256.285,8.851,8.851,0,0,1-9.019-8.673A8.534,8.534,0,0,1,210.806,252h1.788a58.073,58.073,0,0,0,5.8,1.494Z" transform="translate(-180.468 -249.197)" fill="#002a4d"/><path d="M190.815,255.247c-.668.092-22.186,4.183-36.768,6.961l.239-7.728s.742-.971,1.954-2.49h11.231a1.118,1.118,0,0,1,.237,0h17.336a58.063,58.063,0,0,0,5.8,1.494l.037,1.6Z" transform="translate(-152.919 -249.189)" fill="#002a4d"/><path d="M184.643,298.044c-3.543-5.325-5.525-14.853-4.86-14.96s3.233,6.141,3.233,6.141Z" transform="translate(-166.133 -265.072)" fill="#002a4d"/></g><g transform="translate(8.722 43.5)"><path d="M114.049,158.859l-.491-.129-.288-.091-.525-.178c-.317-.117-.581-.229-.871-.348-.576-.235-1.032-.482-1.547-.73a25.785,25.785,0,0,1-2.656-1.621l-.621-.427c-.2-.147-.385-.3-.576-.449l-1.136-.908q-1.061-.945-2.059-1.922a37.671,37.671,0,0,1-6.193-8.5l-.605-1.114-.3-.556-.257-.567-1.02-2.267c-.363-.75-.6-1.523-.892-2.286l-.83-2.293c-.446-1.543-.9-3.083-1.31-4.623l-1-4.639a5.457,5.457,0,0,1,4.36-6.273,5.35,5.35,0,0,1,6.393,3.315l.107.334,1.273,3.949c.488,1.28,1,2.54,1.5,3.8l.877,1.811c.3.6.554,1.223.906,1.778l.985,1.708.244.426.276.4.547.8a26.411,26.411,0,0,0,4.908,5.536c.459.36.92.707,1.375,1.046l.7.447.347.224.35.184a12.164,12.164,0,0,0,1.35.65c.2.058.429.165.584.2l.223.058a.5.5,0,0,0-.179-.065,6.5,6.5,0,0,1,5.069,8.213A7.729,7.729,0,0,1,114.049,158.859Z" transform="translate(-90.767 -118.786)" fill="#fff"/><path d="M148.234,124.781s-7.619,14.11-12.137,22.362,8.733,11.92,8.733,11.92,6.086-8.488,7.844-14.782,1.163-17.14,1.163-17.14Z" transform="translate(-113.672 -121.848)" fill="#fff"/><path d="M136.438,165.9c-.242-.2-.479-.405-.714-.618l-.024.05,2.653,5.947-.135-7.25c-.465.76-.908,1.505-1.317,2.223C136.746,166.13,136.592,166.017,136.438,165.9Z" transform="translate(-113.951 -141.89)" fill="#e0e0e0" opacity="0.65"/></g><g transform="translate(39.373 38.977)"><path d="M154.094,181.452s.548-10.549,1.173-21.18c.911-15.478-.56-37.267,2.737-43.274,4.25-7.745,16.406-8.4,26.594-6.663s9.343,22.829,5.3,71.079C184.734,179.892,154.094,181.452,154.094,181.452Z" transform="translate(-154.094 -109.54)" fill="#498ae8"/><path d="M185.247,217.213s-1.56,15.243-3.578,16.239a64.186,64.186,0,0,1-8.021,2.489H184.04Z" transform="translate(-164.184 -164.529)" fill="#0b54d5"/><g transform="translate(0.09 70.479)"><path d="M154.28,258.75h36.79l.034-3.636h-36.79Z" transform="translate(-154.28 -254.364)" fill="#04121e"/><g transform="translate(5.154)"><path d="M165.508,258.134a1.877,1.877,0,0,1-.579-1.376l.016-1.7a1.52,1.52,0,0,1,1.539-1.477h6.387a2,2,0,0,1,1.405.563,1.877,1.877,0,0,1,.579,1.376l-.012,1.243a1.99,1.99,0,0,1-2.014,1.933h-5.918A2,2,0,0,1,165.508,258.134Zm.976-3.9a.848.848,0,0,0-.856.826l-.016,1.7a1.239,1.239,0,0,0,.381.908,1.312,1.312,0,0,0,.919.368h5.918a1.317,1.317,0,0,0,1.331-1.282l.012-1.243a1.241,1.241,0,0,0-.381-.908,1.313,1.313,0,0,0-.92-.368Z" transform="translate(-164.929 -253.582)" fill="#fdcf30"/><g transform="translate(4.22 2.263)"><path d="M173.99,258.866h4.974a.329.329,0,1,0,0-.658H173.99a.329.329,0,1,0,0,.658Z" transform="translate(-173.648 -258.208)" fill="#fdcf30"/></g></g></g></g><g transform="translate(57.662 38.749)"><path d="M192.391,194.32s2.976-44.654,4.067-52.422c0,0,6.533-23.35,6.708-32.058,0,0,7.074.109,11.618,5.073s-6.389,59.163-1.15,73.747,1.242,11.115,1.242,11.115l-23-1.22Z" transform="translate(-191.881 -109.466)" fill="#fff"/><path d="M217.217,270.16s-2.176-5.718-2.5-7.272-.859-4.771-.859-4.771-11.654,2.011-11.265,2-.222,3.908-3.763,8.065a30.027,30.027,0,0,1-3.986,3.166Z" transform="translate(-193.408 -185.192)" fill="#e0e0e0"/><path d="M229.6,171.781s-1.307-5.069-2.42-6.007c0,0,.31,21.3-6.266,30.936a7.183,7.183,0,0,1,1.711-.073l1.054.114s3.94-3.687,4.015-5.117S229.6,171.781,229.6,171.781Z" transform="translate(-206.862 -138.032)" fill="#e0e0e0" opacity="0.65"/><path d="M207.934,109.075s-1.755,13.894-3.781,21.221c-.9,3.241-3,11.909-3,11.909s5.892-9.94,6.826-12.875,2.873-6.64.935-8.18c-.911-.724.435-4.3.662-4.726a12.776,12.776,0,0,0,.747-4.726C210.1,110.338,207.934,109.075,207.934,109.075Z" transform="translate(-196.663 -109.075)" fill="#d5dddd"/></g><g transform="translate(63.885 40.169)"><path d="M217.169,112.078c2.727-.064,4.1.4,5.1,1.218.128.1,3.4,2.429,3.905,2.977,1.013,1.092,3.267,4.392,4.187,5.544,1.841,2.3,6.41,12.654,7.306,15.349.224.674.366,1.341.523,2.006s.3,1.379.414,2.013.273,1.488.373,2a9.056,9.056,0,0,1,.151,1.137c.033.376.075.825.091,1.1a46.583,46.583,0,0,1-.289,8.557,33.59,33.59,0,0,1-10.406,21.6,6.168,6.168,0,0,1-8,.458c-2.438-1.852-2.081-4.208-.6-6.534a.52.52,0,0,1,.044-.038c2.868-3.02,5.078-5.9,6.214-9.9a26.506,26.506,0,0,0,.817-6.136,33.434,33.434,0,0,0-.364-6.058c-.026-.191-.084-.456-.128-.721s-.078-.429-.137-.813-.168-1.059-.285-1.533-.254-.993-.4-1.49-.275-1.054-.452-1.556a29.42,29.42,0,0,0-2.675-5.738,28.319,28.319,0,0,0-3.974-5.085c-.762-.772-1.574-1.476-2.367-2.2-.394-.362-.836-.706-1.221-1.045-.194-.17-.435-.354-.584-.479s-.209-.148-.3-.242.822-4.489,1.114-9.539C215.456,112.877,215.561,111.579,217.169,112.078Z" transform="translate(-209.569 -111.977)" fill="#fff"/><g transform="translate(2.382 59.369)"><path d="M212.034,236.817a8.233,8.233,0,0,0-2.339,4.648,1.606,1.606,0,0,0-.033.351c.193.9,1.435,1.347,1.944.627a27.542,27.542,0,0,0,.635-2.734,5.341,5.341,0,0,0-.315,2.67,2.042,2.042,0,0,0,1.685,1.672l.3.038-.036-.13a4.057,4.057,0,0,1,.086-2.445l.321-.89s-1.109,3.068.114,3.929,1.468.2,1.468.2a3.941,3.941,0,0,1,.654-2.993s-1.73,4,.5,4.56c1.78.445,3.4-2.041,3.987-3.065a.617.617,0,0,0-.1-.738h0a.7.7,0,0,0-.763-.148l-1.38.584,3.216-2.526a3.907,3.907,0,0,0,1.285-3.861l-.289-1.365-2.553-1.168a6.035,6.035,0,0,0-6.818,1.261Z" transform="translate(-209.66 -233.398)" fill="#ff8e77" opacity="0.46"/><path d="M213.1,236.652a8.233,8.233,0,0,0-2.339,4.648,1.547,1.547,0,0,0-.033.351c.193.9,1.435,1.347,1.944.627a27.54,27.54,0,0,0,.635-2.734,5.34,5.34,0,0,0-.315,2.67,2.041,2.041,0,0,0,1.685,1.672l.3.038-.036-.13a4.05,4.05,0,0,1,.086-2.445l.321-.89s-1.109,3.068.114,3.929,1.469.2,1.469.2a3.942,3.942,0,0,1,.654-2.994s-1.73,4,.5,4.561c1.78.445,3.4-2.041,3.987-3.065a.617.617,0,0,0-.1-.738h0a.7.7,0,0,0-.764-.149l-1.379.584,3.216-2.526a3.907,3.907,0,0,0,1.285-3.861l-.29-1.365-2.553-1.168a6.034,6.034,0,0,0-6.817,1.261Z" transform="translate(-210.209 -233.314)" fill="#fdbea6"/><path d="M224.652,248.893a2.721,2.721,0,0,0-.59.717,3.868,3.868,0,0,0-.381.9,4.6,4.6,0,0,0-.1.488c-.011.083-.028.165-.035.249l-.017.252a1.986,1.986,0,0,0-.007.252l0,.253c.008.168.027.337.04.5v.016a.147.147,0,0,1-.122.165.142.142,0,0,1-.145-.141v0c-.011-.178-.028-.356-.034-.534l0-.269a2.256,2.256,0,0,1,.011-.268l.023-.267c.009-.089.028-.177.041-.265a4.868,4.868,0,0,1,.118-.52,4.137,4.137,0,0,1,.424-.957,2.9,2.9,0,0,1,.662-.771.1.1,0,0,1,.143.03.129.129,0,0,1-.024.162Z" transform="translate(-216.678 -241.158)" fill="#ff8970"/><path d="M219.893,247.217a2.994,2.994,0,0,0-.43.865,4.112,4.112,0,0,0-.186.982,4.621,4.621,0,0,0,0,.5c.006.084.007.168.017.251l.034.25a2.165,2.165,0,0,0,.045.248l.054.246c.043.162.1.321.142.481l0,.015a.158.158,0,0,1-.085.193.132.132,0,0,1-.17-.1v0c-.045-.171-.1-.341-.137-.513l-.05-.262a2.281,2.281,0,0,1-.041-.264l-.029-.266c-.009-.089-.008-.179-.012-.269a4.83,4.83,0,0,1,.014-.536,4.327,4.327,0,0,1,.226-1.038,3.146,3.146,0,0,1,.489-.913.072.072,0,0,1,.112-.005.1.1,0,0,1,.007.126Z" transform="translate(-214.503 -240.334)" fill="#ff8970"/><path d="M216.019,244.653a2.92,2.92,0,0,0-.486.825,4.054,4.054,0,0,0-.25.962,4.733,4.733,0,0,0-.033.5c0,.084,0,.168,0,.252l.018.252a1.991,1.991,0,0,0,.029.251l.038.25c.032.165.074.328.11.492l0,.015a.156.156,0,0,1-.1.186.135.135,0,0,1-.163-.113v0c-.034-.174-.073-.347-.1-.523l-.032-.266a2.242,2.242,0,0,1-.024-.267l-.012-.268c0-.09,0-.179.007-.269a4.913,4.913,0,0,1,.049-.533,4.292,4.292,0,0,1,.293-1.015,3.053,3.053,0,0,1,.549-.868.072.072,0,0,1,.112,0,.1.1,0,0,1,0,.126Z" transform="translate(-212.423 -239.022)" fill="#ff8970"/></g><path d="M219.005,249.371a35.269,35.269,0,0,1-6.7-1.577c-2.736-.963-4.922-2-7.231-2.97,0,0-2.115,11.521,4.209,12.6C215,258.4,220.051,258.309,219.005,249.371Z" transform="translate(-204.738 -179.823)" fill="#eee"/></g><g transform="translate(45.917 36.734)"><path d="M187.952,145.772l.759-.275c-.036-.092-3.572-9.242-.631-13.942a5.969,5.969,0,0,1,4.615-2.675l.4-.049-.044-.382a75.715,75.715,0,0,1,.161-9.606c.387-7.429-.273-11.293-2.206-12.917-1.709-1.436-4.139-1-7.217-.446a45.028,45.028,0,0,1-4.608.657c-9.251.707-11.473,17.113-11.563,17.811l.805.1c.021-.165,2.227-16.473,10.822-17.129a45.809,45.809,0,0,0,4.693-.668c2.861-.514,5.121-.92,6.533.267,1.7,1.431,2.3,5.221,1.929,12.291-.309,5.93-.237,8.481-.186,9.355a6.624,6.624,0,0,0-4.827,2.995C184.241,136.179,187.8,145.383,187.952,145.772Z" transform="translate(-167.614 -104.956)" fill="#a0c1e4"/></g><g transform="translate(44.422)"><g transform="translate(9.418 27.345)"><path d="M199.127,87.905a86.736,86.736,0,0,1-.109,9.911c-.529,5.093-2.453,6.8-7.857,6.776-9.465-.044-4-13.455-7.177-18.824C188.019,85.976,199.127,87.905,199.127,87.905Z" transform="translate(-183.984 -85.768)" fill="#fdbea6"/><path d="M199.127,87.905s.039.449.067,1.2q-.105.346-.211.675a13.249,13.249,0,0,1-9.916,9.166s-2.127.411-3.6.545c-.831-4.97.3-10.708-1.484-13.727C188.019,85.976,199.127,87.905,199.127,87.905Z" transform="translate(-183.984 -85.768)" fill="#ff8e77" opacity="0.46"/></g><g transform="translate(4.747 10.682)"><path d="M209.449,81.242a3.792,3.792,0,0,1,3.731-3.812,3.729,3.729,0,0,1,3.927,3.556,3.792,3.792,0,0,1-3.731,3.812A3.73,3.73,0,0,1,209.449,81.242Z" transform="translate(-192.452 -64.845)" fill="#fdbea6"/><path d="M182.405,78.1l3.461-.115a9.628,9.628,0,0,0,9.475-9.681l-.19-7.136c-.144-5.411-2.657-9.558-10.444-9.456l-10.375.346.511,19.2A7.18,7.18,0,0,0,182.405,78.1Z" transform="translate(-174.333 -51.712)" fill="#fdbea6"/><path d="M214.454,73.462c-.573-.535-1.05-2.184-1.589-2.747.915-2.351,1.321-2.971.561-5.6,2.293-3.092.836-2.227,1.668-1.34s.035,6.227.035,6.227S214.676,72.117,214.454,73.462Z" transform="translate(-194.215 -57.448)" fill="#04121e"/><path d="M182.4,88.292c-.2-1.938,1.847-.022,4.1-.238s3.873-2.485,4.073-.547a3.815,3.815,0,0,1-3.725,3.9A3.887,3.887,0,0,1,182.4,88.292Z" transform="translate(-178.488 -69.596)" fill="#fff"/><g transform="translate(3.197 8.67)"><path d="M195.621,75.052a.558.558,0,1,0,.613-.5A.563.563,0,0,0,195.621,75.052Z" transform="translate(-188.512 -72.044)" fill="#1c191a"/><path d="M181.678,74.7a.558.558,0,1,0,.614-.5A.562.562,0,0,0,181.678,74.7Z" transform="translate(-181.318 -71.865)" fill="#1c191a"/><path d="M188.674,75.064c.072.01.146.018.22.022a5.651,5.651,0,0,0,1.085-.062.137.137,0,0,0-.039-.271,5.383,5.383,0,0,1-1.033.059,1.591,1.591,0,0,1-1.29-.665.949.949,0,0,1-.091-.876l1.434-3.652a.137.137,0,0,0-.076-.178.134.134,0,0,0-.176.077l-1.434,3.652a1.219,1.219,0,0,0,.115,1.125A1.809,1.809,0,0,0,188.674,75.064Z" transform="translate(-184.162 -69.431)" fill="#ff8e77"/><path d="M195.141,77.043a.133.133,0,0,0,.1-.023c.679-.483,1.089-.029,1.106-.009a.135.135,0,0,0,.191.013.138.138,0,0,0,.014-.192,1.054,1.054,0,0,0-1.467-.035.138.138,0,0,0-.033.19A.134.134,0,0,0,195.141,77.043Z" transform="translate(-188.207 -73.053)" fill="#ff8e77"/><path d="M181.054,76.563a.134.134,0,0,0,.1-.023c.678-.483,1.089-.029,1.105-.01a.135.135,0,0,0,.191.013.138.138,0,0,0,.014-.192A1.053,1.053,0,0,0,181,76.315a.137.137,0,0,0-.032.19A.133.133,0,0,0,181.054,76.563Z" transform="translate(-180.938 -72.808)" fill="#ff8e77"/></g></g><path d="M171.288,33.936c4.285-3.839,11.977.375,14.217.375,1.232,0,3.253.191,4.822.363a6.757,6.757,0,0,1,4.277,2.148,10.883,10.883,0,0,1,2.1,3.237c1.991,4.745-1.837,15.005-1.837,15.005l-.227-.106a7.885,7.885,0,0,0-2.34-.673l-1.514-.048s0-10.545-2.847-10.577c-.743-.008-7.125.308-9.62.376-.473.013-.943.005-1.415-.022l-5.056-.291S166.817,37.943,171.288,33.936Z" transform="translate(-167.06 -31.128)" fill="#04121e"/><path d="M164.768,34.94a5.144,5.144,0,0,1,6.287-3.34,3.3,3.3,0,0,1,3.891-1.565,3.251,3.251,0,0,1,1.9,1.569c.258-.026.517-.045.776-.05l7.46-.157c4.662-.1,8.527,3.339,8.632,7.678l.082,3.408a2.771,2.771,0,0,1,1.238,2.24,2.824,2.824,0,0,1-5.072,1.732l-.489.01c-.1,0-.2.01-.291.02-2.43-1.816-4.154-5.644-4.154-5.644-.318,1.17-2.006,1.823-4.211,2.16a3.737,3.737,0,0,1-4.594.489c-.087-.055-.169-.113-.249-.174-.181,0-.359,0-.539,0a4.6,4.6,0,0,1-8.937-1.335,4.476,4.476,0,0,1,.184-1.378A5.035,5.035,0,0,1,164.768,34.94Z" transform="translate(-164.526 -29.881)" fill="#04121e"/></g><g transform="translate(36.965 39.371)"><path d="M167.266,110.346s-6.025,16.241-4.751,30.491c.721,8.06-2.475,56.446-2.475,56.446L149.12,198.95s3.375-58.545,2.775-65.979c-.592-7.348,3.542-15.562,3.542-15.562S157.947,111.488,167.266,110.346Z" transform="translate(-149.12 -110.346)" fill="#fff"/><path d="M178.522,110.346s-4.329.885-4.96,3.542.038,3.575-.355,5.336-2.244,2.081-2.27,4.946c-.056,6.2,1.268,14.935,2.827,17.938a71.808,71.808,0,0,1,.22-12.12A86.207,86.207,0,0,1,178.522,110.346Z" transform="translate(-160.377 -110.346)" fill="#d5dddd"/></g><g transform="translate(42.261 37.577)"><g transform="translate(28.196 22.318)"><path d="M220.094,170.612c.222-.363,5.415-8.952,3.157-14.451a6.7,6.7,0,0,0-4.706-3.868l-.229.749a5.937,5.937,0,0,1,4.18,3.406c2.114,5.148-3.049,13.683-3.1,13.769Z" transform="translate(-218.316 -152.292)" fill="#a0c1e4"/></g><path d="M221.045,187.112a1.105,1.105,0,0,0-1.307-.786,1.044,1.044,0,0,0-.541,1.389,1.1,1.1,0,0,0,1.307.785A1.043,1.043,0,0,0,221.045,187.112Z" transform="translate(-190.535 -147.334)" fill="#1fb28f"/><path d="M210.226,187.831a1,1,0,0,0-.445-1.367,1.073,1.073,0,0,0-1.3.692,1.006,1.006,0,0,0,.446,1.367A1.073,1.073,0,0,0,210.226,187.831Z" transform="translate(-184.991 -147.398)" fill="#1fb28f"/><g transform="translate(23.322 24.493)"><path d="M217.564,158.622l.3-.724a14.083,14.083,0,0,0-9.619-.554l.271.736A13.477,13.477,0,0,1,217.564,158.622Z" transform="translate(-208.246 -156.736)" fill="#a0c1e4"/></g><g transform="translate(26.552)"><path d="M217.262,129.105c0-.03.181-3.125.288-10.5.093-6.37-.5-10.366-1.706-11.556a1.109,1.109,0,0,0-.757-.369l-.011,1.171a.349.349,0,0,1-.156-.029c.015.009,1.556.989,1.414,10.767-.107,7.351-.284,10.42-.286,10.45Z" transform="translate(-214.919 -106.679)" fill="#1fb28f"/></g><g transform="translate(2.37 0.6)"><path d="M166.172,125.542c.011-.148,1.166-14.788,9.347-16.492l-.257-1.144c-9.073,1.889-10.258,16.916-10.3,17.555Z" transform="translate(-164.958 -107.906)" fill="#1fb28f"/></g><g transform="translate(0 17.482)"><path d="M161.231,148.127a3.193,3.193,0,0,1-1.161-2.229,3.305,3.305,0,0,1,3.134-3.482,3.451,3.451,0,0,1,2.46.786,3.192,3.192,0,0,1,1.161,2.229,3.305,3.305,0,0,1-3.134,3.482c-.083.006-.166.009-.249.009A3.442,3.442,0,0,1,161.231,148.127Zm2.08-4.287a1.856,1.856,0,0,0-1.76,1.956,1.792,1.792,0,0,0,.652,1.252,1.94,1.94,0,0,0,1.381.441,1.856,1.856,0,0,0,1.76-1.956,1.793,1.793,0,0,0-.652-1.252,1.935,1.935,0,0,0-1.242-.446C163.4,143.835,163.357,143.837,163.311,143.84Z" transform="translate(-160.061 -142.408)" fill="#a0c1e4"/></g></g><g transform="translate(0 33.021)"><path d="M73.036,100.2l22.924.15,14.019,21.52-.288.618-21.934-.529-15.01-21.141Z" transform="translate(-72.747 -98.813)" fill="#27debf"/><path d="M120.111,101.121l14.019,21.52.288-.618L120.4,100.5Z" transform="translate(-97.186 -98.969)" opacity="0.35"/><path d="M72.747,101.46l22.924.15,14.019,21.52L87.757,122.6Z" transform="translate(-72.747 -99.458)" opacity="0.25"/><g transform="translate(11.914 17.38)" opacity="0.2"><path d="M101.79,132.89c-.024.523-1.227,2.054-3.559,2.625l-.868-1.223Z" transform="translate(-97.362 -132.89)"/></g><g transform="translate(7.394 3.489)" opacity="0.1"><path d="M88.505,105.759l-.45-.728c-.248-.4,1.032-.573,2.861-.382l4.074-.15c1.829.192,3.506.23,3.754.632l.45.728Z" transform="translate(-88.024 -104.499)"/></g><g transform="translate(5.359)"><path d="M83.848,98.974c-.156-.251.33-.351,1.042-.4l1.316-.005s-.888-.978,2.158-1.177c3.351-.219,3.945,1.231,3.945,1.231a14.645,14.645,0,0,0,1.658.027c1.131-.02,1.313.135,1.495.381l.329.447-11.683-.07S84,99.225,83.848,98.974Z" transform="translate(-83.818 -97.369)" fill="#37474f"/></g><g transform="translate(6.365 1.871)"><path d="M86.555,102.067c1.116.1,1.59.173,1.974.792.438.708.587,1.014.587,1.014l6.163.258s-.7-1.025-.9-1.376.51-.592,1.6-.485l-.56-.862-9.518-.216Z" transform="translate(-85.898 -101.192)" fill="#37474f"/></g><g transform="translate(7.119 3.595)"><path d="M87.936,105.976l-.45-.728c-.248-.4,1.032-.573,2.861-.381l4.074-.151c1.828.192,3.505.23,3.754.632l.45.729Z" transform="translate(-87.455 -104.716)" fill="#37474f"/></g><g transform="translate(3.62 9.035)"><path d="M81.751,116.048s1.645,2.324,2.067,2.911,4.3.96,6.051.6c3.342-.679,3.946-.132,3.961,2.313.014,2.255-1.8,3.707-4.811,4.34a5.656,5.656,0,0,1-5.163-2.015c-1.864-2.267-2.347-5.188-3.26-6.571S80.613,115.42,81.751,116.048Z" transform="translate(-80.227 -115.835)" fill="#fdbea6"/></g></g></g></g></g></svg>