<svg xmlns="http://www.w3.org/2000/svg" width="16" height="16" viewBox="0 0 16 16"><path d="M-291.7-205.111l-.341-.748a.644.644,0,0,0-.59-.385.555.555,0,0,0-.228.042l-.765.291a1.877,1.877,0,0,1-.672.124,1.865,1.865,0,0,1-1.551-.821,1.852,1.852,0,0,1-.217-1.735l.289-.769a.66.66,0,0,0-.341-.821l-.745-.343A1.893,1.893,0,0,1-298-211.989a1.879,1.879,0,0,1,1.107-1.725l.745-.343a.659.659,0,0,0,.341-.821l-.289-.769a1.889,1.889,0,0,1,.217-1.735,1.92,1.92,0,0,1,1.551-.821,1.878,1.878,0,0,1,.672.125l.765.291a.587.587,0,0,0,.228.042.65.65,0,0,0,.59-.384l.341-.748A1.924,1.924,0,0,1-289.985-220a1.87,1.87,0,0,1,1.717,1.112l.341.748a.644.644,0,0,0,.59.384.554.554,0,0,0,.228-.042l.765-.291a1.88,1.88,0,0,1,.672-.125,1.865,1.865,0,0,1,1.551.821,1.852,1.852,0,0,1,.217,1.735l-.29.769a.659.659,0,0,0,.341.821l.744.343A1.879,1.879,0,0,1-282-212a1.879,1.879,0,0,1-1.107,1.725l-.745.343a.66.66,0,0,0-.341.821l.29.769a1.906,1.906,0,0,1-.217,1.746,1.93,1.93,0,0,1-1.551.831,1.89,1.89,0,0,1-.672-.135l-.765-.3a.588.588,0,0,0-.228-.042.65.65,0,0,0-.59.385l-.341.748A1.871,1.871,0,0,1-289.985-204,1.871,1.871,0,0,1-291.7-205.111Zm.765-1.268.341.748a.643.643,0,0,0,.59.385.634.634,0,0,0,.59-.385l.341-.748a1.9,1.9,0,0,1,1.717-1.112,1.824,1.824,0,0,1,.662.125l.765.291a.63.63,0,0,0,.765-.239.623.623,0,0,0,.072-.592l-.29-.769a1.9,1.9,0,0,1,.983-2.39l.744-.343a.647.647,0,0,0,.383-.592.638.638,0,0,0-.383-.592l-.744-.343a1.911,1.911,0,0,1-.983-2.39l.29-.769a.622.622,0,0,0-.072-.592.661.661,0,0,0-.765-.239l-.765.291a1.824,1.824,0,0,1-.662.125,1.9,1.9,0,0,1-1.717-1.112l-.341-.748a.643.643,0,0,0-.59-.385.634.634,0,0,0-.59.385l-.341.748a1.9,1.9,0,0,1-1.717,1.112,1.823,1.823,0,0,1-.662-.125l-.765-.291a.63.63,0,0,0-.765.239.622.622,0,0,0-.072.592l.29.769a1.9,1.9,0,0,1-.983,2.39l-.745.343a.647.647,0,0,0-.383.592.638.638,0,0,0,.383.592l.745.343a1.91,1.91,0,0,1,.983,2.39l-.29.769a.622.622,0,0,0,.072.592.661.661,0,0,0,.765.239l.765-.291a1.823,1.823,0,0,1,.662-.125A1.9,1.9,0,0,1-290.936-206.379ZM-292.7-212a2.7,2.7,0,0,1,2.689-2.7,2.7,2.7,0,0,1,2.689,2.7,2.7,2.7,0,0,1-2.689,2.7A2.7,2.7,0,0,1-292.7-212Zm1.241,0a1.455,1.455,0,0,0,1.448,1.455A1.456,1.456,0,0,0-288.568-212a1.456,1.456,0,0,0-1.448-1.455A1.456,1.456,0,0,0-291.463-212Z" transform="translate(298 220)" fill="#005ddd"/></svg>